<svg width="163" height="163" viewBox="0 0 163 163" fill="none" xmlns="http://www.w3.org/2000/svg">
<g clip-path="url(#clip0_248_1456)">
<path d="M64.1283 72.1503C64.1283 72.1503 64.8031 81.2653 68.5977 83.4136C68.5977 83.4136 56.4216 81.3109 53.4257 76.7502C50.433 72.1927 64.1283 72.1503 64.1283 72.1503Z" fill="url(#paint0_linear_248_1456)"/>
<path d="M76.2578 99.0421C83.7623 101.096 85.5358 100.522 86.8724 102.534C87.0256 102.765 87.8112 103.945 87.6515 105.458C87.5276 106.664 86.8528 107.596 86.4323 108.007C83.8634 110.494 76.7892 107.45 72.737 104.121C71.8535 103.394 69.4835 101.448 69.9627 100.066C70.1583 99.4985 70.7647 99.2181 71.2015 99.0225C73.1282 98.1586 75.1266 98.7324 76.2578 99.0421Z" fill="url(#paint1_linear_248_1456)"/>
<path d="M99.4236 48.6034H97.8262V59.0843H99.4236V48.6034Z" fill="url(#paint2_linear_248_1456)"/>
<path d="M104.141 64.874H93.1122C92.3004 64.874 91.6387 64.2155 91.6387 63.4005V59.4592C91.6387 58.6474 92.2972 57.9856 93.1122 57.9856H104.141C104.953 57.9856 105.614 58.6442 105.614 59.4592V63.4005C105.614 64.2155 104.956 64.874 104.141 64.874Z" fill="url(#paint3_linear_248_1456)"/>
<path d="M123.629 87.782C123.629 94.1488 118.469 99.3094 112.102 99.3094H85.1514C78.8107 99.3094 73.624 94.1227 73.624 87.782V81.7934C73.624 70.5106 82.8531 61.2815 94.1359 61.2815H103.12C114.403 61.2815 123.632 70.5106 123.632 81.7934V87.782H123.629Z" fill="url(#paint4_linear_248_1456)"/>
<path d="M115.763 86.6899C115.108 87.0127 114.374 87.1822 113.631 87.1822H83.6225C82.876 87.1822 82.1425 87.0127 81.4905 86.6899C79.8833 85.8945 78.977 84.2906 79.202 82.6443L79.2183 82.5236C79.9876 76.949 85.0373 72.6622 91.2248 72.3427C93.8426 72.2058 96.5908 72.1373 99.4596 72.1536C101.706 72.1666 103.877 72.2318 105.967 72.3394C112.18 72.6589 117.266 76.9295 118.038 82.5236C118.045 82.5628 118.048 82.6051 118.055 82.6443C118.28 84.2906 117.37 85.8945 115.763 86.6899Z" fill="url(#paint5_linear_248_1456)"/>
<path d="M90.716 85.9532C93.8416 85.9532 96.3754 83.4194 96.3754 80.2938C96.3754 77.1682 93.8416 74.6345 90.716 74.6345C87.5904 74.6345 85.0566 77.1682 85.0566 80.2938C85.0566 83.4194 87.5904 85.9532 90.716 85.9532Z" fill="url(#paint6_radial_248_1456)"/>
<path d="M90.7162 84.3558C92.9596 84.3558 94.7782 82.5372 94.7782 80.2938C94.7782 78.0505 92.9596 76.2319 90.7162 76.2319C88.4729 76.2319 86.6543 78.0505 86.6543 80.2938C86.6543 82.5372 88.4729 84.3558 90.7162 84.3558Z" fill="#EEFDFF"/>
<path d="M90.7156 83.7038C92.5989 83.7038 94.1256 82.1771 94.1256 80.2938C94.1256 78.4105 92.5989 76.8839 90.7156 76.8839C88.8324 76.8839 87.3057 78.4105 87.3057 80.2938C87.3057 82.1771 88.8324 83.7038 90.7156 83.7038Z" fill="url(#paint7_linear_248_1456)"/>
<path d="M92.9038 79.4104C92.9038 80.108 92.3366 80.6752 91.6389 80.6752C90.9413 80.6752 90.374 80.108 90.374 79.4104C90.374 78.7127 90.9413 78.1455 91.6389 78.1455C92.3366 78.1487 92.9038 78.7127 92.9038 79.4104Z" fill="#EEFDFF"/>
<path d="M90.2143 83.4169C90.4934 83.4169 90.7196 83.1907 90.7196 82.9116C90.7196 82.6325 90.4934 82.4063 90.2143 82.4063C89.9352 82.4063 89.709 82.6325 89.709 82.9116C89.709 83.1907 89.9352 83.4169 90.2143 83.4169Z" fill="#EEFDFF"/>
<path d="M88.962 82.1553C88.962 82.2955 88.8479 82.4063 88.711 82.4063C88.5741 82.4063 88.46 82.2922 88.46 82.1553C88.46 82.0151 88.5741 81.9043 88.711 81.9043C88.8479 81.9043 88.962 82.0151 88.962 82.1553Z" fill="#EEFDFF"/>
<path d="M106.006 85.9532C109.132 85.9532 111.665 83.4194 111.665 80.2938C111.665 77.1682 109.132 74.6345 106.006 74.6345C102.88 74.6345 100.347 77.1682 100.347 80.2938C100.347 83.4194 102.88 85.9532 106.006 85.9532Z" fill="url(#paint8_radial_248_1456)"/>
<path d="M106.006 84.3558C108.25 84.3558 110.068 82.5372 110.068 80.2938C110.068 78.0505 108.25 76.2319 106.006 76.2319C103.763 76.2319 101.944 78.0505 101.944 80.2938C101.944 82.5372 103.763 84.3558 106.006 84.3558Z" fill="#EEFDFF"/>
<path d="M106.006 83.7038C107.889 83.7038 109.416 82.1771 109.416 80.2938C109.416 78.4105 107.889 76.8839 106.006 76.8839C104.122 76.8839 102.596 78.4105 102.596 80.2938C102.596 82.1771 104.122 83.7038 106.006 83.7038Z" fill="url(#paint9_linear_248_1456)"/>
<path d="M108.19 79.4104C108.19 80.108 107.623 80.6752 106.925 80.6752C106.227 80.6752 105.66 80.108 105.66 79.4104C105.66 78.7127 106.227 78.1455 106.925 78.1455C107.623 78.1455 108.19 78.7127 108.19 79.4104Z" fill="#EEFDFF"/>
<path d="M105.5 83.4169C105.779 83.4169 106.006 83.1907 106.006 82.9116C106.006 82.6325 105.779 82.4063 105.5 82.4063C105.221 82.4063 104.995 82.6325 104.995 82.9116C104.995 83.1907 105.221 83.4169 105.5 83.4169Z" fill="#EEFDFF"/>
<path d="M104.249 82.1553C104.249 82.2955 104.135 82.4063 103.998 82.4063C103.861 82.4063 103.747 82.2922 103.747 82.1553C103.747 82.0151 103.861 81.9043 103.998 81.9043C104.135 81.9043 104.249 82.0151 104.249 82.1553Z" fill="#EEFDFF"/>
<path d="M100.673 47.9057C100.673 49.0369 99.7566 49.953 98.6254 49.953C97.4942 49.953 96.5781 49.0369 96.5781 47.9057C96.5781 46.7745 97.4942 45.8584 98.6254 45.8584C99.7566 45.8584 100.673 46.7745 100.673 47.9057Z" fill="url(#paint10_linear_248_1456)"/>
<path d="M100.05 47.107C100.05 47.4526 99.7696 47.7297 99.4273 47.7297C99.0818 47.7297 98.8047 47.4493 98.8047 47.107C98.8047 46.7614 99.085 46.4843 99.4273 46.4843C99.7696 46.4843 100.05 46.7647 100.05 47.107Z" fill="white"/>
<path d="M116.246 67.8406C116.272 68.7958 115.493 69.9368 114.599 70.0346C113.762 70.1259 113.093 69.2718 112.405 68.3883C111.727 67.5179 110.241 65.2848 110.831 64.6523C111.61 63.8243 116.181 65.588 116.246 67.8406Z" fill="white"/>
<path d="M108.597 64.1992C108.99 64.1992 109.308 63.881 109.308 63.4885C109.308 63.096 108.99 62.7778 108.597 62.7778C108.205 62.7778 107.887 63.096 107.887 63.4885C107.887 63.881 108.205 64.1992 108.597 64.1992Z" fill="white"/>
<path d="M116.145 81.0925C115.916 81.2523 114.325 78.0118 110.055 75.205C108.555 74.2172 107.072 73.513 107.16 73.3076C107.248 73.099 108.917 73.4869 110.254 74.1063C114.511 76.0819 116.415 80.9034 116.145 81.0925Z" fill="white"/>
<path d="M105.21 60.0264C105.158 60.0329 105.126 59.7363 104.878 59.2733C104.878 59.2733 104.761 59.0582 104.627 58.8756C104.197 58.2856 102.746 58.2986 102.632 58.2986C100.369 58.3182 98.9121 58.1747 98.9121 58.1878C98.9121 58.2008 99.9749 58.178 100.751 58.1617C102.945 58.116 104.252 57.9987 104.813 58.5855C105.044 58.83 105.162 59.1462 105.162 59.1462C105.321 59.5798 105.269 60.0166 105.21 60.0264Z" fill="white"/>
<path d="M104.738 89.6109C104.683 90.1521 104.233 90.5693 103.688 90.6215L96.1936 91.3452C95.6524 91.3974 95.1276 91.0746 94.9711 90.553C94.8994 90.3216 94.8472 90.0836 94.8113 89.8358C94.8016 89.7674 94.8179 89.6989 94.8603 89.6435C94.9026 89.5881 94.9646 89.5555 95.033 89.549L104.49 88.6362C104.559 88.6296 104.624 88.6525 104.676 88.6948C104.728 88.7405 104.758 88.8024 104.761 88.8709C104.771 89.1219 104.764 89.3697 104.738 89.6109Z" fill="#EEFDFF"/>
<path d="M104.738 89.6109C104.5 91.9353 102.651 93.8456 100.236 94.0771C97.8558 94.3085 95.7042 92.8318 95 90.6443C95.1891 91.1105 95.6813 91.3974 96.1932 91.3452L103.691 90.6247C104.232 90.5693 104.682 90.152 104.738 89.6109Z" fill="url(#paint11_linear_248_1456)"/>
<path d="M116.548 106.446C116.548 106.514 116.548 106.579 116.545 106.644C116.522 107.274 116.376 107.746 116.304 107.958C114.24 114.26 113.005 117.585 111.27 120.274C110.971 120.737 110.658 121.184 110.319 121.621C109.875 122.204 109.389 122.775 108.852 123.362C107.655 124.666 105.843 125.256 105.259 125.458C103.124 126.211 101.236 126.074 99.9843 126.087H99.7659C98.5076 126.074 96.6233 126.214 94.4912 125.458C93.9077 125.256 92.0919 124.666 90.8987 123.362C87.6061 119.779 86.338 116.799 83.4464 107.958C83.3779 107.756 83.241 107.316 83.2084 106.726C83.1986 106.556 83.1953 106.384 83.2051 106.214C83.2671 105.158 83.6974 104.121 84.457 103.176C85.761 101.552 87.7724 100.662 89.8523 100.656L99.88 100.613L109.725 100.574C111.851 100.565 113.911 101.458 115.261 103.101C115.913 103.896 116.33 104.757 116.483 105.644C116.503 105.771 116.522 105.898 116.535 106.025C116.539 106.162 116.548 106.302 116.548 106.446Z" fill="url(#paint12_linear_248_1456)"/>
<path d="M99.8741 100.613L89.8464 100.656C87.7665 100.666 85.7518 101.556 84.4511 103.176C83.6915 104.121 83.2612 105.158 83.1992 106.214C83.2514 105.128 83.6947 104.066 84.4902 103.101C85.8366 101.458 87.9001 100.565 90.0256 100.574L99.8741 100.613Z" fill="url(#paint13_linear_248_1456)"/>
<path d="M109.84 115.388C109.693 107.609 108.64 106.071 110.192 104.219C110.371 104.007 111.28 102.921 112.777 102.644C113.97 102.423 115.052 102.804 115.564 103.098C118.677 104.861 117.752 112.506 115.704 117.331C115.258 118.384 114.058 121.207 112.597 121.138C111.998 121.112 111.558 120.607 111.248 120.245C109.875 118.638 109.862 116.558 109.84 115.388Z" fill="url(#paint14_linear_248_1456)"/>
<path d="M111.27 120.274C110.97 120.737 110.657 121.184 110.318 121.621C110.211 121.51 110.116 121.399 110.028 121.298C108.656 119.694 108.643 117.614 108.62 116.441C108.473 108.662 107.42 107.124 108.972 105.275C109.086 105.138 109.503 104.643 110.178 104.232C108.646 106.077 109.689 107.629 109.836 115.384C109.855 116.558 109.875 118.638 111.244 120.245C111.254 120.255 111.264 120.265 111.27 120.274Z" fill="url(#paint15_linear_248_1456)"/>
<path d="M115.659 108.91C115.613 108.076 115.457 107.459 115.144 106.23C114.733 104.623 114.218 103.838 114.554 103.528C114.772 103.326 115.199 103.463 115.297 103.492C116.767 103.961 117.224 106.719 117.158 108.447C117.119 109.503 116.862 110.687 116.474 110.739C116.412 110.749 116.262 110.739 116.151 110.644C115.724 110.256 115.695 109.546 115.659 108.91Z" fill="white"/>
<path d="M116.67 111.857C116.67 112.027 116.533 112.164 116.363 112.164C116.194 112.164 116.057 112.027 116.057 111.857C116.057 111.688 116.194 111.551 116.363 111.551C116.533 111.554 116.67 111.691 116.67 111.857Z" fill="white"/>
<path d="M99.4236 140.138C108.258 140.138 115.42 137.205 115.42 133.588C115.42 129.971 108.258 127.039 99.4236 127.039C90.5888 127.039 83.4268 129.971 83.4268 133.588C83.4268 137.205 90.5888 140.138 99.4236 140.138Z" fill="url(#paint16_radial_248_1456)"/>
<path d="M55.0259 76.7535H33.1643C24.6557 76.7535 17.6924 69.7901 17.6924 61.2815C17.6924 52.7729 24.6557 45.8095 33.1643 45.8095H55.0259C63.5345 45.8095 70.4979 52.7729 70.4979 61.2815C70.4979 69.7901 63.5345 76.7535 55.0259 76.7535Z" fill="url(#paint17_linear_248_1456)"/>
<path d="M34.2891 67.2016C34.2989 67.3809 33.774 67.4918 32.7145 67.5407C31.6583 67.5896 31.1236 67.5244 31.1171 67.3451L30.9509 63.733L28.7536 63.8341L28.9199 67.4461C28.9297 67.6254 28.4048 67.7363 27.3453 67.7852C26.2891 67.8341 25.7544 67.7689 25.7479 67.5896L25.2687 57.1772C25.2589 56.9587 25.7805 56.8218 26.84 56.7729C27.8962 56.724 28.4309 56.8088 28.4407 57.0305L28.6102 60.7208L30.8074 60.6197L30.6379 56.962C30.6314 56.8153 30.8889 56.6979 31.4073 56.6132C31.6778 56.5806 31.9452 56.5578 32.206 56.5447L33.0079 56.5382C33.5328 56.5773 33.8001 56.6686 33.8066 56.8153L34.2891 67.2016Z" fill="url(#paint18_linear_248_1456)"/>
<path d="M41.7094 66.7029C41.0671 67.1202 40.2293 67.3549 39.1926 67.4005C38.156 67.4494 37.266 67.1365 36.5227 66.4616C35.7794 65.7868 35.3784 64.8251 35.3198 63.5733C35.2611 62.3214 35.5577 61.2978 36.2097 60.5023C36.8617 59.7069 37.7093 59.2831 38.7558 59.2375C39.8023 59.1886 40.6238 59.42 41.2204 59.9253C41.8169 60.4339 42.1299 61.0696 42.1658 61.8324C42.244 63.5276 41.3084 64.4209 39.3622 64.5121L38.2798 64.561C38.2929 64.874 38.3907 65.0892 38.57 65.2C38.7493 65.3141 39.0036 65.3597 39.3393 65.3467C40.0728 65.3141 40.7607 65.1152 41.4062 64.7469C41.416 64.7371 41.4649 64.8055 41.5561 64.9588C41.8267 65.3989 41.9702 65.7705 41.9865 66.0802C41.9962 66.3932 41.905 66.5986 41.7094 66.7029ZM39.5382 62.253C39.5186 61.8129 39.2937 61.6042 38.8634 61.6238C38.6645 61.6336 38.4983 61.702 38.3613 61.8292C38.2244 61.9563 38.1625 62.1356 38.1723 62.3638L38.1951 62.8495L39.0427 62.8104C39.3915 62.7974 39.5545 62.6116 39.5382 62.253Z" fill="url(#paint19_linear_248_1456)"/>
<path d="M46.2797 66.7909C46.283 66.8854 45.7516 66.9572 44.6856 67.0061C43.8478 67.0354 43.4272 67.0126 43.424 66.9376L42.9317 56.2415C42.9252 56.0851 43.4272 55.984 44.4443 55.9351C45.3343 55.9253 45.7842 55.9579 45.7875 56.0296L46.2797 66.7909Z" fill="url(#paint20_linear_248_1456)"/>
<path d="M50.5502 66.5953C50.5535 66.6898 50.0221 66.7616 48.9561 66.8105C48.1183 66.8398 47.6977 66.817 47.6945 66.742L47.2022 56.0459C47.1957 55.8895 47.6977 55.7884 48.7149 55.7395C49.6048 55.7297 50.0547 55.7623 50.058 55.834L50.5502 66.5953Z" fill="url(#paint21_linear_248_1456)"/>
<path d="M52.6102 65.6988C51.9223 65.0077 51.5507 64.0231 51.492 62.7452C51.4333 61.4673 51.7137 60.4534 52.3363 59.7004C52.959 58.9473 53.8229 58.5463 54.9313 58.4942C56.0397 58.442 56.9362 58.7648 57.6208 59.4559C58.3021 60.147 58.6738 61.1348 58.7325 62.4094C58.7911 63.6874 58.514 64.7012 57.8979 65.4543C57.2818 66.2073 56.4179 66.6083 55.3095 66.6605C54.1945 66.7126 53.2948 66.3899 52.6102 65.6988ZM55.0584 61.1152C54.4684 61.1413 54.1945 61.6368 54.2369 62.6018C54.2826 63.5635 54.5988 64.0329 55.1921 64.0068C55.7822 63.9808 56.056 63.4852 56.0136 62.5203C55.968 61.5586 55.6485 61.0891 55.0584 61.1152Z" fill="url(#paint22_linear_248_1456)"/>
<path d="M59.9159 63.9286C59.9127 63.8569 60.3951 63.795 61.3634 63.7526C62.3316 63.7069 62.8173 63.7167 62.8206 63.7787L62.9249 66.0411C62.9282 66.1454 62.4489 66.2204 61.4807 66.266C60.5125 66.3117 60.0268 66.3019 60.0235 66.24L59.9159 63.9286ZM62.4652 62.8691C62.4685 62.9311 62.0936 62.98 61.3471 63.0158C60.5973 63.0517 60.2224 63.0419 60.2191 62.9897L59.5508 55.2603C59.5475 55.1755 60.0235 55.1136 60.9819 55.0679C61.9404 55.0223 62.4196 55.0386 62.4229 55.1103L62.4652 62.8691Z" fill="url(#paint23_linear_248_1456)"/>
<path d="M62.0641 61.3695C62.0641 61.3695 61.4447 55.7623 61.7511 55.6091C62.0608 55.4559 62.2075 58.5203 62.0641 61.3695Z" fill="white"/>
<path d="M62.6774 64.1992C62.6774 64.385 62.5275 64.535 62.3416 64.535C62.1558 64.535 62.0059 64.385 62.0059 64.1992C62.0059 64.0134 62.1558 63.8634 62.3416 63.8634C62.5275 63.8634 62.6774 64.0134 62.6774 64.1992Z" fill="white"/>
<path d="M58.2659 61.7444C58.2692 61.4314 58.2301 60.5415 57.5846 59.8178C57.0271 59.1984 56.2839 58.993 55.9448 59.0321C55.8796 59.0386 55.6612 59.0777 55.6482 59.169C55.6188 59.3581 56.5121 59.4918 57.1836 59.9938C57.5553 60.2742 57.9986 60.7762 58.2659 61.7444Z" fill="white"/>
<path d="M49.556 55.9384C49.9015 55.9351 50.0319 62.2236 49.9309 63.3614C49.8298 64.4991 49.4191 55.9384 49.556 55.9384Z" fill="white"/>
<path d="M41.7774 61.3239C41.6274 60.473 40.656 59.5178 40.0496 59.6678C39.4432 59.8178 40.7668 60.2774 41.2428 60.6882C41.7187 61.0957 41.7774 61.3239 41.7774 61.3239Z" fill="white"/>
<path d="M36.4597 66.165C37.1639 66.9441 38.168 67.0973 38.1843 67.0615C38.2006 67.0256 37.0824 66.8757 36.4956 65.9824C36.2185 65.5619 35.9447 64.799 35.7654 64.799C35.7621 64.799 35.7523 64.799 35.7458 64.8056C35.6513 64.874 36.0066 65.6662 36.4597 66.165Z" fill="white"/>
<path d="M33.882 66.0052C33.6571 66.3149 33.6278 58.3801 33.4843 57.6042C33.4843 57.6042 33.4843 57.6042 33.4843 57.5521C33.4811 57.4999 33.4778 57.3988 33.4745 57.1967C33.4745 57.1511 33.4322 56.9946 33.3963 56.962C33.1029 56.6947 31.8087 56.8283 32.3596 56.7566C32.8454 56.6947 33.4093 56.7403 33.5495 56.7925C33.6115 56.8153 33.6147 56.9359 33.631 56.9816C33.9146 58.5561 34.182 65.5977 33.882 66.0052Z" fill="white"/>
<path d="M68.5546 57.4477C68.2123 57.702 65.8195 53.0695 59.8439 49.8976C56.4828 48.1111 53.7412 47.7199 53.8129 47.3939C53.8977 47.0125 57.8162 46.8723 61.3696 48.649C66.7029 51.3157 68.9263 57.1706 68.5546 57.4477Z" fill="white"/>
<path d="M69.0052 59.6385C69.2302 59.6385 69.4127 59.456 69.4127 59.231C69.4127 59.0059 69.2302 58.8234 69.0052 58.8234C68.7801 58.8234 68.5977 59.0059 68.5977 59.231C68.5977 59.456 68.7801 59.6385 69.0052 59.6385Z" fill="white"/>
<path d="M64.8448 78.7486C65.3109 80.0591 65.7999 80.8252 65.6858 80.8936C65.5587 80.9751 64.7176 80.1406 64.2188 79.0452C63.3451 77.1316 63.8146 75.0583 64.0004 75.0517C64.1569 75.0485 64.0461 76.509 64.8448 78.7486Z" fill="white"/>
</g>
<defs>
<linearGradient id="paint0_linear_248_1456" x1="57.7695" y1="71.4006" x2="61.9617" y2="82.7792" gradientUnits="userSpaceOnUse">
<stop stop-color="#AEF0EB"/>
<stop offset="0.0131" stop-color="#B0F0EB"/>
<stop offset="0.1379" stop-color="#C2F4EB"/>
<stop offset="0.2895" stop-color="#CEF6EA"/>
<stop offset="0.4961" stop-color="#D5F8EA"/>
<stop offset="1" stop-color="#D7F8EA"/>
</linearGradient>
<linearGradient id="paint1_linear_248_1456" x1="80.5277" y1="103.77" x2="109.621" y2="126.381" gradientUnits="userSpaceOnUse">
<stop offset="0.0397" stop-color="#06BED8"/>
<stop offset="1" stop-color="#DEFA8E"/>
</linearGradient>
<linearGradient id="paint2_linear_248_1456" x1="95.3714" y1="54.3197" x2="100.162" y2="53.621" gradientUnits="userSpaceOnUse">
<stop offset="0.0397" stop-color="#06CFF1"/>
<stop offset="1" stop-color="#DEFA8E"/>
</linearGradient>
<linearGradient id="paint3_linear_248_1456" x1="94.1494" y1="66.4852" x2="102.652" y2="56.8858" gradientUnits="userSpaceOnUse">
<stop offset="0.0397" stop-color="#06CFF1"/>
<stop offset="1" stop-color="#DEFA8E"/>
</linearGradient>
<linearGradient id="paint4_linear_248_1456" x1="81.8346" y1="99.7357" x2="115.526" y2="66.0441" gradientUnits="userSpaceOnUse">
<stop offset="0.0397" stop-color="#06CFF1"/>
<stop offset="1" stop-color="#DEFA8E"/>
</linearGradient>
<linearGradient id="paint5_linear_248_1456" x1="98.5377" y1="87.1339" x2="98.8372" y2="73.6592" gradientUnits="userSpaceOnUse">
<stop stop-color="#030D14"/>
<stop offset="1" stop-color="#0B2F45"/>
</linearGradient>
<radialGradient id="paint6_radial_248_1456" cx="0" cy="0" r="1" gradientUnits="userSpaceOnUse" gradientTransform="translate(90.717 80.2954) scale(5.60016)">
<stop offset="0.1296" stop-color="#3280FC"/>
<stop offset="1"/>
</radialGradient>
<linearGradient id="paint7_linear_248_1456" x1="87.3052" y1="80.2953" x2="94.128" y2="80.2953" gradientUnits="userSpaceOnUse">
<stop stop-color="#030D14"/>
<stop offset="1" stop-color="#0B2F45"/>
</linearGradient>
<radialGradient id="paint8_radial_248_1456" cx="0" cy="0" r="1" gradientUnits="userSpaceOnUse" gradientTransform="translate(106.004 80.2954) scale(5.60015)">
<stop offset="0.1296" stop-color="#3280FC"/>
<stop offset="1"/>
</radialGradient>
<linearGradient id="paint9_linear_248_1456" x1="102.593" y1="80.2953" x2="109.415" y2="80.2953" gradientUnits="userSpaceOnUse">
<stop stop-color="#030D14"/>
<stop offset="1" stop-color="#0B2F45"/>
</linearGradient>
<linearGradient id="paint10_linear_248_1456" x1="94.3194" y1="48.5343" x2="100.66" y2="47.6097" gradientUnits="userSpaceOnUse">
<stop offset="0.0397" stop-color="#06CFF1"/>
<stop offset="1" stop-color="#DEFA8E"/>
</linearGradient>
<linearGradient id="paint11_linear_248_1456" x1="98.4217" y1="92.3676" x2="108.177" y2="82.6127" gradientUnits="userSpaceOnUse">
<stop offset="0.0714" stop-color="#0DA9AB"/>
<stop offset="1" stop-color="#DEFA8E"/>
</linearGradient>
<linearGradient id="paint12_linear_248_1456" x1="89.2084" y1="121.97" x2="115.054" y2="91.7888" gradientUnits="userSpaceOnUse">
<stop offset="0.0397" stop-color="#06CFF1"/>
<stop offset="0.0408" stop-color="#06CFF1"/>
<stop offset="0.1607" stop-color="#37D9DB"/>
<stop offset="0.2745" stop-color="#5DE0CA"/>
<stop offset="0.3793" stop-color="#78E6BD"/>
<stop offset="0.4719" stop-color="#88E9B6"/>
<stop offset="0.5423" stop-color="#8EEAB3"/>
<stop offset="0.8004" stop-color="#B9F39F"/>
<stop offset="1" stop-color="#DEFA8E"/>
</linearGradient>
<linearGradient id="paint13_linear_248_1456" x1="87.8399" y1="106.923" x2="103.382" y2="88.7736" gradientUnits="userSpaceOnUse">
<stop offset="0.0397" stop-color="#06CFF1"/>
<stop offset="1" stop-color="#DEFA8E"/>
</linearGradient>
<linearGradient id="paint14_linear_248_1456" x1="121.235" y1="117.463" x2="101.884" y2="103.31" gradientUnits="userSpaceOnUse">
<stop offset="0.0397" stop-color="#06CFF1"/>
<stop offset="0.0734" stop-color="#0FD1ED"/>
<stop offset="0.4151" stop-color="#67E2C5"/>
<stop offset="0.6937" stop-color="#A7EFA7"/>
<stop offset="0.8955" stop-color="#CFF795"/>
<stop offset="1" stop-color="#DEFA8E"/>
</linearGradient>
<linearGradient id="paint15_linear_248_1456" x1="104.181" y1="116.09" x2="117.895" y2="108.944" gradientUnits="userSpaceOnUse">
<stop offset="0.0397" stop-color="#06BED8"/>
<stop offset="1" stop-color="#DEFA8E"/>
</linearGradient>
<radialGradient id="paint16_radial_248_1456" cx="0" cy="0" r="1" gradientUnits="userSpaceOnUse" gradientTransform="translate(99.4247 133.589) scale(15.9968 6.54888)">
<stop stop-color="#BCD7D6"/>
<stop offset="1" stop-color="white"/>
</radialGradient>
<linearGradient id="paint17_linear_248_1456" x1="17.6939" y1="61.281" x2="70.4974" y2="61.281" gradientUnits="userSpaceOnUse">
<stop stop-color="#D7F8EA"/>
<stop offset="0.5053" stop-color="#ECF8F2"/>
<stop offset="1" stop-color="#D7F8EA"/>
</linearGradient>
<linearGradient id="paint18_linear_248_1456" x1="26.019" y1="63.1493" x2="68.1802" y2="52.1526" gradientUnits="userSpaceOnUse">
<stop offset="0.0397" stop-color="#06CFF1"/>
<stop offset="1" stop-color="#DEFA8E"/>
</linearGradient>
<linearGradient id="paint19_linear_248_1456" x1="26.8945" y1="66.5038" x2="69.056" y2="55.5071" gradientUnits="userSpaceOnUse">
<stop offset="0.0397" stop-color="#06CFF1"/>
<stop offset="1" stop-color="#DEFA8E"/>
</linearGradient>
<linearGradient id="paint20_linear_248_1456" x1="26.7981" y1="66.1329" x2="68.9585" y2="55.1365" gradientUnits="userSpaceOnUse">
<stop offset="0.0397" stop-color="#06CFF1"/>
<stop offset="1" stop-color="#DEFA8E"/>
</linearGradient>
<linearGradient id="paint21_linear_248_1456" x1="27.0223" y1="66.9921" x2="69.1827" y2="55.9956" gradientUnits="userSpaceOnUse">
<stop offset="0.0397" stop-color="#06CFF1"/>
<stop offset="1" stop-color="#DEFA8E"/>
</linearGradient>
<linearGradient id="paint22_linear_248_1456" x1="27.7326" y1="69.7194" x2="69.8943" y2="58.7226" gradientUnits="userSpaceOnUse">
<stop offset="0.0397" stop-color="#06CFF1"/>
<stop offset="1" stop-color="#DEFA8E"/>
</linearGradient>
<linearGradient id="paint23_linear_248_1456" x1="27.6554" y1="69.4183" x2="69.8155" y2="58.4219" gradientUnits="userSpaceOnUse">
<stop offset="0.0397" stop-color="#06CFF1"/>
<stop offset="1" stop-color="#DEFA8E"/>
</linearGradient>
<clipPath id="clip0_248_1456">
<rect width="163" height="163" fill="white"/>
</clipPath>
</defs>
</svg>
