<svg width="221" height="221" viewBox="0 0 221 221" fill="none" xmlns="http://www.w3.org/2000/svg">
<path d="M221 169.021H0V169.131H221V169.021Z" fill="#EBEBEB"/>
<path d="M198.856 176.133H184.217V176.243H198.856V176.133Z" fill="#EBEBEB"/>
<path d="M146.4 177.335H142.559V177.445H146.4V177.335Z" fill="#EBEBEB"/>
<path d="M183.775 172.031H175.293V172.141H183.775V172.031Z" fill="#EBEBEB"/>
<path d="M42.2775 172.773H23.1875V172.884H42.2775V172.773Z" fill="#EBEBEB"/>
<path d="M49.0132 172.773H46.2153V172.884H49.0132V172.773Z" fill="#EBEBEB"/>
<path d="M99.5159 174.639H58.1094V174.749H99.5159V174.639Z" fill="#EBEBEB"/>
<path d="M104.758 149.308H19.4125C18.0202 149.308 16.8887 148.176 16.8887 146.784V26.8118C16.8887 25.4195 18.0202 24.288 19.4125 24.288H104.763C106.155 24.288 107.286 25.4195 107.286 26.8118V146.784C107.282 148.176 106.151 149.308 104.758 149.308ZM19.4125 24.3985C18.0821 24.3985 16.9992 25.4814 16.9992 26.8118V146.784C16.9992 148.114 18.0821 149.197 19.4125 149.197H104.763C106.093 149.197 107.176 148.114 107.176 146.784V26.8118C107.176 25.4814 106.093 24.3985 104.763 24.3985H19.4125Z" fill="#EBEBEB"/>
<path d="M200.363 149.308H115.013C113.621 149.308 112.489 148.176 112.489 146.784V26.8118C112.489 25.4195 113.621 24.288 115.013 24.288H200.363C201.756 24.288 202.887 25.4195 202.887 26.8118V146.784C202.887 148.176 201.756 149.308 200.363 149.308ZM115.013 24.3985C113.683 24.3985 112.6 25.4814 112.6 26.8118V146.784C112.6 148.114 113.683 149.197 115.013 149.197H200.363C201.694 149.197 202.777 148.114 202.777 146.784V26.8118C202.777 25.4814 201.694 24.3985 200.363 24.3985H115.013Z" fill="#EBEBEB"/>
<path d="M72.7044 29.0615H41.2119V135.897H72.7044V29.0615Z" fill="#FAFAFA"/>
<path d="M68.0148 29.0615H66.1761L55.1924 135.897H57.0311L68.0148 29.0615Z" fill="#F5F5F5"/>
<path d="M72.1477 29.4727H41.0088V30.4141H72.1477V29.4727Z" fill="#E0E0E0"/>
<path d="M72.1477 134.96H41.0088V136.976H72.1477V134.96Z" fill="#EBEBEB"/>
<path d="M71.63 136.887H42.2061V136.976H71.63V136.887Z" fill="#EBEBEB"/>
<path d="M42.2064 29.4726H71.6304V136.887H73.394V28.151H40.4429V136.887H42.2064V29.4726Z" fill="#EBEBEB"/>
<path d="M107.751 29.0615H76.2583V135.897H107.751V29.0615Z" fill="#FAFAFA"/>
<path d="M99.0166 29.0615H88.9744L77.9907 135.897H88.0285L99.0166 29.0615Z" fill="#F5F5F5"/>
<path d="M108.078 29.4727H76.0552V30.4141H108.078V29.4727Z" fill="#E0E0E0"/>
<path d="M108.078 134.96H76.0552V136.976H108.078V134.96Z" fill="#EBEBEB"/>
<path d="M106.676 136.887H77.2524V136.976H106.676V136.887Z" fill="#EBEBEB"/>
<path d="M77.2528 29.4726H106.677V136.887H108.436V28.151H75.4893V136.887H77.2528V29.4726Z" fill="#EBEBEB"/>
<path d="M141.908 29.0615H111.3V135.897H141.908V29.0615Z" fill="#FAFAFA"/>
<path d="M128.644 29.0615H126.805L115.821 135.897H117.66L128.644 29.0615Z" fill="#F5F5F5"/>
<path d="M142.24 29.4727H111.101V30.4141H142.24V29.4727Z" fill="#E0E0E0"/>
<path d="M142.24 134.96H111.101V136.976H142.24V134.96Z" fill="#EBEBEB"/>
<path d="M141.722 136.887H112.298V136.976H141.722V136.887Z" fill="#EBEBEB"/>
<path d="M112.299 29.4726H141.718V136.887H143.482V28.151H110.535V136.887H112.299V29.4726Z" fill="#EBEBEB"/>
<path d="M177.838 29.0615H146.346V135.897H177.838V29.0615Z" fill="#FAFAFA"/>
<path d="M174.757 29.0615H164.72L153.731 135.897H163.774L174.757 29.0615Z" fill="#F5F5F5"/>
<path d="M177.281 29.4727H146.142V30.4141H177.281V29.4727Z" fill="#E0E0E0"/>
<path d="M177.281 134.96H146.142V136.976H177.281V134.96Z" fill="#EBEBEB"/>
<path d="M147.34 29.4726H176.764V136.887H178.528V28.151H145.581V136.887H147.34V29.4726Z" fill="#EBEBEB"/>
<path d="M176.764 136.887H147.34V136.976H176.764V136.887Z" fill="#EBEBEB"/>
<path d="M65.1686 111.322H51.4976V134.965H65.1686V111.322Z" fill="#EBEBEB"/>
<path d="M62.5476 108.021V113.948H61.4691H55.2015H54.123V108.021H62.5476Z" fill="#EBEBEB"/>
<path d="M62.5436 113.948H64.2939V112.198H62.5436V113.948Z" fill="#FAFAFA"/>
<path d="M59.1569 113.948H60.9072V112.198H59.1569V113.948Z" fill="#FAFAFA"/>
<path d="M55.7658 113.948H57.5161V112.198H55.7658V113.948Z" fill="#FAFAFA"/>
<path d="M52.3752 113.948H54.1255V112.198H52.3752V113.948Z" fill="#F0F0F0"/>
<path d="M62.5436 117.127H64.2939V115.376H62.5436V117.127Z" fill="#F0F0F0"/>
<path d="M59.1569 117.127H60.9072V115.376H59.1569V117.127Z" fill="#F0F0F0"/>
<path d="M55.7658 117.127H57.5161V115.376H55.7658V117.127Z" fill="#FAFAFA"/>
<path d="M52.3752 117.127H54.1255V115.376H52.3752V117.127Z" fill="#FAFAFA"/>
<path d="M62.5436 120.31H64.2939V118.559H62.5436V120.31Z" fill="#F0F0F0"/>
<path d="M59.1569 120.31H60.9072V118.559H59.1569V120.31Z" fill="#FAFAFA"/>
<path d="M55.7658 120.31H57.5161V118.559H55.7658V120.31Z" fill="#FAFAFA"/>
<path d="M59.1569 111.199H60.9072V109.449H59.1569V111.199Z" fill="#FAFAFA"/>
<path d="M55.7658 111.199H57.5161V109.449H55.7658V111.199Z" fill="#F0F0F0"/>
<path d="M52.3752 120.31H54.1255V118.559H52.3752V120.31Z" fill="#F0F0F0"/>
<path d="M62.5436 123.488H64.2939V121.738H62.5436V123.488Z" fill="#FAFAFA"/>
<path d="M59.1569 123.488H60.9072V121.738H59.1569V123.488Z" fill="#F0F0F0"/>
<path d="M55.7658 123.488H57.5161V121.738H55.7658V123.488Z" fill="#F0F0F0"/>
<path d="M52.3752 123.488H54.1255V121.738H52.3752V123.488Z" fill="#FAFAFA"/>
<path d="M62.5436 126.672H64.2939V124.921H62.5436V126.672Z" fill="#F0F0F0"/>
<path d="M59.1569 126.672H60.9072V124.921H59.1569V126.672Z" fill="#FAFAFA"/>
<path d="M55.7658 126.672H57.5161V124.921H55.7658V126.672Z" fill="#FAFAFA"/>
<path d="M52.3752 126.672H54.1255V124.921H52.3752V126.672Z" fill="#F0F0F0"/>
<path d="M62.5436 129.85H64.2939V128.1H62.5436V129.85Z" fill="#F0F0F0"/>
<path d="M59.1569 129.85H60.9072V128.1H59.1569V129.85Z" fill="#FAFAFA"/>
<path d="M55.7658 129.85H57.5161V128.1H55.7658V129.85Z" fill="#F0F0F0"/>
<path d="M52.3752 129.85H54.1255V128.1H52.3752V129.85Z" fill="#FAFAFA"/>
<path d="M62.5436 133.033H64.2939V131.283H62.5436V133.033Z" fill="#FAFAFA"/>
<path d="M59.1569 133.033H60.9072V131.283H59.1569V133.033Z" fill="#FAFAFA"/>
<path d="M55.7658 133.033H57.5161V131.283H55.7658V133.033Z" fill="#F0F0F0"/>
<path d="M52.3752 133.033H54.1255V131.283H52.3752V133.033Z" fill="#F0F0F0"/>
<path d="M161.48 119.937H149.232V134.965H161.48V119.937Z" fill="#F0F0F0"/>
<path d="M150.297 121.603H153.144H153.931H154.713V123.168H153.931H153.144H150.297V121.603Z" fill="#E6E6E6"/>
<path d="M150.297 124.64H153.144H153.931H154.713V126.209H153.931H153.144H150.297V124.64Z" fill="#FAFAFA"/>
<path d="M150.297 127.676H153.144H153.931H154.713V129.245H153.931H153.144H150.297V127.676Z" fill="#E6E6E6"/>
<path d="M150.297 130.713H153.144H154.355H154.713V132.282H154.355H153.144H150.297V130.713Z" fill="#FAFAFA"/>
<path d="M155.995 121.603H158.842H159.628H160.411V123.168H159.628H158.842H155.995V121.603Z" fill="#FAFAFA"/>
<path d="M155.995 124.64H158.842H159.951H160.411V126.209H159.951H158.842H155.995V124.64Z" fill="#FAFAFA"/>
<path d="M155.995 127.676H158.842H159.628H160.411V129.245H159.628H158.842H155.995V127.676Z" fill="#E6E6E6"/>
<path d="M155.995 130.713H158.842H159.628H160.411V132.282H159.628H158.842H155.995V130.713Z" fill="#FAFAFA"/>
<path d="M102.46 125.625H91.3306V134.965H102.46V125.625Z" fill="#F0F0F0"/>
<path d="M100.326 128.216H101.75V126.793H100.326V128.216Z" fill="#FAFAFA"/>
<path d="M97.5655 128.216H98.9888V126.793H97.5655V128.216Z" fill="#FAFAFA"/>
<path d="M94.8038 128.216H96.2271V126.793H94.8038V128.216Z" fill="#FAFAFA"/>
<path d="M92.047 128.216H93.4702V126.793H92.047V128.216Z" fill="#FAFAFA"/>
<path d="M100.326 130.803H101.75V129.38H100.326V130.803Z" fill="#FAFAFA"/>
<path d="M97.5655 130.803H98.9888V129.38H97.5655V130.803Z" fill="#FAFAFA"/>
<path d="M94.8038 130.803H96.2271V129.38H94.8038V130.803Z" fill="#FAFAFA"/>
<path d="M92.047 130.803H93.4702V129.38H92.047V130.803Z" fill="#E6E6E6"/>
<path d="M100.326 133.39H101.75V131.967H100.326V133.39Z" fill="#E6E6E6"/>
<path d="M97.5655 133.39H98.9888V131.967H97.5655V133.39Z" fill="#E6E6E6"/>
<path d="M94.8038 133.39H96.2271V131.967H94.8038V133.39Z" fill="#FAFAFA"/>
<path d="M92.047 133.39H93.4702V131.967H92.047V133.39Z" fill="#E6E6E6"/>
<path d="M89.8229 118.721H78.6934V134.965H89.8229V118.721Z" fill="#F0F0F0"/>
<path d="M89.111 119.433H84.9253V123.446H89.111V119.433Z" fill="#FAFAFA"/>
<path d="M83.591 119.433H79.4053V123.446H83.591V119.433Z" fill="#FAFAFA"/>
<path d="M89.111 124.609H84.9253V128.622H89.111V124.609Z" fill="#FAFAFA"/>
<path d="M83.591 124.609H79.4053V128.622H83.591V124.609Z" fill="#FAFAFA"/>
<path d="M89.111 129.784H84.9253V133.798H89.111V129.784Z" fill="#FAFAFA"/>
<path d="M83.591 129.784H79.4053V133.798H83.591V129.784Z" fill="#FAFAFA"/>
<path d="M110.5 188.982C157.831 188.982 196.2 186.741 196.2 183.978C196.2 181.215 157.831 178.975 110.5 178.975C63.1697 178.975 24.8008 181.215 24.8008 183.978C24.8008 186.741 63.1697 188.982 110.5 188.982Z" fill="#F5F5F5"/>
<path d="M196.5 35.1876V132.534L184.787 144.247H116.979V35.1876H196.5Z" fill="#407BFF"/>
<path opacity="0.8" d="M196.5 35.1876V132.534L184.787 144.247H116.979V35.1876H196.5Z" fill="white"/>
<path opacity="0.2" d="M184.787 144.247V132.878H196.5L185.016 144.362" fill="black"/>
<path opacity="0.1" d="M147.071 44.6332H125.139C124.498 44.6332 123.976 44.1116 123.976 43.4707C123.976 42.8298 124.498 42.3083 125.139 42.3083H147.071C147.711 42.3083 148.233 42.8298 148.233 43.4707C148.233 44.1116 147.716 44.6332 147.071 44.6332Z" fill="black"/>
<path opacity="0.1" d="M186.85 54.0743H133.978C133.337 54.0743 132.816 53.5528 132.816 52.9119C132.816 52.271 133.337 51.7494 133.978 51.7494H186.85C187.491 51.7494 188.013 52.271 188.013 52.9119C188.013 53.5528 187.496 54.0743 186.85 54.0743Z" fill="black"/>
<path opacity="0.1" d="M186.851 58.6579H125.139C124.498 58.6579 123.976 58.1363 123.976 57.4954C123.976 56.8545 124.498 56.333 125.139 56.333H186.851C187.491 56.333 188.013 56.8545 188.013 57.4954C188.013 58.1363 187.496 58.6579 186.851 58.6579Z" fill="black"/>
<path opacity="0.1" d="M186.851 63.8382H125.139C124.498 63.8382 123.976 63.3166 123.976 62.6757C123.976 62.0348 124.498 61.5132 125.139 61.5132H186.851C187.491 61.5132 188.013 62.0348 188.013 62.6757C188.013 63.3166 187.496 63.8382 186.851 63.8382Z" fill="black"/>
<path opacity="0.1" d="M186.851 69.0139H125.139C124.498 69.0139 123.976 68.4923 123.976 67.8514C123.976 67.2105 124.498 66.689 125.139 66.689H186.851C187.491 66.689 188.013 67.2105 188.013 67.8514C188.013 68.4923 187.496 69.0139 186.851 69.0139Z" fill="black"/>
<path opacity="0.1" d="M186.851 74.1942H125.139C124.498 74.1942 123.976 73.6726 123.976 73.0317C123.976 72.3908 124.498 71.8692 125.139 71.8692H186.851C187.491 71.8692 188.013 72.3908 188.013 73.0317C188.013 73.6726 187.496 74.1942 186.851 74.1942Z" fill="black"/>
<path opacity="0.1" d="M186.851 79.3744H125.139C124.498 79.3744 123.976 78.8529 123.976 78.212C123.976 77.5711 124.498 77.0495 125.139 77.0495H186.851C187.491 77.0495 188.013 77.5711 188.013 78.212C188.013 78.8529 187.496 79.3744 186.851 79.3744Z" fill="black"/>
<path opacity="0.1" d="M186.851 84.5547H125.139C124.498 84.5547 123.976 84.0331 123.976 83.3922C123.976 82.7513 124.498 82.2298 125.139 82.2298H186.851C187.491 82.2298 188.013 82.7513 188.013 83.3922C188.013 84.0331 187.496 84.5547 186.851 84.5547Z" fill="black"/>
<path opacity="0.1" d="M186.851 89.7304H125.139C124.498 89.7304 123.976 89.2089 123.976 88.568C123.976 87.927 124.498 87.4055 125.139 87.4055H186.851C187.491 87.4055 188.013 87.927 188.013 88.568C188.013 89.2089 187.496 89.7304 186.851 89.7304Z" fill="black"/>
<path opacity="0.1" d="M186.851 94.9107H125.139C124.498 94.9107 123.976 94.3891 123.976 93.7482C123.976 93.1073 124.498 92.5858 125.139 92.5858H186.851C187.491 92.5858 188.013 93.1073 188.013 93.7482C188.013 94.3891 187.496 94.9107 186.851 94.9107Z" fill="black"/>
<path opacity="0.1" d="M186.851 100.091H125.139C124.498 100.091 123.976 99.5694 123.976 98.9285C123.976 98.2876 124.498 97.7661 125.139 97.7661H186.851C187.491 97.7661 188.013 98.2876 188.013 98.9285C188.013 99.5694 187.496 100.091 186.851 100.091Z" fill="black"/>
<path opacity="0.1" d="M186.851 105.271H125.139C124.498 105.271 123.976 104.75 123.976 104.109C123.976 103.468 124.498 102.946 125.139 102.946H186.851C187.491 102.946 188.013 103.468 188.013 104.109C188.013 104.75 187.496 105.271 186.851 105.271Z" fill="black"/>
<path opacity="0.1" d="M151.491 110.447H125.139C124.498 110.447 123.976 109.925 123.976 109.285C123.976 108.644 124.498 108.122 125.139 108.122H151.491C152.131 108.122 152.653 108.644 152.653 109.285C152.653 109.925 152.136 110.447 151.491 110.447Z" fill="black"/>
<path d="M182.081 59.0423C182.055 59.0202 182.028 58.9981 181.997 58.9716C181.763 58.786 181.622 58.8479 181.511 58.5031C181.432 58.2467 181.52 57.9683 181.423 57.7031C181.25 57.2567 180.936 56.8235 180.702 56.4036C180.34 55.7494 179.977 55.0997 179.61 54.4455C179.107 53.5439 177.962 53.2168 177.06 53.7207L167.049 59.2987C167.009 59.6346 166.731 59.8645 166.678 60.2004C166.647 60.3904 166.695 60.6026 166.841 60.7219C166.717 60.7308 166.633 60.6689 166.532 60.6114C165.935 60.2799 165.776 60.0147 165.162 60.3507C164.896 60.4921 164.636 60.6424 164.375 60.7882C163.491 61.2833 162.602 61.7739 161.718 62.2689C158.947 63.8115 156.18 65.3541 153.409 66.8967C150.16 68.7045 146.916 70.5122 143.667 72.3244C140.966 73.8272 138.266 75.3345 135.57 76.8373C134.465 77.4516 133.121 77.9909 132.14 78.7732C132.414 78.9191 132.458 79.1312 132.219 79.3434C132.065 79.476 131.914 79.613 131.76 79.75C131.755 79.8561 131.923 79.8561 132.02 79.8163C132.202 79.7368 132.387 79.6572 132.568 79.5821C132.188 80.0639 131.729 80.4838 131.216 80.8153C130.372 81.3589 129.395 81.6595 128.436 81.9556C128.59 81.7611 128.75 81.5622 128.904 81.3678C128.944 81.3191 128.984 81.2573 128.957 81.1998C128.935 81.1512 128.869 81.1379 128.811 81.1335C128.582 81.1114 128.347 81.1335 128.171 80.9611C126.659 81.8672 125.081 82.6849 123.543 83.5424C122.641 84.0463 122.314 85.1911 122.818 86.0927L132.909 104.21C133.413 105.112 134.557 105.439 135.459 104.935L138.177 103.424C138.182 103.11 138.425 102.761 138.239 102.469C138.217 102.433 138.186 102.394 138.186 102.35C138.186 102.292 138.239 102.248 138.288 102.217C138.558 102.045 138.876 101.943 139.194 101.925C139.305 101.921 139.45 101.969 139.433 102.075C139.45 101.983 140.003 101.775 140.1 101.744C140.144 101.983 139.981 102.239 140.259 102.288C140.485 102.327 140.962 101.863 141.161 101.753C142.045 101.258 142.933 100.767 143.817 100.272C146.611 98.7163 149.409 97.156 152.202 95.6002C155.274 93.8896 158.341 92.1791 161.413 90.4685C163.451 89.3326 165.489 88.2011 167.522 87.0651C167.747 86.9414 168.004 86.7911 168.22 86.6806C168.313 86.3447 168.485 85.8187 168.786 85.611C169.223 85.306 169.926 85.6419 170.298 85.2087C170.368 85.1248 170.412 85.0231 170.474 84.9347C170.58 84.7844 170.744 84.6828 170.899 84.5855C171.014 84.5148 171.133 84.4397 171.266 84.4397C171.398 84.4397 171.54 84.5502 171.522 84.6828C172.432 84.4706 173.255 83.8606 174.059 83.401C174.346 83.2374 176.91 82.0352 176.897 81.8451C176.861 81.2573 177.224 80.7534 177.206 80.1478C177.202 80.0329 176.981 79.2683 177.082 79.2064C174.784 80.5766 172.393 81.823 170.054 83.1269C169.975 83.1711 169.674 83.2772 169.63 83.3612C169.621 83.3833 169.608 83.4054 169.599 83.4231C169.577 83.4717 169.555 83.5203 169.533 83.5689C169.528 83.5822 169.524 83.5954 169.515 83.6043C169.405 83.8827 169.321 84.2142 169.179 84.4794C169.157 84.5192 168.68 85.138 168.64 84.9922C168.446 84.2805 168.176 84.17 167.654 84.4618C167.394 84.6076 167.137 84.7491 166.876 84.8949C166.054 85.3546 165.228 85.8143 164.406 86.274C161.63 87.821 158.859 89.3635 156.083 90.9105C152.812 92.7316 149.546 94.5526 146.275 96.3737C143.552 97.8897 140.825 99.4102 138.102 100.926C136.962 101.563 135.822 102.199 134.681 102.831C133.992 101.594 133.302 100.361 132.617 99.1229C132.175 98.3273 131.733 97.5361 131.291 96.7405C131.132 96.4532 130.977 96.0466 130.712 95.8521C130.522 95.7107 130.199 95.746 130.027 95.6178C129.616 95.3084 129.32 94.7294 128.931 94.367C128.666 94.1239 128.263 93.3813 128.374 92.9703C128.506 93.0233 128.639 93.0763 128.772 93.1205C128.705 92.8288 128.71 92.5857 128.816 92.294C127.481 90.0663 126.266 87.7281 124.997 85.4474C124.993 85.4386 124.913 85.3016 124.913 85.3016C125.947 84.727 126.977 84.1524 128.011 83.5778C128.763 83.1579 129.519 82.738 130.27 82.3181C130.672 82.0926 131.225 81.8937 131.578 81.5888C131.866 81.3412 132.153 81.0318 132.48 80.7622C132.679 80.5987 132.909 80.4882 133.139 80.3733C133.417 80.2362 133.696 80.1036 133.974 79.9666C134.018 79.9445 134.067 79.9224 134.115 79.9224C134.168 79.9224 134.213 79.9445 134.266 79.9578C134.712 80.0506 135.804 79.2329 136.202 79.0119C137.059 78.5345 137.917 78.0572 138.774 77.5798C141.36 76.1389 143.95 74.698 146.536 73.2571C149.758 71.4625 152.984 69.6636 156.207 67.8691C159.433 66.0701 162.66 64.2756 165.886 62.4767C168.481 61.0313 171.08 59.586 173.674 58.1362C175.005 57.3937 176.34 56.6511 177.67 55.9086C177.732 55.8732 177.794 55.8423 177.856 55.8069C177.856 55.8069 182.121 63.4668 182.156 63.5286C182.404 63.9706 182.89 64.5718 183.372 64.7309C183.544 64.7883 183.743 64.9121 183.726 65.0933C183.703 65.2878 183.438 65.4248 183.5 65.6105C183.571 65.8226 183.902 65.7298 183.982 65.8978C184.088 66.1099 183.845 66.3309 183.871 66.5696C183.898 66.8039 184.159 67.1265 184.274 67.3298C184.689 68.0812 185.109 68.8282 185.524 69.5796C186.223 70.8305 186.917 72.0813 187.62 73.341L179.973 77.6019C180.008 77.6329 180.044 77.6682 180.066 77.7124C180.083 77.7434 180.092 77.7787 180.106 77.8141C180.265 77.8583 180.424 77.9423 180.57 78.0086C180.693 78.066 180.764 78.2296 180.764 78.3577C180.76 78.4948 180.685 78.6274 180.561 78.6937L180.092 78.9544C180.053 79.1622 179.907 79.3301 179.69 79.3743C179.637 79.3832 179.58 79.3876 179.527 79.3876C179.434 79.4539 179.323 79.4804 179.199 79.4495C179.001 79.4009 178.859 79.1578 178.93 78.9633C178.948 78.9147 178.974 78.8749 179.001 78.8351C178.934 78.7069 178.939 78.5478 179.027 78.424C178.978 78.4196 178.934 78.4152 178.886 78.4064C178.81 78.3887 178.735 78.3622 178.66 78.3401C178.178 78.6053 178.046 78.9102 177.767 79.3876C177.754 79.4141 177.736 79.4406 177.745 79.4672C177.759 79.529 177.842 79.5335 177.9 79.56C178.028 79.6219 178.002 79.8163 177.935 79.9489C177.869 80.0771 177.789 80.2407 177.878 80.3556C177.909 80.3954 177.957 80.4219 177.988 80.4617C178.174 80.6738 177.887 81.3015 178.346 81.0451C178.311 80.9169 178.342 80.7578 178.408 80.6429C178.479 80.5191 178.607 80.4307 178.744 80.3909C179.085 80.3025 179.438 80.2628 179.792 80.2362L188.999 75.109C189.9 74.6052 190.227 73.4604 189.723 72.5587C189.706 72.5278 189.688 72.4968 189.67 72.4659C188.283 69.973 186.895 67.4845 185.507 64.9917C184.707 63.5507 183.902 62.1142 183.102 60.6733C182.872 60.2578 182.651 59.8335 182.408 59.4269C182.285 59.2678 182.209 59.1617 182.081 59.0423Z" fill="#407BFF"/>
<path d="M139.521 83.4628C139.216 83.0915 139.309 83.0827 139.247 82.6849C139.247 82.676 139.243 82.6672 139.243 82.6584C139.23 82.6451 139.221 82.6318 139.208 82.623C139.185 82.6053 139.172 82.5788 139.15 82.5611C138.942 82.6539 138.735 82.7556 138.527 82.8705L134.456 85.138L136.096 88.0773C135.866 87.6662 136.679 87.79 136.71 87.7856C136.799 87.7723 136.887 87.7325 136.98 87.7414C137.068 87.7546 137.143 87.8121 137.196 87.8828C137.404 88.1524 137.373 88.5281 137.338 88.864C137.289 89.3237 137.524 89.7657 137.267 90.1856C137.484 90.5392 139.446 94.1017 139.451 94.0973L143.521 91.8299C143.756 91.6973 144.313 91.4674 144.45 91.2287C144.547 91.0564 144.37 90.632 144.613 90.5171C144.777 90.442 145.046 90.4773 145.17 90.5702C146.797 88.9657 147.062 86.5656 145.961 84.5943C144.817 82.539 142.218 81.3191 139.941 82.2694C139.782 82.3357 139.994 83.0473 139.614 83.1269C139.685 82.981 139.791 82.8617 139.924 82.7644L139.521 83.4628ZM142.474 90.1812L140.578 91.2376C140.423 90.9591 140.273 90.6807 140.114 90.411C140.313 90.7514 139.764 90.6453 139.65 90.5657C139.371 90.3801 139.296 89.8453 139.287 89.5447C139.269 88.9392 139.128 88.6386 138.827 88.095C138.381 87.2905 137.93 86.4861 137.484 85.6816L139.38 84.6253C141.161 83.6352 142.916 84.0462 143.871 85.7612C144.825 87.4806 144.255 89.1911 142.474 90.1812Z" fill="#407BFF"/>
<path d="M152.98 75.9356C153.069 76.1566 153.108 76.3731 153.06 76.6074C153.033 76.7312 152.839 77.0582 152.865 77.1245C152.936 77.3013 153.002 77.4781 153.073 77.6549C153.086 77.6815 153.095 77.7124 153.117 77.7345C153.148 77.761 153.192 77.7699 153.232 77.7699C153.935 77.8273 153.904 77.9025 153.948 78.4947C153.988 79.003 154.426 79.2948 154.673 79.7368C155.623 81.4385 155.066 83.2728 153.466 84.1656C152.551 84.6783 151.553 84.7314 150.686 84.3645C150.669 84.3822 150.651 84.3999 150.633 84.4131C150.545 84.4617 150.43 84.475 150.333 84.4485C149.873 84.3115 149.493 83.9402 149.4 83.4628C149.391 83.4275 149.396 83.3921 149.4 83.3567C149.281 83.202 149.17 83.0429 149.068 82.8617C148.118 81.16 148.675 79.3213 150.275 78.4329C150.867 78.1014 151.495 77.9732 152.101 78.0174C152.087 77.9997 152.074 77.982 152.061 77.9643C151.681 77.4605 153.055 77.2571 152.432 76.9212C152.171 76.7798 152.216 76.1389 152.149 75.8737C151.203 75.8869 150.227 76.1433 149.285 76.6649C146.456 78.2428 145.479 81.3677 146.965 84.033C147.597 85.1689 148.622 86.0618 149.864 86.4728C150.125 86.5612 150.505 86.7115 150.783 86.685C151.146 86.6541 150.969 86.7071 151.119 86.4684C151.256 86.2518 151.181 86.159 151.415 85.9292C151.645 85.7038 151.924 85.5579 151.977 85.2087C151.964 85.3678 152.154 85.4828 152.154 85.6375C152.154 85.6861 152.136 85.7303 152.14 85.7789C152.145 85.8364 152.18 85.885 152.216 85.9336C152.366 86.1369 152.618 86.3579 152.622 86.6099C153.245 86.5347 153.9 86.2474 154.452 85.938C157.268 84.3689 158.266 81.2484 156.773 78.5699C156.03 77.2306 154.571 76.024 152.98 75.9356Z" fill="#407BFF"/>
<path d="M162.019 69.7829L165.052 75.2239L157.564 72.2625L155.849 73.2172C157.007 75.2946 158.236 77.3544 159.328 79.4671C159.403 79.2417 159.58 79.1931 159.792 79.1666C160.19 79.1091 160.176 79.308 160.393 79.7058C160.419 79.75 160.45 79.7986 160.499 79.8119C160.579 79.8251 160.645 79.7367 160.724 79.75C160.804 79.7588 160.835 79.8605 160.817 79.9356C160.795 80.0108 160.742 80.0727 160.702 80.139C160.574 80.3821 160.786 80.5412 160.76 80.7578C160.746 80.8771 160.375 81.3412 160.419 81.4208L160.844 82.1854L162.89 81.0451L162.342 80.0638C162.311 80.0682 162.276 80.0727 162.245 80.0771C161.648 80.1522 161.909 79.3743 161.781 79.0516C161.6 78.6008 161.286 78.1676 161.051 77.7433C160.654 77.0317 160.256 76.3201 159.862 75.604L165.953 77.9997C165.966 77.8229 165.927 77.6372 166.015 77.4781C166.064 77.3897 166.444 77.2129 166.439 77.1245C166.462 77.4074 166.599 77.677 166.811 77.8627C167.049 78.0704 167.049 78.0395 167.001 78.4063L167.368 78.5522L169.069 77.6019L164.075 68.6381L162.019 69.7829Z" fill="#407BFF"/>
<path d="M172.322 73.6062L171.168 71.5332L175.328 69.2171L174.43 67.6038L170.271 69.9199L169.188 67.9751L171.999 66.406C172.11 66.2557 172.264 66.1364 172.428 66.0391C172.516 65.9861 172.618 65.9817 172.706 66.0082L173.895 65.3452C173.895 65.3452 173.056 63.838 172.972 63.6833C172.565 63.8689 172.972 64.3816 172.561 64.6292C172.645 64.7176 172.768 65.0358 172.547 65.0535C172.428 65.0623 172.344 64.9032 172.225 64.9164C172.158 64.9253 172.101 64.9828 172.035 64.9695C171.999 64.9607 171.973 64.9297 171.951 64.8944C171.871 64.7706 171.84 64.6159 171.734 64.5142C171.456 64.2446 168.914 65.9375 168.56 66.1364C167.774 66.574 166.983 67.016 166.196 67.4535L171.19 76.4173L173.184 75.3079C173.197 75.2902 173.21 75.2725 173.224 75.2548C173.365 75.0692 173.511 74.8791 173.666 74.7067C173.785 74.5741 173.993 74.5697 174.143 74.6493C174.178 74.667 174.205 74.6935 174.231 74.7244L178.125 72.5542L177.197 70.8879L172.322 73.6062Z" fill="#407BFF"/>
<path d="M177.64 168.937C177.64 168.937 174.732 162.594 178.055 156.344C181.375 150.09 182.338 148.618 180.221 147.341C178.104 146.059 177.132 152.344 177.132 152.344C177.132 152.344 175.346 148.021 176.822 143.5C178.294 138.978 179.218 131.61 177.207 130.819C175.196 130.028 176.822 140.008 175.076 143.411C175.076 143.411 173.609 139.623 173.37 135.99C173.127 132.357 173.507 126.558 171.916 125.068C170.325 123.579 169.308 124.609 170.868 132.627C172.429 140.644 172.42 147.16 172.42 147.16C172.42 147.16 168.972 136.644 166.656 136.335C164.34 136.03 164.345 139.433 166.325 142.39C168.305 145.343 172.128 150.638 172.756 153.361C172.756 153.361 168.968 145.445 165.564 147.871C162.157 150.298 168.53 155.076 171.368 156.804C174.206 158.532 176.177 169.361 176.177 169.361L177.64 168.937Z" fill="#407BFF"/>
<path opacity="0.2" d="M177.64 168.937C177.64 168.937 174.732 162.594 178.055 156.344C181.375 150.09 182.338 148.618 180.221 147.341C178.104 146.059 177.132 152.344 177.132 152.344C177.132 152.344 175.346 148.021 176.822 143.5C178.294 138.978 179.218 131.61 177.207 130.819C175.196 130.028 176.822 140.008 175.076 143.411C175.076 143.411 173.609 139.623 173.37 135.99C173.127 132.357 173.507 126.558 171.916 125.068C170.325 123.579 169.308 124.609 170.868 132.627C172.429 140.644 172.42 147.16 172.42 147.16C172.42 147.16 168.972 136.644 166.656 136.335C164.34 136.03 164.345 139.433 166.325 142.39C168.305 145.343 172.128 150.638 172.756 153.361C172.756 153.361 168.968 145.445 165.564 147.871C162.157 150.298 168.53 155.076 171.368 156.804C174.206 158.532 176.177 169.361 176.177 169.361L177.64 168.937Z" fill="black"/>
<path d="M175.341 171.54C175.341 171.54 178.17 165.153 174.775 158.952C171.381 152.751 170.4 151.292 172.499 149.979C174.599 148.667 175.646 154.934 175.646 154.934C175.646 154.934 177.379 150.585 175.849 146.085C174.32 141.586 173.308 134.231 175.31 133.413C177.312 132.591 175.805 142.598 177.591 145.975C177.591 145.975 179.014 142.165 179.209 138.532C179.408 134.894 178.961 129.099 180.53 127.588C182.099 126.076 183.134 127.088 181.666 135.128C180.199 143.168 180.291 149.683 180.291 149.683C180.291 149.683 183.615 139.115 185.927 138.775C188.239 138.434 188.274 141.838 186.329 144.821C184.384 147.805 180.627 153.153 180.031 155.885C180.031 155.885 183.721 147.915 187.156 150.289C190.59 152.662 184.278 157.538 181.458 159.31C178.638 161.078 176.8 171.938 176.8 171.938L175.341 171.54Z" fill="#407BFF"/>
<path d="M188.398 166.988H165.016L166.908 183.722H186.506L188.398 166.988Z" fill="#263238"/>
<path d="M68.7884 61.7695H53.3537C52.1161 61.7695 51.1128 62.7728 51.1128 64.0104V79.0119C51.1128 80.2495 52.1161 81.2484 53.3537 81.2484H58.2909L54.967 85.7701L60.7175 81.2484H68.7884C70.026 81.2484 71.0293 80.2451 71.0293 79.0119V64.0104C71.0293 62.7728 70.026 61.7695 68.7884 61.7695Z" fill="#407BFF"/>
<path opacity="0.6" d="M68.7884 61.7695H53.3537C52.1161 61.7695 51.1128 62.7728 51.1128 64.0104V79.0119C51.1128 80.2495 52.1161 81.2484 53.3537 81.2484H58.2909L54.967 85.7701L60.7175 81.2484H68.7884C70.026 81.2484 71.0293 80.2451 71.0293 79.0119V64.0104C71.0293 62.7728 70.026 61.7695 68.7884 61.7695Z" fill="white"/>
<path d="M61.0755 78.5169C64.9447 78.5169 68.0812 75.3804 68.0812 71.5112C68.0812 67.6421 64.9447 64.5056 61.0755 64.5056C57.2064 64.5056 54.0698 67.6421 54.0698 71.5112C54.0698 75.3804 57.2064 78.5169 61.0755 78.5169Z" fill="#407BFF"/>
<path opacity="0.2" d="M66.9191 72.8961C67.6815 69.6675 65.6822 66.4323 62.4537 65.6699C59.2251 64.9076 55.9899 66.9068 55.2275 70.1354C54.4652 73.3639 56.4644 76.5992 59.693 77.3615C62.9215 78.1239 66.1568 76.1246 66.9191 72.8961Z" fill="black"/>
<path d="M60.3283 74.3797C60.1691 74.3797 60.0144 74.3178 59.8995 74.2029L57.3492 71.7056C57.1061 71.4669 57.1017 71.0824 57.3403 70.8393C57.579 70.5962 57.9636 70.5918 58.2067 70.8304L60.2973 72.8769L63.9129 68.8414C64.1383 68.5895 64.5273 68.5674 64.7792 68.7928C65.0311 69.0182 65.0532 69.4072 64.8278 69.6591L60.7879 74.172C60.6774 74.2957 60.5183 74.3709 60.3504 74.3753C60.3415 74.3797 60.3327 74.3797 60.3283 74.3797Z" fill="white"/>
<path d="M41.0617 173.671L53.7957 172.42V158.059H58.8434V172.415L71.6304 173.671C72.899 173.794 73.867 174.864 73.867 176.137V178.051H56.8146H55.8776H38.8252V176.137C38.8252 174.86 39.7932 173.794 41.0617 173.671Z" fill="#263238"/>
<path opacity="0.1" d="M41.0617 173.671L53.7957 172.42V158.059H58.8434V172.415L71.6304 173.671C72.899 173.794 73.867 174.864 73.867 176.137V178.051H56.8146H55.8776H38.8252V176.137C38.8252 174.86 39.7932 173.794 41.0617 173.671Z" fill="white"/>
<path d="M72.519 183.722C74.3425 183.722 75.8207 182.244 75.8207 180.42C75.8207 178.597 74.3425 177.118 72.519 177.118C70.6955 177.118 69.2173 178.597 69.2173 180.42C69.2173 182.244 70.6955 183.722 72.519 183.722Z" fill="#263238"/>
<path d="M40.1733 183.722C41.9968 183.722 43.4751 182.244 43.4751 180.42C43.4751 178.597 41.9968 177.118 40.1733 177.118C38.3498 177.118 36.8716 178.597 36.8716 180.42C36.8716 182.244 38.3498 183.722 40.1733 183.722Z" fill="#263238"/>
<path d="M54.7551 161.905H57.8889C58.8967 161.905 59.7144 161.087 59.7144 160.079V145.966H52.9297V160.079C52.9297 161.082 53.7474 161.905 54.7551 161.905Z" fill="#263238"/>
<path opacity="0.2" d="M54.7551 161.905H57.8889C58.8967 161.905 59.7144 161.087 59.7144 160.079V145.966H52.9297V160.079C52.9297 161.082 53.7474 161.905 54.7551 161.905Z" fill="white"/>
<path d="M38.6925 118.288C38.6925 118.288 42.476 141.895 49.937 145.962H42.3522C42.3522 145.962 34.8603 137.917 32.5752 118.288H38.6925Z" fill="#263238"/>
<path opacity="0.1" d="M38.6925 118.288C38.6925 118.288 42.476 141.895 49.937 145.962H42.3522C42.3522 145.962 34.8603 137.917 32.5752 118.288H38.6925Z" fill="white"/>
<path d="M71.5552 142.625H41.9766C40.7567 142.625 39.7666 143.615 39.7666 144.835V147.792H73.7652V144.835C73.7652 143.615 72.7752 142.625 71.5552 142.625Z" fill="#407BFF"/>
<path d="M74.2955 145.206H39.2361C38.7455 145.206 38.3477 145.604 38.3477 146.094V146.899C38.3477 147.389 38.7455 147.787 39.2361 147.787H74.2911C74.7817 147.787 75.1795 147.389 75.1795 146.899V146.094C75.1839 145.604 74.7861 145.206 74.2955 145.206Z" fill="#263238"/>
<path opacity="0.6" d="M74.2955 145.206H39.2361C38.7455 145.206 38.3477 145.604 38.3477 146.094V146.899C38.3477 147.389 38.7455 147.787 39.2361 147.787H74.2911C74.7817 147.787 75.1795 147.389 75.1795 146.899V146.094C75.1839 145.604 74.7861 145.206 74.2955 145.206Z" fill="white"/>
<path d="M31.678 123.088H43.8286C47.3867 123.088 49.7028 120.233 48.9956 116.71L48.0497 112.007C47.3425 108.485 43.8817 105.629 40.3235 105.629H28.173C24.6149 105.629 22.2988 108.485 23.006 112.007L23.9519 116.71C24.6591 120.233 28.1155 123.088 31.678 123.088Z" fill="#407BFF"/>
<path d="M96.1523 162.607L93.3677 163.699L91.3611 159.925L89.5444 156.49L92.6296 154.643L94.4948 158.855L96.1523 162.607Z" fill="#E4897B"/>
<path opacity="0.2" d="M94.4948 158.855L91.3611 159.925L89.5444 156.49L92.6296 154.643L94.4948 158.855Z" fill="black"/>
<path d="M93.9158 156.795L90.1279 158.828C90.1279 158.828 75.8115 133.656 73.6103 133.864C71.4092 134.072 50.5247 147.385 44.1555 142.47C37.7862 137.559 43.9831 122.757 43.9831 122.757C43.9831 122.757 57.1591 118.991 58.5868 121.886C58.8652 122.447 59.2365 123.566 59.5326 124.529C59.8155 125.435 60.0277 126.2 60.0277 126.2C60.0277 126.2 60.0321 126.2 60.0365 126.195C60.4387 126.032 73.4512 120.697 79.2591 123.557C85.1554 126.47 93.9158 156.795 93.9158 156.795Z" fill="#263238"/>
<path opacity="0.3" d="M93.9158 156.795L90.1279 158.828C90.1279 158.828 75.8115 133.656 73.6103 133.864C71.4092 134.072 50.5247 147.385 44.1555 142.47C37.7862 137.559 43.9831 122.757 43.9831 122.757C43.9831 122.757 57.1591 118.991 58.5868 121.886C58.8652 122.447 59.2365 123.566 59.5326 124.529C59.8155 125.435 60.0277 126.2 60.0277 126.2C60.0277 126.2 60.0321 126.2 60.0365 126.195C60.4387 126.032 73.4512 120.697 79.2591 123.557C85.1554 126.47 93.9158 156.795 93.9158 156.795Z" fill="white"/>
<path d="M73.3361 177.322L70.3659 176.981L70.3482 172.791L70.3438 168.946L73.9372 168.778L73.619 173.299L73.3361 177.322Z" fill="#E4897B"/>
<path opacity="0.2" d="M73.6102 173.392L70.3394 172.871V168.985L73.9328 168.795L73.6102 173.392Z" fill="black"/>
<path d="M88.2759 157.578L93.8186 154.802L94.3976 157.153L90.1986 159.319L88.2759 157.578Z" fill="#407BFF"/>
<path d="M53.9941 142.51C53.9941 142.51 54.9091 142.408 68.9116 139.814C68.9116 139.814 69.2255 157.728 69.8929 171.076L74.2068 171.213C74.2068 171.213 80.3948 141.582 79.6699 137.104C78.945 132.631 73.6189 132.025 73.6189 132.025C73.6189 132.025 64.3723 139.212 53.9941 142.51Z" fill="#263238"/>
<path opacity="0.4" d="M53.9941 142.51C53.9941 142.51 54.9091 142.408 68.9116 139.814C68.9116 139.814 69.2255 157.728 69.8929 171.076L74.2068 171.213C74.2068 171.213 80.3948 141.582 79.6699 137.104C78.945 132.631 73.6189 132.025 73.6189 132.025C73.6189 132.025 64.3723 139.212 53.9941 142.51Z" fill="white"/>
<path opacity="0.3" d="M53.9941 142.51C53.9941 142.51 54.9091 142.408 68.9116 139.814C68.9116 139.814 69.2255 157.728 69.8929 171.076L74.2068 171.213C74.2068 171.213 80.3948 141.582 79.6699 137.104C78.945 132.631 73.6189 132.025 73.6189 132.025C73.6189 132.025 64.3723 139.212 53.9941 142.51Z" fill="black"/>
<path d="M69.1021 169.883L74.9851 169.746L74.1806 172.168L69.407 172.212L69.1021 169.883Z" fill="#407BFF"/>
<path opacity="0.3" d="M60.0235 126.204L52.3901 128.923C52.3901 128.923 56.4035 125.926 59.5329 124.534C59.8113 125.44 60.0235 126.204 60.0235 126.204Z" fill="black"/>
<path d="M43.0991 121.846L43.382 123.964L57.6895 120.927L57.358 118.425L43.0991 121.846Z" fill="#263238"/>
<path opacity="0.2" d="M43.0991 121.846L43.382 123.964L57.6895 120.927L57.358 118.425L43.0991 121.846Z" fill="black"/>
<path d="M47.8362 120.304L47.1235 120.436L47.7967 124.065L48.5094 123.933L47.8362 120.304Z" fill="#263238"/>
<path d="M54.0826 119.38L50.9609 120.084L51.4945 122.451L54.6162 121.748L54.0826 119.38Z" fill="white"/>
<path d="M56.5394 118.157L55.8267 118.289L56.4995 121.918L57.2122 121.786L56.5394 118.157Z" fill="#263238"/>
<path opacity="0.3" d="M47.8362 120.304L47.1235 120.436L47.7967 124.065L48.5094 123.933L47.8362 120.304Z" fill="white"/>
<path opacity="0.3" d="M56.5394 118.157L55.8267 118.289L56.4995 121.918L57.2122 121.786L56.5394 118.157Z" fill="white"/>
<path d="M101.686 167.549C101.222 167.408 100.731 167.355 100.25 167.386C100.25 167.386 98.4507 166.634 96.2804 163.058L94.424 163.301C93.7831 163.399 93.2704 163.88 93.1422 164.517C93.1246 164.605 93.1157 164.694 93.1246 164.782C93.2041 165.229 93.3146 165.666 93.4516 166.099C93.8097 167.461 95.1357 170.312 95.1357 170.312L95.4406 170.188L94.4903 167.5C94.1721 166.585 95.2815 167.359 95.8738 168.243C96.4617 169.127 97.297 169.984 99.2772 169.237C101.58 168.349 102.495 167.872 101.686 167.549Z" fill="#263238"/>
<path d="M95.8072 162.108C95.8072 162.108 98.7862 166.634 100.249 167.386C100.249 167.386 98.6094 168.698 96.4215 166.581C93.5927 163.845 93.1242 164.782 93.1242 164.782C93.1242 164.782 93.08 163.717 93.1994 163.178C93.4248 162.139 95.8072 162.108 95.8072 162.108Z" fill="#E4897B"/>
<path d="M77.7783 182.59C77.3584 182.343 76.8988 182.175 76.4214 182.091C76.4214 182.091 74.8523 180.937 73.5926 176.946L71.7318 176.743C71.0865 176.685 70.4721 177.034 70.1981 177.618C70.1583 177.697 70.1318 177.781 70.1185 177.87C70.092 178.321 70.092 178.776 70.1229 179.227C70.145 180.637 70.7594 183.717 70.7594 183.717L71.0821 183.669L70.7947 180.831C70.7019 179.868 71.5992 180.88 71.9616 181.879C72.3241 182.878 72.9296 183.907 75.0335 183.651C77.4866 183.346 78.4855 183.099 77.7783 182.59Z" fill="#263238"/>
<path d="M73.358 175.912C73.358 175.912 75.1791 181.012 76.4211 182.091C76.4211 182.091 74.5161 182.975 72.8939 180.402C70.7944 177.074 70.1182 177.874 70.1182 177.874C70.1182 177.874 70.3303 176.831 70.569 176.336C71.0331 175.377 73.358 175.912 73.358 175.912Z" fill="#E4897B"/>
<path d="M39.9831 85.7482L36.257 86.4996C36.257 86.4996 35.709 86.9548 35.1874 86.7559C34.0736 86.336 32.4691 85.0189 32.2658 84.5636C31.9652 83.8962 32.2702 81.9381 33.0525 81.5889C33.8349 81.2398 36.5488 84.5061 36.5488 84.5061L40.5665 83.6L39.9831 85.7482Z" fill="#E4897B"/>
<path d="M51.7756 98.1772C51.7756 98.1772 51.4352 86.0664 50.0341 85.5449C48.6329 85.0233 38.1089 86.4731 38.1089 86.4731L37.8481 83.7062C37.8481 83.7062 50.1092 81.8232 52.4828 82.9371C54.8563 84.0509 55.6386 102.115 55.2055 105.594L51.7756 98.1772Z" fill="#407BFF"/>
<path opacity="0.6" d="M51.7756 98.1772C51.7756 98.1772 51.4352 86.0664 50.0341 85.5449C48.6329 85.0233 38.1089 86.4731 38.1089 86.4731L37.8481 83.7062C37.8481 83.7062 50.1092 81.8232 52.4828 82.9371C54.8563 84.0509 55.6386 102.115 55.2055 105.594L51.7756 98.1772Z" fill="white"/>
<path d="M38.2816 86.7382L37.5479 83.6973L38.5998 83.3172L39.2672 86.831L38.2816 86.7382Z" fill="#407BFF"/>
<path opacity="0.7" d="M38.2816 86.7382L37.5479 83.6973L38.5998 83.3172L39.2672 86.831L38.2816 86.7382Z" fill="white"/>
<path d="M51.7184 96.6654C51.7184 96.6654 50.7813 100.352 46.2464 101.532C41.7115 102.712 36.6992 99.6357 36.6992 99.6357L37.6981 108.431L43.2541 122.288L57.4423 118.589C57.4334 118.584 56.5804 102.464 51.7184 96.6654Z" fill="#407BFF"/>
<path opacity="0.7" d="M51.7184 96.6654C51.7184 96.6654 50.7813 100.352 46.2464 101.532C41.7115 102.712 36.6992 99.6357 36.6992 99.6357L37.6981 108.431L43.2541 122.288L57.4423 118.589C57.4334 118.584 56.5804 102.464 51.7184 96.6654Z" fill="white"/>
<path opacity="0.6" d="M54.18 111.278L55.842 110.752C56.0276 110.694 56.1293 110.496 56.0718 110.314L55.0817 107.181C55.0243 106.995 54.8253 106.893 54.6441 106.951L52.9822 107.477C52.7966 107.534 52.6949 107.733 52.7524 107.914L53.7424 111.048C53.7999 111.234 53.9988 111.335 54.18 111.278Z" fill="#407BFF"/>
<path opacity="0.2" d="M53.8449 110.317L55.7334 109.722L54.9184 107.138L53.0299 107.733L53.8449 110.317Z" fill="black"/>
<path d="M53.7708 106.221L53.3535 106.353L53.8335 107.875L54.2508 107.743L53.7708 106.221Z" fill="#263238"/>
<path d="M42.0693 82.8972C38.5731 82.8972 36.2659 86.6011 37.0836 92.4753C37.9013 98.3539 41.1809 100.042 41.1809 100.042L40.9687 98.6279C40.9687 98.6279 46.149 99.9672 52.0629 99.2467C52.0629 99.2467 50.3745 94.4555 50.9226 89.5625C50.9181 89.5581 52.0276 82.8883 42.0693 82.8972Z" fill="#263238"/>
<path opacity="0.2" d="M49.0127 100.316L50.4404 105.616L47.9298 103.702C47.9298 103.702 50.3741 109.289 51.0017 112.551C51.0017 112.551 48.889 107.008 47.0679 103.972L46.0027 107.013L41.7197 102.65C41.7197 102.655 45.5165 99.7683 49.0127 100.316Z" fill="black"/>
<path d="M46.9267 102.045L42.573 102.177C44.5001 99.702 41.0083 95.4013 41.0083 95.4013L45.3134 96.3339C46.3388 100.59 48.1157 100.723 48.1157 100.723L46.9267 102.045Z" fill="#E4897B"/>
<path opacity="0.2" d="M46.5156 99.3926C44.5134 99.2114 43.1211 98.2434 42.1929 97.2224C41.6183 96.1571 41.0039 95.4057 41.0039 95.4057L45.309 96.3384C45.6626 97.7749 46.0913 98.7473 46.5156 99.3926Z" fill="black"/>
<path d="M45.3085 84.6961C49.0611 85.0099 50.1042 87.1182 50.0556 91.0122C49.9981 95.8742 48.6367 99.2202 44.0311 97.7969C37.7724 95.8654 39.0719 84.1745 45.3085 84.6961Z" fill="#E4897B"/>
<path d="M47.6468 90.6012C47.6468 90.6012 48.0844 91.6266 48.6104 92.2498C48.6104 92.2498 48.248 92.7316 47.585 92.5902L47.6468 90.6012Z" fill="#DE5753"/>
<path d="M45.105 89.9824L45.9183 89.7172C45.9183 89.7172 45.4851 90.3625 45.105 89.9824Z" fill="#263238"/>
<path d="M45.388 89.8909C45.388 89.8909 44.8178 89.608 44.4907 90.1296C44.4907 90.1296 44.862 89.9174 45.357 90.1075L45.388 89.8909Z" fill="#263238"/>
<path d="M43.877 88.0995C43.8372 88.0995 43.7974 88.0862 43.7665 88.0553C43.7046 87.9934 43.7002 87.8918 43.762 87.8299C44.4471 87.1183 45.5389 87.3437 45.5875 87.3525C45.6759 87.3702 45.7289 87.4542 45.7113 87.5426C45.6936 87.631 45.6096 87.684 45.5212 87.6664C45.5124 87.6619 44.5532 87.4719 43.9963 88.0509C43.9609 88.0818 43.9167 88.0995 43.877 88.0995Z" fill="#263238"/>
<path d="M49.7642 88.1658C49.7288 88.1658 49.6935 88.1526 49.6625 88.1305C48.9553 87.5691 48.3586 87.7194 48.3321 87.7282C48.2481 87.7503 48.1597 87.7017 48.1376 87.6177C48.1155 87.5338 48.1642 87.4454 48.2481 87.4233C48.2791 87.4144 49.0216 87.2199 49.8614 87.8874C49.9322 87.9404 49.941 88.0421 49.888 88.1128C49.8614 88.1482 49.8128 88.1658 49.7642 88.1658Z" fill="#263238"/>
<path d="M40.6763 90.6807C40.6763 90.6807 42.6874 87.7414 42.6211 85.337C42.6211 85.337 50.3163 82.9192 50.0511 90.4995C50.0511 90.4995 51.3374 83.8518 44.893 83.1667C38.4619 82.4816 37.6928 91.9228 40.7912 95.0168C40.7957 95.0212 39.4299 92.5195 40.6763 90.6807Z" fill="#263238"/>
<path d="M41.2248 91.525C41.2513 90.9195 40.7121 89.8454 39.5762 89.8719C38.4004 89.9029 37.649 92.2455 40.4955 93.0587C40.9022 93.1781 41.1718 92.7935 41.2248 91.525Z" fill="#E4897B"/>
<path d="M47.6161 93.704C47.2979 94.0929 46.8824 94.8709 46.8824 94.8709C46.8029 94.8443 46.7277 94.8222 46.6526 94.7913C45.6139 94.4244 45.2514 93.9117 45.1675 93.4565C45.1233 93.2045 45.163 92.9703 45.2161 92.7846C45.278 92.5725 45.3752 92.431 45.3752 92.431C45.8128 92.9526 46.7542 93.3681 47.267 93.5714C47.4747 93.6598 47.6161 93.704 47.6161 93.704Z" fill="#263238"/>
<path d="M47.2623 93.5714L47.0369 93.9117C46.0601 93.567 45.4147 93.1913 45.2114 92.7846C45.2733 92.5725 45.3705 92.431 45.3705 92.431C45.8037 92.957 46.7496 93.3725 47.2623 93.5714Z" fill="white"/>
<path d="M46.6477 94.7914C45.609 94.4245 45.2466 93.9118 45.1626 93.4565C45.5118 93.5936 45.9184 93.8013 46.2367 94.093C46.4798 94.3096 46.5947 94.5615 46.6477 94.7914Z" fill="#DE5753"/>
<path d="M45.207 84.9745C45.207 84.9745 43.1782 91.0255 39.2975 90.6233C35.4123 90.2211 42.0688 82.8971 42.0688 82.8971C42.0688 82.8971 48.6148 81.0319 51.4701 84.6651C54.321 88.2984 50.0557 90.5084 50.0557 90.5084C50.0557 90.5084 50.6922 85.7392 45.207 84.9745Z" fill="#263238"/>
<path d="M42.1133 90.1238C42.0691 90.1238 42.0249 90.0973 42.0116 90.0531C41.9895 89.9956 42.0204 89.9337 42.0735 89.9116C45.1675 88.7271 45.0968 84.5767 45.0968 84.5369C45.0968 84.475 45.1454 84.4264 45.2028 84.422C45.2647 84.4308 45.3134 84.4706 45.3178 84.5281C45.3178 84.5723 45.3885 88.8773 42.153 90.1149C42.1398 90.1194 42.1265 90.1238 42.1133 90.1238Z" fill="#263238"/>
<path d="M48.915 90.3493L49.7283 90.0841C49.7283 90.0885 49.2907 90.7294 48.915 90.3493Z" fill="#263238"/>
<path d="M49.198 90.2579C49.198 90.2579 48.6279 89.975 48.3008 90.4966C48.3008 90.4966 48.6721 90.2844 49.1671 90.4745L49.198 90.2579Z" fill="#263238"/>
<path d="M43.1827 100.392L46.4668 102.062L46.4138 105.391L41.7197 102.655L43.1827 100.392Z" fill="#407BFF"/>
<path d="M46.9668 99.7639L47.1613 101.784L49.3005 104.051L49.0132 100.316L46.9668 99.7639Z" fill="#407BFF"/>
<path d="M31.7926 76.8948L30.4224 73.35C30.4224 73.35 30.5108 72.6428 30.0644 72.3113C29.1097 71.5997 27.1384 70.9543 26.6433 71.0295C25.9184 71.1356 24.4333 72.4439 24.5571 73.2925C24.6808 74.1456 28.8975 74.6716 28.8975 74.6716L30.2943 78.5479L31.7926 76.8948Z" fill="#E4897B"/>
<path d="M37.6933 108.427C37.6933 108.427 40.3674 106.319 39.2889 101.656L36.438 88.7669L31.5407 75.4583L29.145 76.6694C29.145 76.6694 33.1672 89.673 33.5385 90.5526C33.7286 91.0034 34.4844 97.7439 35.5142 102.27C36.4601 106.434 37.6933 108.427 37.6933 108.427Z" fill="#407BFF"/>
<path opacity="0.6" d="M37.6933 108.427C37.6933 108.427 40.3674 106.319 39.2889 101.656L36.438 88.7669L31.5407 75.4583L29.145 76.6694C29.145 76.6694 33.1672 89.673 33.5385 90.5526C33.7286 91.0034 34.4844 97.7439 35.5142 102.27C36.4601 106.434 37.6933 108.427 37.6933 108.427Z" fill="white"/>
<path d="M28.7251 76.2893L31.523 74.8881L32.1329 75.8207L28.8621 77.2705L28.7251 76.2893Z" fill="#407BFF"/>
<path opacity="0.7" d="M28.7251 76.2893L31.523 74.8881L32.1329 75.8207L28.8621 77.2705L28.7251 76.2893Z" fill="white"/>
<path opacity="0.6" d="M43.1827 100.392L46.4668 102.062L46.4138 105.391L41.7197 102.655L43.1827 100.392Z" fill="white"/>
<path opacity="0.6" d="M46.9668 99.7639L47.1613 101.784L49.3005 104.051L49.0132 100.316L46.9668 99.7639Z" fill="white"/>
<path d="M140.229 93.4433H126.986V103.733H140.229V93.4433Z" fill="white"/>
<path opacity="0.1" d="M140.229 93.4433H136.834V103.733H140.229V93.4433Z" fill="black"/>
<path d="M126.227 112.821H141.197V94.1461H136.375L126.227 99.0037V112.821Z" fill="#407BFF"/>
<path opacity="0.2" d="M141.197 94.1461H136.375V112.821H141.197V94.1461Z" fill="black"/>
<path opacity="0.7" d="M134.779 102.686H127.769V106.045H134.779V102.686Z" fill="white"/>
<path opacity="0.7" d="M134.779 107.167H127.769V107.649H134.779V107.167Z" fill="white"/>
<path opacity="0.7" d="M140.729 108.577H136.834V111.428H140.729V108.577Z" fill="white"/>
<path d="M134.602 92.882H121.359V103.733H134.602V92.882Z" fill="white"/>
<path opacity="0.1" d="M134.602 92.882H131.208V103.733H134.602V92.882Z" fill="black"/>
<path d="M120.6 112.821H135.57V94.1461H130.748L120.6 99.0037V112.821Z" fill="#407BFF"/>
<path opacity="0.2" d="M135.57 94.1461H130.748V112.821H135.57V94.1461Z" fill="black"/>
<path opacity="0.7" d="M129.153 102.686H122.143V106.045H129.153V102.686Z" fill="white"/>
<path opacity="0.7" d="M129.153 107.167H122.143V107.649H129.153V107.167Z" fill="white"/>
<path opacity="0.7" d="M135.102 108.577H131.208V111.428H135.102V108.577Z" fill="white"/>
<path d="M111.3 183.722H114.01L118.872 115.985H115.283L111.3 183.722Z" fill="#263238"/>
<path opacity="0.1" d="M111.3 183.721H114.01L118.637 119.348L118.876 116.095H115.283L115.088 119.348L111.3 183.721Z" fill="white"/>
<path opacity="0.2" d="M115.088 119.19H118.638L118.876 116.096H115.283L115.088 119.19Z" fill="black"/>
<path d="M91.4274 183.722H94.1368L94.5788 115.985H90.9854L91.4274 183.722Z" fill="#263238"/>
<path opacity="0.1" d="M90.9854 116.095L91.0561 127.021L91.4274 183.721H94.1368L94.5081 127.021L94.5788 116.095H90.9854Z" fill="white"/>
<path opacity="0.2" d="M90.9854 116.095L91.0561 127.145H94.5081L94.5788 116.095H90.9854Z" fill="black"/>
<path d="M62.6797 183.722H65.3892L70.2512 115.985H66.6621L62.6797 183.722Z" fill="#263238"/>
<path opacity="0.1" d="M62.6797 183.721H65.3892L70.0169 119.348L70.2556 116.095H66.6621L66.4676 119.348L62.6797 183.721Z" fill="white"/>
<path opacity="0.2" d="M66.4678 119.19H70.017L70.2557 116.096H66.6623L66.4678 119.19Z" fill="black"/>
<path d="M142.276 183.722H144.985L141.003 115.985H137.409L142.276 183.722Z" fill="#263238"/>
<path opacity="0.1" d="M137.414 116.095L137.653 119.348L142.28 183.721H144.986L141.202 119.348L141.008 116.095H137.414Z" fill="white"/>
<path opacity="0.2" d="M141.007 116.095H137.414L137.653 119.189H141.202L141.007 116.095Z" fill="black"/>
<path d="M64.7662 117.683H142.894C143.42 117.683 143.849 117.254 143.849 116.728V114.293H63.8115V116.728C63.8115 117.254 64.2403 117.683 64.7662 117.683Z" fill="#407BFF"/>
<path opacity="0.4" d="M64.7662 117.683H142.894C143.42 117.683 143.849 117.254 143.849 116.728V114.293H63.8115V116.728C63.8115 117.254 64.2403 117.683 64.7662 117.683Z" fill="white"/>
<path opacity="0.2" d="M63.8142 115.987L143.852 115.987V114.29L63.8142 114.29V115.987Z" fill="black"/>
<path d="M62.1364 114.73H145.533C146.059 114.73 146.488 114.301 146.488 113.775C146.488 113.249 146.059 112.821 145.533 112.821H62.1364C61.6104 112.821 61.1817 113.249 61.1817 113.775C61.1773 114.306 61.606 114.73 62.1364 114.73Z" fill="#407BFF"/>
<path opacity="0.4" d="M62.1364 114.73H145.533C146.059 114.73 146.488 114.301 146.488 113.775C146.488 113.249 146.059 112.821 145.533 112.821H62.1364C61.6104 112.821 61.1817 113.249 61.1817 113.775C61.1773 114.306 61.606 114.73 62.1364 114.73Z" fill="white"/>
<path d="M127.61 112.812V111.318H128.613L127.61 110.739H128.361L127.358 110.08H126.407V109.329H127.512L126.407 108.891V107.26H127.512V106.195H128.613L127.512 105.824V105.064H128.299L127.654 104.423L127.097 103.861H110.018V104.626H108.891L110.146 105.192V105.824H107.843V107H106.822L107.843 107.512V108.825H108.564V109.453H110.018V111.318H109.205L109.872 111.985V112.821L127.61 112.812Z" fill="#407BFF"/>
<path opacity="0.7" d="M127.61 112.812V111.318H128.613L127.61 110.739H128.361L127.358 110.08H126.407V109.329H127.512L126.407 108.891V107.26H127.512V106.195H128.613L127.512 105.824V105.064H128.299L127.654 104.423L127.097 103.861H110.018V104.626H108.891L110.146 105.192V105.824H107.843V107H106.822L107.843 107.512V108.825H108.564V109.453H110.018V111.318H109.205L109.872 111.985V112.821L127.61 112.812Z" fill="white"/>
<path opacity="0.1" d="M127.609 112.812V111.318H128.613L127.609 110.739H128.361L127.357 110.08H126.407V109.329H127.512L126.407 108.891V107.26H127.512V106.195H128.613L127.512 105.824V105.064H128.299L127.654 104.423L127.097 103.861H118.102V104.626H116.975L118.226 105.192V105.824H115.923V107H114.906L115.923 107.512V108.825H116.648V109.453H118.102V111.318H117.284L117.952 111.985V112.821L127.609 112.812Z" fill="black"/>
<path opacity="0.1" d="M110.146 105.824H118.226L110.146 105.532V105.824Z" fill="black"/>
<path opacity="0.1" d="M110.018 109.453H118.102L118.138 110.018L110.018 109.453Z" fill="black"/>
<path opacity="0.1" d="M108.564 108.825H116.648L108.564 109.108V108.825Z" fill="black"/>
<path opacity="0.1" d="M110.018 111.318H118.102L110.018 111.022V111.318Z" fill="black"/>
<path opacity="0.1" d="M109.872 111.985H117.952V112.295L109.872 111.985Z" fill="black"/>
<path opacity="0.1" d="M107.843 107H115.923L107.843 106.743V107Z" fill="black"/>
<path opacity="0.1" d="M110.018 104.626H118.102L110.018 104.343V104.626Z" fill="black"/>
<path opacity="0.1" d="M127.512 105.064H119.313L127.512 105.316V105.064Z" fill="black"/>
<path opacity="0.1" d="M118.226 105.824H127.512L119.092 106.098L118.226 105.824Z" fill="black"/>
<path opacity="0.1" d="M115.923 107L127.513 107.26V107H115.923Z" fill="black"/>
<path opacity="0.1" d="M115.923 107.512H121.656L115.923 107.791V107.512Z" fill="black"/>
<path opacity="0.1" d="M126.407 108.891L118.102 108.825L126.407 108.639V108.891Z" fill="black"/>
<path opacity="0.1" d="M126.407 109.329H117.952L126.407 109.612V109.329Z" fill="black"/>
<path opacity="0.1" d="M127.61 110.739H118.226V111.022L127.61 110.739Z" fill="black"/>
<path opacity="0.1" d="M127.609 111.318H120.812L127.609 111.508V111.318Z" fill="black"/>
<path d="M105.863 110.885V112.304C105.863 112.666 105.435 112.816 105.077 112.816H76.7312C76.3687 112.816 75.9312 112.666 75.9312 112.304V110.885H105.863Z" fill="#263238"/>
<path opacity="0.4" d="M105.863 110.885V112.304C105.863 112.666 105.435 112.816 105.077 112.816H76.7312C76.3687 112.816 75.9312 112.666 75.9312 112.304V110.885H105.863Z" fill="white"/>
<path opacity="0.2" d="M105.863 110.885V112.304C105.863 112.666 105.435 112.816 105.077 112.816H86.3845C86.022 112.816 85.5889 112.666 85.5889 112.304V110.885H105.863Z" fill="black"/>
<path d="M110.606 96.1572L107.233 111.459C107.123 111.963 106.632 112.33 106.137 112.33H87.7058C87.2152 112.33 86.9014 111.87 87.0119 111.366L90.3799 96.1793C90.4949 95.6799 90.9811 95.4323 91.4761 95.4323H109.908C110.403 95.4323 110.712 95.6578 110.606 96.1572Z" fill="#263238"/>
<path opacity="0.4" d="M110.606 96.1572L107.233 111.459C107.123 111.963 106.632 112.33 106.137 112.33H88.3334C87.8384 112.33 87.529 111.87 87.6351 111.366L91.0075 96.1793C91.118 95.6799 91.6087 95.4323 92.1037 95.4323H109.907C110.402 95.4323 110.712 95.6578 110.606 96.1572Z" fill="white"/>
<path opacity="0.2" d="M101.518 103.936C101.518 105.249 100.113 106.314 99.0827 106.314C98.0528 106.314 97.4429 105.249 97.7346 103.941C98.0263 102.659 99.0518 101.611 100.06 101.572C99.7678 102.88 100.395 103.941 101.421 103.941C101.443 103.941 101.518 103.941 101.518 103.936Z" fill="black"/>
</svg>
