<svg width="16" height="16" viewBox="0 0 16 16" fill="none" xmlns="http://www.w3.org/2000/svg">
<g id="chevron-right">
<path id="Vector" d="M7.56836 0C11.7493 0 15.1367 3.38745 15.1367 7.56836C15.1367 11.7493 11.7493 15.1367 7.56836 15.1367C3.38745 15.1367 0 11.7493 0 7.56836C0 3.38745 3.38745 0 7.56836 0ZM6.6864 4.38232L8.99048 6.5918H3.41797C3.01209 6.5918 2.68555 6.91834 2.68555 7.32422V7.8125C2.68555 8.21838 3.01209 8.54492 3.41797 8.54492H8.99048L6.6864 10.7544C6.39038 11.0382 6.38428 11.5112 6.67419 11.8011L7.00989 12.1338C7.29675 12.4207 7.76062 12.4207 8.04443 12.1338L12.0941 8.08716C12.381 7.80029 12.381 7.33643 12.0941 7.05261L8.04443 2.99988C7.75757 2.71301 7.2937 2.71301 7.00989 2.99988L6.67419 3.33252C6.38428 3.62549 6.39038 4.09851 6.6864 4.38232Z" fill="#102D6F"/>
</g>
</svg>
