<svg width="90" height="90" viewBox="0 0 90 90" fill="none" xmlns="http://www.w3.org/2000/svg">
<path d="M79.8458 22.5L74.4189 55.4127C74.3393 55.8957 73.9217 56.25 73.4322 56.25H24.0777C23.5882 56.25 23.1707 55.8957 23.091 55.4127L17.8022 23.3373C17.7226 22.8543 17.3051 22.5 16.8156 22.5H7.5" stroke="#317CF0" stroke-linecap="round" stroke-linejoin="round"/>
<path fill-rule="evenodd" clip-rule="evenodd" d="M30 75C32.0711 75 33.75 73.3211 33.75 71.25C33.75 69.1789 32.0711 67.5 30 67.5C27.9289 67.5 26.25 69.1789 26.25 71.25C26.25 73.3211 27.9289 75 30 75Z" stroke="#317CF0"/>
<path fill-rule="evenodd" clip-rule="evenodd" d="M67.5 75C69.5711 75 71.25 73.3211 71.25 71.25C71.25 69.1789 69.5711 67.5 67.5 67.5C65.4289 67.5 63.75 69.1789 63.75 71.25C63.75 73.3211 65.4289 75 67.5 75Z" stroke="#317CF0"/>
<path d="M60 30H37.5" stroke="#317CF0" stroke-linecap="round"/>
<path d="M48.75 18.75V41.25" stroke="#317CF0" stroke-linecap="round"/>
</svg>
