<svg width="18" height="19" viewBox="0 0 18 19" fill="none" xmlns="http://www.w3.org/2000/svg">
<path d="M8.88222 18.763C6.69273 18.7795 4.57554 17.9801 2.94345 16.5205C1.31136 15.0609 0.281343 13.0457 0.0542222 10.868C0.0542222 10.854 -0.0677778 9.768 0.0542222 9.725L1.90122 10.375C2.04619 12.1257 2.84487 13.7578 4.1384 14.9464C5.43192 16.1351 7.1255 16.7932 8.88222 16.79C10.6305 16.7958 12.3155 16.1362 13.5951 14.945C14.8747 13.7537 15.6531 12.1202 15.7722 10.376L17.7092 9.726C17.7574 10.1055 17.7574 10.4895 17.7092 10.869C17.4582 13.032 16.425 15.0286 14.8041 16.4828C13.1833 17.9369 11.0867 18.7483 8.90922 18.764L8.88222 18.763ZM7.90022 13.058V3.8L5.90022 5.824L4.54322 4.393L8.86022 0L13.2212 4.393L11.8652 5.823L9.86522 3.799V13.058H7.90022Z" fill="white"/>
</svg>
