<svg width="284" height="183" viewBox="0 0 284 183" fill="none" xmlns="http://www.w3.org/2000/svg">
<g clip-path="url(#clip0_237:77)">
<path d="M-3.99994 183L288.8 183V0L-3.99994 0V183Z" fill="url(#paint0_radial_237:77)"/>
<path style="mix-blend-mode:difference" d="M-3.99994 183L288.8 183V0L-3.99994 0V183Z" fill="url(#paint1_angular_237:77)"/>
<path style="mix-blend-mode:screen" d="M-3.99994 183L288.8 183V0L-3.99994 0V183Z" fill="url(#paint2_angular_237:77)"/>
<path d="M24.9996 128.144C24.4956 128.144 24.0436 128.068 23.6436 127.916C23.2516 127.756 22.9196 127.532 22.6476 127.244C22.3756 126.948 22.1676 126.596 22.0236 126.188C21.8796 125.78 21.8076 125.324 21.8076 124.82C21.8076 124.236 21.8996 123.684 22.0836 123.164C22.2676 122.636 22.5036 122.152 22.7916 121.712C23.0876 121.264 23.4156 120.864 23.7756 120.512C24.1436 120.16 24.5076 119.864 24.8676 119.624H27.3516C26.8316 119.984 26.3636 120.332 25.9476 120.668C25.5396 120.996 25.1796 121.328 24.8676 121.664C24.5636 121.992 24.3116 122.332 24.1116 122.684C23.9196 123.036 23.7796 123.416 23.6916 123.824L23.7996 123.86C23.8716 123.7 23.9596 123.544 24.0636 123.392C24.1676 123.24 24.2956 123.108 24.4476 122.996C24.5996 122.876 24.7756 122.78 24.9756 122.708C25.1836 122.636 25.4236 122.6 25.6956 122.6C26.0476 122.6 26.3756 122.664 26.6796 122.792C26.9836 122.912 27.2436 123.088 27.4596 123.32C27.6836 123.544 27.8596 123.816 27.9876 124.136C28.1156 124.456 28.1796 124.816 28.1796 125.216C28.1796 125.64 28.1036 126.032 27.9516 126.392C27.7996 126.752 27.5836 127.064 27.3036 127.328C27.0316 127.584 26.6996 127.784 26.3076 127.928C25.9156 128.072 25.4796 128.144 24.9996 128.144ZM24.9876 126.74C25.4196 126.74 25.7476 126.628 25.9716 126.404C26.1956 126.172 26.3076 125.848 26.3076 125.432V125.264C26.3076 124.848 26.1916 124.532 25.9596 124.316C25.7356 124.092 25.4116 123.98 24.9876 123.98C24.5796 123.98 24.2596 124.092 24.0276 124.316C23.7956 124.532 23.6796 124.848 23.6796 125.264V125.432C23.6796 125.848 23.7876 126.172 24.0036 126.404C24.2276 126.628 24.5556 126.74 24.9876 126.74ZM39.2069 128H33.1829V126.356L35.8229 124.16C36.2789 123.768 36.6069 123.428 36.8069 123.14C37.0069 122.852 37.1069 122.548 37.1069 122.228V122.108C37.1069 121.756 37.0029 121.492 36.7949 121.316C36.5869 121.132 36.3069 121.04 35.9549 121.04C35.5549 121.04 35.2469 121.156 35.0309 121.388C34.8149 121.62 34.6629 121.896 34.5749 122.216L33.0029 121.616C33.0989 121.328 33.2309 121.056 33.3989 120.8C33.5669 120.536 33.7789 120.308 34.0349 120.116C34.2989 119.924 34.6029 119.772 34.9469 119.66C35.2909 119.54 35.6869 119.48 36.1349 119.48C36.5909 119.48 36.9989 119.544 37.3589 119.672C37.7189 119.8 38.0229 119.976 38.2709 120.2C38.5189 120.424 38.7069 120.692 38.8349 121.004C38.9629 121.308 39.0269 121.64 39.0269 122C39.0269 122.352 38.9669 122.676 38.8469 122.972C38.7349 123.26 38.5749 123.532 38.3669 123.788C38.1669 124.044 37.9269 124.292 37.6469 124.532C37.3749 124.772 37.0829 125.012 36.7709 125.252L35.1749 126.488H39.2069V128ZM44.8702 128V126.548H47.1262V120.932H47.0182L45.3142 123.164L44.1622 122.264L46.1662 119.624H48.9262V126.548H50.7022V128H44.8702ZM61.6815 122.804C61.6815 123.396 61.5895 123.952 61.4055 124.472C61.2215 124.992 60.9815 125.476 60.6855 125.924C60.3975 126.364 60.0695 126.76 59.7015 127.112C59.3415 127.464 58.9815 127.76 58.6215 128H56.1375C56.6575 127.64 57.1215 127.296 57.5295 126.968C57.9455 126.632 58.3055 126.3 58.6095 125.972C58.9215 125.636 59.1735 125.292 59.3655 124.94C59.5655 124.588 59.7095 124.208 59.7975 123.8L59.6895 123.764C59.6175 123.924 59.5255 124.08 59.4135 124.232C59.3095 124.384 59.1815 124.52 59.0295 124.64C58.8855 124.752 58.7095 124.844 58.5015 124.916C58.3015 124.988 58.0655 125.024 57.7935 125.024C57.4415 125.024 57.1135 124.964 56.8095 124.844C56.5055 124.716 56.2415 124.54 56.0175 124.316C55.8015 124.084 55.6295 123.808 55.5015 123.488C55.3735 123.168 55.3095 122.808 55.3095 122.408C55.3095 121.984 55.3855 121.592 55.5375 121.232C55.6895 120.872 55.9015 120.564 56.1735 120.308C56.4535 120.044 56.7895 119.84 57.1815 119.696C57.5735 119.552 58.0095 119.48 58.4895 119.48C58.9935 119.48 59.4415 119.56 59.8335 119.72C60.2335 119.872 60.5695 120.096 60.8415 120.392C61.1135 120.68 61.3215 121.028 61.4655 121.436C61.6095 121.844 61.6815 122.3 61.6815 122.804ZM58.5015 123.644C58.9095 123.644 59.2295 123.536 59.4615 123.32C59.6935 123.096 59.8095 122.776 59.8095 122.36V122.192C59.8095 121.776 59.6975 121.456 59.4735 121.232C59.2575 121 58.9335 120.884 58.5015 120.884C58.0695 120.884 57.7415 121 57.5175 121.232C57.2935 121.456 57.1815 121.776 57.1815 122.192V122.36C57.1815 122.776 57.2935 123.096 57.5175 123.32C57.7495 123.536 58.0775 123.644 58.5015 123.644ZM92.1234 128.144C91.6194 128.144 91.1714 128.084 90.7794 127.964C90.3874 127.836 90.0554 127.664 89.7834 127.448C89.5114 127.232 89.3034 126.976 89.1594 126.68C89.0234 126.376 88.9554 126.048 88.9554 125.696C88.9554 125.152 89.1114 124.716 89.4234 124.388C89.7354 124.052 90.1354 123.816 90.6234 123.68V123.584C90.2074 123.432 89.8674 123.2 89.6034 122.888C89.3394 122.576 89.2074 122.176 89.2074 121.688C89.2074 121.368 89.2714 121.072 89.3994 120.8C89.5274 120.528 89.7154 120.296 89.9634 120.104C90.2114 119.904 90.5154 119.752 90.8754 119.648C91.2354 119.536 91.6514 119.48 92.1234 119.48C92.5874 119.48 92.9994 119.536 93.3594 119.648C93.7274 119.752 94.0354 119.904 94.2834 120.104C94.5314 120.296 94.7194 120.528 94.8474 120.8C94.9754 121.072 95.0394 121.368 95.0394 121.688C95.0394 122.176 94.9074 122.576 94.6434 122.888C94.3794 123.2 94.0394 123.432 93.6234 123.584V123.68C94.1114 123.816 94.5114 124.052 94.8234 124.388C95.1354 124.716 95.2914 125.152 95.2914 125.696C95.2914 126.048 95.2194 126.376 95.0754 126.68C94.9394 126.976 94.7354 127.232 94.4634 127.448C94.1914 127.664 93.8594 127.836 93.4674 127.964C93.0754 128.084 92.6274 128.144 92.1234 128.144ZM92.1234 126.764C92.5394 126.764 92.8554 126.668 93.0714 126.476C93.2954 126.284 93.4074 126.024 93.4074 125.696V125.456C93.4074 125.12 93.2994 124.86 93.0834 124.676C92.8674 124.484 92.5474 124.388 92.1234 124.388C91.6994 124.388 91.3794 124.484 91.1634 124.676C90.9474 124.86 90.8394 125.12 90.8394 125.456V125.696C90.8394 126.024 90.9474 126.284 91.1634 126.476C91.3874 126.668 91.7074 126.764 92.1234 126.764ZM92.1234 123.068C92.5234 123.068 92.8274 122.976 93.0354 122.792C93.2434 122.608 93.3474 122.36 93.3474 122.048V121.868C93.3474 121.556 93.2394 121.312 93.0234 121.136C92.8154 120.952 92.5154 120.86 92.1234 120.86C91.7314 120.86 91.4274 120.952 91.2114 121.136C91.0034 121.312 90.8994 121.556 90.8994 121.868V122.048C90.8994 122.36 91.0034 122.608 91.2114 122.792C91.4194 122.976 91.7234 123.068 92.1234 123.068ZM103.367 128.144C102.863 128.144 102.411 128.068 102.011 127.916C101.619 127.756 101.287 127.532 101.015 127.244C100.743 126.948 100.535 126.596 100.391 126.188C100.247 125.78 100.175 125.324 100.175 124.82C100.175 124.236 100.267 123.684 100.451 123.164C100.635 122.636 100.871 122.152 101.159 121.712C101.455 121.264 101.783 120.864 102.143 120.512C102.511 120.16 102.875 119.864 103.235 119.624H105.719C105.199 119.984 104.731 120.332 104.315 120.668C103.907 120.996 103.547 121.328 103.235 121.664C102.931 121.992 102.679 122.332 102.479 122.684C102.287 123.036 102.147 123.416 102.059 123.824L102.167 123.86C102.239 123.7 102.327 123.544 102.431 123.392C102.535 123.24 102.663 123.108 102.815 122.996C102.967 122.876 103.143 122.78 103.343 122.708C103.551 122.636 103.791 122.6 104.063 122.6C104.415 122.6 104.743 122.664 105.047 122.792C105.351 122.912 105.611 123.088 105.827 123.32C106.051 123.544 106.227 123.816 106.355 124.136C106.483 124.456 106.547 124.816 106.547 125.216C106.547 125.64 106.471 126.032 106.319 126.392C106.167 126.752 105.951 127.064 105.671 127.328C105.399 127.584 105.067 127.784 104.675 127.928C104.283 128.072 103.847 128.144 103.367 128.144ZM103.355 126.74C103.787 126.74 104.115 126.628 104.339 126.404C104.563 126.172 104.675 125.848 104.675 125.432V125.264C104.675 124.848 104.559 124.532 104.327 124.316C104.103 124.092 103.779 123.98 103.355 123.98C102.947 123.98 102.627 124.092 102.395 124.316C102.163 124.532 102.047 124.848 102.047 125.264V125.432C102.047 125.848 102.155 126.172 102.371 126.404C102.595 126.628 102.923 126.74 103.355 126.74ZM112.042 128V126.548H114.298V120.932H114.19L112.486 123.164L111.334 122.264L113.338 119.624H116.098V126.548H117.874V128H112.042ZM125.709 128.144C124.589 128.144 123.761 127.764 123.225 127.004C122.697 126.244 122.433 125.18 122.433 123.812C122.433 122.444 122.697 121.38 123.225 120.62C123.761 119.86 124.589 119.48 125.709 119.48C126.829 119.48 127.653 119.86 128.181 120.62C128.717 121.38 128.985 122.444 128.985 123.812C128.985 125.18 128.717 126.244 128.181 127.004C127.653 127.764 126.829 128.144 125.709 128.144ZM125.709 126.728C126.245 126.728 126.617 126.54 126.825 126.164C127.041 125.788 127.149 125.264 127.149 124.592V123.032C127.149 122.36 127.041 121.836 126.825 121.46C126.617 121.084 126.245 120.896 125.709 120.896C125.173 120.896 124.797 121.084 124.581 121.46C124.373 121.836 124.269 122.36 124.269 123.032V124.592C124.269 125.264 124.373 125.788 124.581 126.164C124.797 126.54 125.173 126.728 125.709 126.728ZM125.709 124.52C125.429 124.52 125.233 124.464 125.121 124.352C125.017 124.24 124.965 124.104 124.965 123.944V123.68C124.965 123.52 125.017 123.384 125.121 123.272C125.233 123.16 125.429 123.104 125.709 123.104C125.989 123.104 126.181 123.16 126.285 123.272C126.397 123.384 126.453 123.52 126.453 123.68V123.944C126.453 124.104 126.397 124.24 126.285 124.352C126.181 124.464 125.989 124.52 125.709 124.52ZM162.355 128H156.331V126.356L158.971 124.16C159.427 123.768 159.755 123.428 159.955 123.14C160.155 122.852 160.255 122.548 160.255 122.228V122.108C160.255 121.756 160.151 121.492 159.943 121.316C159.735 121.132 159.455 121.04 159.103 121.04C158.703 121.04 158.395 121.156 158.179 121.388C157.963 121.62 157.811 121.896 157.723 122.216L156.151 121.616C156.247 121.328 156.379 121.056 156.547 120.8C156.715 120.536 156.927 120.308 157.183 120.116C157.447 119.924 157.751 119.772 158.095 119.66C158.439 119.54 158.835 119.48 159.283 119.48C159.739 119.48 160.147 119.544 160.507 119.672C160.867 119.8 161.171 119.976 161.419 120.2C161.667 120.424 161.855 120.692 161.983 121.004C162.111 121.308 162.175 121.64 162.175 122C162.175 122.352 162.115 122.676 161.995 122.972C161.883 123.26 161.723 123.532 161.515 123.788C161.315 124.044 161.075 124.292 160.795 124.532C160.523 124.772 160.231 125.012 159.919 125.252L158.323 126.488H162.355V128ZM170.491 128.144C169.987 128.144 169.539 128.084 169.147 127.964C168.755 127.836 168.423 127.664 168.151 127.448C167.879 127.232 167.671 126.976 167.527 126.68C167.391 126.376 167.323 126.048 167.323 125.696C167.323 125.152 167.479 124.716 167.791 124.388C168.103 124.052 168.503 123.816 168.991 123.68V123.584C168.575 123.432 168.235 123.2 167.971 122.888C167.707 122.576 167.575 122.176 167.575 121.688C167.575 121.368 167.639 121.072 167.767 120.8C167.895 120.528 168.083 120.296 168.331 120.104C168.579 119.904 168.883 119.752 169.243 119.648C169.603 119.536 170.019 119.48 170.491 119.48C170.955 119.48 171.367 119.536 171.727 119.648C172.095 119.752 172.403 119.904 172.651 120.104C172.899 120.296 173.087 120.528 173.215 120.8C173.343 121.072 173.407 121.368 173.407 121.688C173.407 122.176 173.275 122.576 173.011 122.888C172.747 123.2 172.407 123.432 171.991 123.584V123.68C172.479 123.816 172.879 124.052 173.191 124.388C173.503 124.716 173.659 125.152 173.659 125.696C173.659 126.048 173.587 126.376 173.443 126.68C173.307 126.976 173.103 127.232 172.831 127.448C172.559 127.664 172.227 127.836 171.835 127.964C171.443 128.084 170.995 128.144 170.491 128.144ZM170.491 126.764C170.907 126.764 171.223 126.668 171.439 126.476C171.663 126.284 171.775 126.024 171.775 125.696V125.456C171.775 125.12 171.667 124.86 171.451 124.676C171.235 124.484 170.915 124.388 170.491 124.388C170.067 124.388 169.747 124.484 169.531 124.676C169.315 124.86 169.207 125.12 169.207 125.456V125.696C169.207 126.024 169.315 126.284 169.531 126.476C169.755 126.668 170.075 126.764 170.491 126.764ZM170.491 123.068C170.891 123.068 171.195 122.976 171.403 122.792C171.611 122.608 171.715 122.36 171.715 122.048V121.868C171.715 121.556 171.607 121.312 171.391 121.136C171.183 120.952 170.883 120.86 170.491 120.86C170.099 120.86 169.795 120.952 169.579 121.136C169.371 121.312 169.267 121.556 169.267 121.868V122.048C169.267 122.36 169.371 122.608 169.579 122.792C169.787 122.976 170.091 123.068 170.491 123.068ZM181.686 128.144C181.182 128.144 180.734 128.084 180.342 127.964C179.95 127.836 179.618 127.664 179.346 127.448C179.074 127.232 178.866 126.976 178.722 126.68C178.586 126.376 178.518 126.048 178.518 125.696C178.518 125.152 178.674 124.716 178.986 124.388C179.298 124.052 179.698 123.816 180.186 123.68V123.584C179.77 123.432 179.43 123.2 179.166 122.888C178.902 122.576 178.77 122.176 178.77 121.688C178.77 121.368 178.834 121.072 178.962 120.8C179.09 120.528 179.278 120.296 179.526 120.104C179.774 119.904 180.078 119.752 180.438 119.648C180.798 119.536 181.214 119.48 181.686 119.48C182.15 119.48 182.562 119.536 182.922 119.648C183.29 119.752 183.598 119.904 183.846 120.104C184.094 120.296 184.282 120.528 184.41 120.8C184.538 121.072 184.602 121.368 184.602 121.688C184.602 122.176 184.47 122.576 184.206 122.888C183.942 123.2 183.602 123.432 183.186 123.584V123.68C183.674 123.816 184.074 124.052 184.386 124.388C184.698 124.716 184.854 125.152 184.854 125.696C184.854 126.048 184.782 126.376 184.638 126.68C184.502 126.976 184.298 127.232 184.026 127.448C183.754 127.664 183.422 127.836 183.03 127.964C182.638 128.084 182.19 128.144 181.686 128.144ZM181.686 126.764C182.102 126.764 182.418 126.668 182.634 126.476C182.858 126.284 182.97 126.024 182.97 125.696V125.456C182.97 125.12 182.862 124.86 182.646 124.676C182.43 124.484 182.11 124.388 181.686 124.388C181.262 124.388 180.942 124.484 180.726 124.676C180.51 124.86 180.402 125.12 180.402 125.456V125.696C180.402 126.024 180.51 126.284 180.726 126.476C180.95 126.668 181.27 126.764 181.686 126.764ZM181.686 123.068C182.086 123.068 182.39 122.976 182.598 122.792C182.806 122.608 182.91 122.36 182.91 122.048V121.868C182.91 121.556 182.802 121.312 182.586 121.136C182.378 120.952 182.078 120.86 181.686 120.86C181.294 120.86 180.99 120.952 180.774 121.136C180.566 121.312 180.462 121.556 180.462 121.868V122.048C180.462 122.36 180.566 122.608 180.774 122.792C180.982 122.976 181.286 123.068 181.686 123.068ZM192.881 128.144C192.377 128.144 191.929 128.084 191.537 127.964C191.145 127.836 190.813 127.664 190.541 127.448C190.269 127.232 190.061 126.976 189.917 126.68C189.781 126.376 189.713 126.048 189.713 125.696C189.713 125.152 189.869 124.716 190.181 124.388C190.493 124.052 190.893 123.816 191.381 123.68V123.584C190.965 123.432 190.625 123.2 190.361 122.888C190.097 122.576 189.965 122.176 189.965 121.688C189.965 121.368 190.029 121.072 190.157 120.8C190.285 120.528 190.473 120.296 190.721 120.104C190.969 119.904 191.273 119.752 191.633 119.648C191.993 119.536 192.409 119.48 192.881 119.48C193.345 119.48 193.757 119.536 194.117 119.648C194.485 119.752 194.793 119.904 195.041 120.104C195.289 120.296 195.477 120.528 195.605 120.8C195.733 121.072 195.797 121.368 195.797 121.688C195.797 122.176 195.665 122.576 195.401 122.888C195.137 123.2 194.797 123.432 194.381 123.584V123.68C194.869 123.816 195.269 124.052 195.581 124.388C195.893 124.716 196.049 125.152 196.049 125.696C196.049 126.048 195.977 126.376 195.833 126.68C195.697 126.976 195.493 127.232 195.221 127.448C194.949 127.664 194.617 127.836 194.225 127.964C193.833 128.084 193.385 128.144 192.881 128.144ZM192.881 126.764C193.297 126.764 193.613 126.668 193.829 126.476C194.053 126.284 194.165 126.024 194.165 125.696V125.456C194.165 125.12 194.057 124.86 193.841 124.676C193.625 124.484 193.305 124.388 192.881 124.388C192.457 124.388 192.137 124.484 191.921 124.676C191.705 124.86 191.597 125.12 191.597 125.456V125.696C191.597 126.024 191.705 126.284 191.921 126.476C192.145 126.668 192.465 126.764 192.881 126.764ZM192.881 123.068C193.281 123.068 193.585 122.976 193.793 122.792C194.001 122.608 194.105 122.36 194.105 122.048V121.868C194.105 121.556 193.997 121.312 193.781 121.136C193.573 120.952 193.273 120.86 192.881 120.86C192.489 120.86 192.185 120.952 191.969 121.136C191.761 121.312 191.657 121.556 191.657 121.868V122.048C191.657 122.36 191.761 122.608 191.969 122.792C192.177 122.976 192.481 123.068 192.881 123.068ZM226.467 128.144C225.963 128.144 225.515 128.084 225.123 127.964C224.731 127.836 224.399 127.664 224.127 127.448C223.855 127.232 223.647 126.976 223.503 126.68C223.367 126.376 223.299 126.048 223.299 125.696C223.299 125.152 223.455 124.716 223.767 124.388C224.079 124.052 224.479 123.816 224.967 123.68V123.584C224.551 123.432 224.211 123.2 223.947 122.888C223.683 122.576 223.551 122.176 223.551 121.688C223.551 121.368 223.615 121.072 223.743 120.8C223.871 120.528 224.059 120.296 224.307 120.104C224.555 119.904 224.859 119.752 225.219 119.648C225.579 119.536 225.995 119.48 226.467 119.48C226.931 119.48 227.343 119.536 227.703 119.648C228.071 119.752 228.379 119.904 228.627 120.104C228.875 120.296 229.063 120.528 229.191 120.8C229.319 121.072 229.383 121.368 229.383 121.688C229.383 122.176 229.251 122.576 228.987 122.888C228.723 123.2 228.383 123.432 227.967 123.584V123.68C228.455 123.816 228.855 124.052 229.167 124.388C229.479 124.716 229.635 125.152 229.635 125.696C229.635 126.048 229.563 126.376 229.419 126.68C229.283 126.976 229.079 127.232 228.807 127.448C228.535 127.664 228.203 127.836 227.811 127.964C227.419 128.084 226.971 128.144 226.467 128.144ZM226.467 126.764C226.883 126.764 227.199 126.668 227.415 126.476C227.639 126.284 227.751 126.024 227.751 125.696V125.456C227.751 125.12 227.643 124.86 227.427 124.676C227.211 124.484 226.891 124.388 226.467 124.388C226.043 124.388 225.723 124.484 225.507 124.676C225.291 124.86 225.183 125.12 225.183 125.456V125.696C225.183 126.024 225.291 126.284 225.507 126.476C225.731 126.668 226.051 126.764 226.467 126.764ZM226.467 123.068C226.867 123.068 227.171 122.976 227.379 122.792C227.587 122.608 227.691 122.36 227.691 122.048V121.868C227.691 121.556 227.583 121.312 227.367 121.136C227.159 120.952 226.859 120.86 226.467 120.86C226.075 120.86 225.771 120.952 225.555 121.136C225.347 121.312 225.243 121.556 225.243 121.868V122.048C225.243 122.36 225.347 122.608 225.555 122.792C225.763 122.976 226.067 123.068 226.467 123.068ZM237.663 128.144C236.543 128.144 235.715 127.764 235.179 127.004C234.651 126.244 234.387 125.18 234.387 123.812C234.387 122.444 234.651 121.38 235.179 120.62C235.715 119.86 236.543 119.48 237.663 119.48C238.783 119.48 239.607 119.86 240.135 120.62C240.671 121.38 240.939 122.444 240.939 123.812C240.939 125.18 240.671 126.244 240.135 127.004C239.607 127.764 238.783 128.144 237.663 128.144ZM237.663 126.728C238.199 126.728 238.571 126.54 238.779 126.164C238.995 125.788 239.103 125.264 239.103 124.592V123.032C239.103 122.36 238.995 121.836 238.779 121.46C238.571 121.084 238.199 120.896 237.663 120.896C237.127 120.896 236.751 121.084 236.535 121.46C236.327 121.836 236.223 122.36 236.223 123.032V124.592C236.223 125.264 236.327 125.788 236.535 126.164C236.751 126.54 237.127 126.728 237.663 126.728ZM237.663 124.52C237.383 124.52 237.187 124.464 237.075 124.352C236.971 124.24 236.919 124.104 236.919 123.944V123.68C236.919 123.52 236.971 123.384 237.075 123.272C237.187 123.16 237.383 123.104 237.663 123.104C237.943 123.104 238.135 123.16 238.239 123.272C238.351 123.384 238.407 123.52 238.407 123.68V123.944C238.407 124.104 238.351 124.24 238.239 124.352C238.135 124.464 237.943 124.52 237.663 124.52ZM247.226 128L250.106 121.088H247.394V122.612H245.87V119.624H251.894V121.184L249.122 128H247.226ZM262.753 121.196H258.877L258.685 123.848H258.793C258.881 123.656 258.981 123.48 259.093 123.32C259.205 123.152 259.337 123.012 259.489 122.9C259.641 122.78 259.817 122.688 260.017 122.624C260.217 122.56 260.445 122.528 260.701 122.528C261.045 122.528 261.369 122.588 261.673 122.708C261.985 122.828 262.257 123.004 262.489 123.236C262.729 123.46 262.917 123.74 263.053 124.076C263.189 124.404 263.257 124.776 263.257 125.192C263.257 125.616 263.185 126.008 263.041 126.368C262.897 126.728 262.685 127.04 262.405 127.304C262.133 127.568 261.793 127.776 261.385 127.928C260.977 128.072 260.513 128.144 259.993 128.144C259.585 128.144 259.221 128.1 258.901 128.012C258.581 127.924 258.297 127.808 258.049 127.664C257.809 127.512 257.597 127.34 257.413 127.148C257.237 126.948 257.085 126.744 256.957 126.536L258.265 125.504C258.361 125.664 258.461 125.816 258.565 125.96C258.677 126.104 258.801 126.232 258.937 126.344C259.081 126.448 259.237 126.532 259.405 126.596C259.581 126.652 259.781 126.68 260.005 126.68C260.453 126.68 260.789 126.56 261.013 126.32C261.245 126.072 261.361 125.744 261.361 125.336V125.24C261.361 124.848 261.245 124.54 261.013 124.316C260.781 124.092 260.461 123.98 260.053 123.98C259.717 123.98 259.437 124.048 259.213 124.184C258.997 124.312 258.833 124.44 258.721 124.568L257.245 124.364L257.557 119.624H262.753V121.196Z" fill="white"/>
<path d="M35.946 19.2415L30.4475 32.3595H26.86L24.1545 21.8892C23.99 21.2452 23.8482 21.009 23.3477 20.7377C22.5322 20.295 21.1847 19.8803 20 19.6213L20.0805 19.2415H25.8555C26.2329 19.2411 26.598 19.3757 26.8849 19.6208C27.1718 19.866 27.3616 20.2057 27.42 20.5785L28.8498 28.17L32.3812 19.2415H35.946ZM50.0037 28.0772C50.0178 24.614 45.2158 24.4232 45.249 22.8762C45.2595 22.4055 45.7075 21.905 46.6875 21.7773C47.836 21.6682 48.9927 21.8713 50.0352 22.3653L50.6303 19.5828C49.6152 19.2012 48.5402 19.0038 47.4557 19C44.101 19 41.7402 20.785 41.7192 23.3382C41.6982 25.2265 43.4045 26.2782 44.6908 26.9082C46.0138 27.5505 46.4583 27.9635 46.4513 28.5375C46.4425 29.4195 45.3978 29.8062 44.4212 29.822C42.715 29.8482 41.7262 29.3617 40.9353 28.9942L40.321 31.8677C41.1138 32.2317 42.5767 32.5502 44.094 32.5642C47.6587 32.5642 49.9915 30.8037 50.0037 28.0772ZM58.8605 32.3595H62L59.2612 19.2415H56.3633C56.0536 19.2386 55.7502 19.3289 55.4925 19.5005C55.2348 19.6721 55.0345 19.9172 54.9177 20.204L49.827 32.3595H53.39L54.0988 30.3995H58.4528L58.8605 32.3595ZM55.0752 27.7115L56.8602 22.7852L57.8892 27.7115H55.0752ZM40.7952 19.2415L37.99 32.3595H34.595L37.4037 19.2415H40.7952Z" fill="white"/>
<path d="M27.1787 160.755L29.21 154.891H30.2354L27.5986 162H26.7686L24.1367 154.891H25.1572L27.1787 160.755ZM32.1982 162H31.2607V154.891H32.1982V162ZM36.0117 158.831C35.2077 158.6 34.6217 158.317 34.2539 157.981C33.8893 157.643 33.707 157.226 33.707 156.731C33.707 156.172 33.93 155.709 34.376 155.345C34.8252 154.977 35.4079 154.793 36.124 154.793C36.6123 154.793 37.0469 154.887 37.4277 155.076C37.8118 155.265 38.1081 155.525 38.3164 155.857C38.528 156.189 38.6338 156.552 38.6338 156.946H37.6914C37.6914 156.517 37.5547 156.18 37.2812 155.936C37.0078 155.688 36.6221 155.564 36.124 155.564C35.6618 155.564 35.3005 155.667 35.04 155.872C34.7829 156.074 34.6543 156.355 34.6543 156.717C34.6543 157.007 34.7764 157.252 35.0205 157.454C35.2679 157.653 35.6862 157.835 36.2754 158.001C36.8678 158.167 37.3301 158.351 37.6621 158.553C37.9974 158.751 38.2448 158.984 38.4043 159.251C38.5671 159.518 38.6484 159.832 38.6484 160.193C38.6484 160.77 38.4238 161.232 37.9746 161.58C37.5254 161.925 36.9248 162.098 36.1729 162.098C35.6846 162.098 35.2288 162.005 34.8057 161.819C34.3825 161.631 34.0553 161.373 33.8242 161.048C33.5964 160.722 33.4824 160.353 33.4824 159.939H34.4248C34.4248 160.369 34.5827 160.709 34.8984 160.96C35.2174 161.207 35.6423 161.331 36.1729 161.331C36.6676 161.331 37.0469 161.23 37.3105 161.028C37.5742 160.826 37.7061 160.551 37.7061 160.203C37.7061 159.855 37.584 159.586 37.3398 159.397C37.0957 159.205 36.653 159.017 36.0117 158.831ZM43.7803 160.145H40.8018L40.1328 162H39.166L41.8809 154.891H42.7012L45.4209 162H44.459L43.7803 160.145ZM41.085 159.373H43.502L42.291 156.048L41.085 159.373ZM54.1074 161.067C53.8665 161.412 53.5296 161.671 53.0967 161.844C52.667 162.013 52.1657 162.098 51.5928 162.098C51.0133 162.098 50.499 161.963 50.0498 161.692C49.6006 161.419 49.2523 161.032 49.0049 160.53C48.7607 160.029 48.6354 159.448 48.6289 158.787V158.167C48.6289 157.096 48.8779 156.266 49.376 155.677C49.8773 155.088 50.5804 154.793 51.4854 154.793C52.2275 154.793 52.8249 154.983 53.2773 155.364C53.7298 155.742 54.0065 156.279 54.1074 156.976H53.1699C52.9941 156.035 52.4342 155.564 51.4902 155.564C50.862 155.564 50.3851 155.786 50.0596 156.229C49.7373 156.668 49.5745 157.306 49.5713 158.143V158.724C49.5713 159.521 49.7536 160.156 50.1182 160.628C50.4827 161.097 50.9759 161.331 51.5977 161.331C51.9492 161.331 52.2568 161.292 52.5205 161.214C52.7842 161.136 53.0023 161.004 53.1748 160.818V159.222H51.5293V158.46H54.1074V161.067ZM61.1436 158.675C61.1436 159.371 61.0264 159.98 60.792 160.501C60.5576 161.019 60.2256 161.414 59.7959 161.688C59.3662 161.961 58.8649 162.098 58.292 162.098C57.7321 162.098 57.2357 161.961 56.8027 161.688C56.3698 161.411 56.0329 161.019 55.792 160.511C55.5544 160 55.4323 159.409 55.4258 158.738V158.226C55.4258 157.542 55.5446 156.938 55.7822 156.414C56.0199 155.89 56.3551 155.49 56.7881 155.213C57.2243 154.933 57.7223 154.793 58.2822 154.793C58.8519 154.793 59.3532 154.931 59.7861 155.208C60.2223 155.481 60.5576 155.88 60.792 156.404C61.0264 156.925 61.1436 157.532 61.1436 158.226V158.675ZM60.2109 158.216C60.2109 157.373 60.0417 156.727 59.7031 156.277C59.3646 155.825 58.891 155.599 58.2822 155.599C57.6898 155.599 57.2227 155.825 56.8809 156.277C56.5423 156.727 56.3682 157.352 56.3584 158.152V158.675C56.3584 159.492 56.5293 160.135 56.8711 160.604C57.2161 161.069 57.6898 161.302 58.292 161.302C58.8975 161.302 59.3662 161.082 59.6982 160.643C60.0303 160.2 60.2012 159.567 60.2109 158.743V158.216ZM63.4922 161.233H66.8613V162H62.5498V154.891H63.4922V161.233ZM67.9307 162V154.891H69.9375C70.556 154.891 71.1029 155.027 71.5781 155.301C72.0534 155.574 72.4196 155.963 72.6768 156.468C72.9372 156.972 73.069 157.552 73.0723 158.206V158.66C73.0723 159.331 72.9421 159.918 72.6816 160.423C72.4245 160.927 72.055 161.315 71.5732 161.585C71.0947 161.855 70.5365 161.993 69.8984 162H67.9307ZM68.8682 155.662V161.233H69.8545C70.5771 161.233 71.1387 161.009 71.5391 160.56C71.9427 160.11 72.1445 159.471 72.1445 158.641V158.226C72.1445 157.418 71.9541 156.792 71.5732 156.346C71.1956 155.896 70.6585 155.669 69.9619 155.662H68.8682Z" fill="white"/>
<path d="M215.433 159.124H213.763V162H212.82V154.891H215.174C215.975 154.891 216.59 155.073 217.02 155.438C217.452 155.802 217.669 156.333 217.669 157.029C217.669 157.472 217.549 157.858 217.308 158.187C217.07 158.515 216.738 158.761 216.312 158.924L217.981 161.941V162H216.976L215.433 159.124ZM213.763 158.357H215.203C215.669 158.357 216.038 158.237 216.312 157.996C216.588 157.755 216.727 157.433 216.727 157.029C216.727 156.59 216.595 156.253 216.331 156.019C216.071 155.784 215.693 155.665 215.198 155.662H213.763V158.357ZM223.006 158.714H219.925V161.233H223.504V162H218.987V154.891H223.455V155.662H219.925V157.947H223.006V158.714ZM225.613 161.233H228.982V162H224.671V154.891H225.613V161.233ZM235.198 158.675C235.198 159.371 235.081 159.98 234.847 160.501C234.612 161.019 234.28 161.414 233.851 161.688C233.421 161.961 232.92 162.098 232.347 162.098C231.787 162.098 231.29 161.961 230.857 161.688C230.424 161.411 230.088 161.019 229.847 160.511C229.609 160 229.487 159.409 229.48 158.738V158.226C229.48 157.542 229.599 156.938 229.837 156.414C230.075 155.89 230.41 155.49 230.843 155.213C231.279 154.933 231.777 154.793 232.337 154.793C232.907 154.793 233.408 154.931 233.841 155.208C234.277 155.481 234.612 155.88 234.847 156.404C235.081 156.925 235.198 157.532 235.198 158.226V158.675ZM234.266 158.216C234.266 157.373 234.096 156.727 233.758 156.277C233.419 155.825 232.946 155.599 232.337 155.599C231.744 155.599 231.277 155.825 230.936 156.277C230.597 156.727 230.423 157.352 230.413 158.152V158.675C230.413 159.492 230.584 160.135 230.926 160.604C231.271 161.069 231.744 161.302 232.347 161.302C232.952 161.302 233.421 161.082 233.753 160.643C234.085 160.2 234.256 159.567 234.266 158.743V158.216ZM240.423 160.145H237.444L236.775 162H235.809L238.523 154.891H239.344L242.063 162H241.102L240.423 160.145ZM237.728 159.373H240.145L238.934 156.048L237.728 159.373ZM243.021 162V154.891H245.027C245.646 154.891 246.193 155.027 246.668 155.301C247.143 155.574 247.509 155.963 247.767 156.468C248.027 156.972 248.159 157.552 248.162 158.206V158.66C248.162 159.331 248.032 159.918 247.771 160.423C247.514 160.927 247.145 161.315 246.663 161.585C246.185 161.855 245.626 161.993 244.988 162H243.021ZM243.958 155.662V161.233H244.944C245.667 161.233 246.229 161.009 246.629 160.56C247.033 160.11 247.234 159.471 247.234 158.641V158.226C247.234 157.418 247.044 156.792 246.663 156.346C246.285 155.896 245.748 155.669 245.052 155.662H243.958ZM253.401 160.145H250.423L249.754 162H248.787L251.502 154.891H252.322L255.042 162H254.08L253.401 160.145ZM250.706 159.373H253.123L251.912 156.048L250.706 159.373ZM255.999 162V154.891H258.323C259.095 154.891 259.674 155.05 260.062 155.369C260.452 155.688 260.647 156.16 260.647 156.785C260.647 157.117 260.553 157.412 260.364 157.669C260.175 157.923 259.918 158.12 259.593 158.26C259.977 158.367 260.28 158.572 260.501 158.875C260.726 159.174 260.838 159.533 260.838 159.949C260.838 160.587 260.631 161.089 260.218 161.453C259.804 161.818 259.22 162 258.465 162H255.999ZM256.937 158.675V161.233H258.484C258.921 161.233 259.264 161.121 259.515 160.896C259.769 160.669 259.896 160.356 259.896 159.959C259.896 159.103 259.43 158.675 258.499 158.675H256.937ZM256.937 157.923H258.353C258.763 157.923 259.09 157.82 259.334 157.615C259.581 157.41 259.705 157.132 259.705 156.78C259.705 156.39 259.591 156.106 259.363 155.931C259.135 155.752 258.789 155.662 258.323 155.662H256.937V157.923ZM263.172 161.233H266.541V162H262.229V154.891H263.172V161.233ZM271.629 158.714H268.548V161.233H272.127V162H267.61V154.891H272.078V155.662H268.548V157.947H271.629V158.714Z" fill="white"/>
<path d="M209.149 16.2427V20H206.952V9.33594H211.112C211.913 9.33594 212.616 9.48242 213.222 9.77539C213.832 10.0684 214.301 10.4858 214.628 11.0278C214.955 11.5649 215.119 12.1777 215.119 12.8662C215.119 13.9111 214.76 14.7363 214.042 15.3418C213.329 15.9424 212.34 16.2427 211.076 16.2427H209.149ZM209.149 14.4629H211.112C211.693 14.4629 212.135 14.3262 212.438 14.0527C212.746 13.7793 212.899 13.3887 212.899 12.8809C212.899 12.3584 212.746 11.936 212.438 11.6138C212.13 11.2915 211.706 11.1255 211.164 11.1157H209.149V14.4629ZM220.949 14.0601C220.661 14.021 220.407 14.0015 220.187 14.0015C219.386 14.0015 218.861 14.2725 218.612 14.8145V20H216.496V12.0752H218.495L218.554 13.02C218.979 12.2925 219.567 11.9287 220.319 11.9287C220.553 11.9287 220.773 11.9604 220.978 12.0239L220.949 14.0601ZM224.208 20H222.084V12.0752H224.208V20ZM221.959 10.0244C221.959 9.70703 222.064 9.4458 222.274 9.24072C222.489 9.03564 222.78 8.93311 223.146 8.93311C223.507 8.93311 223.795 9.03564 224.01 9.24072C224.225 9.4458 224.333 9.70703 224.333 10.0244C224.333 10.3467 224.223 10.6104 224.003 10.8154C223.788 11.0205 223.502 11.123 223.146 11.123C222.79 11.123 222.501 11.0205 222.282 10.8154C222.067 10.6104 221.959 10.3467 221.959 10.0244ZM229.254 18.4399C229.645 18.4399 229.962 18.3325 230.207 18.1177C230.451 17.9028 230.578 17.6172 230.587 17.2607H232.572C232.567 17.7979 232.421 18.291 232.133 18.7402C231.845 19.1846 231.449 19.5312 230.946 19.7803C230.448 20.0244 229.896 20.1465 229.291 20.1465C228.158 20.1465 227.265 19.7876 226.61 19.0698C225.956 18.3472 225.629 17.3511 225.629 16.0815V15.9424C225.629 14.7217 225.954 13.7476 226.603 13.02C227.252 12.2925 228.144 11.9287 229.276 11.9287C230.268 11.9287 231.061 12.2119 231.657 12.7783C232.257 13.3398 232.562 14.0894 232.572 15.0269H230.587C230.578 14.6167 230.451 14.2847 230.207 14.0308C229.962 13.772 229.64 13.6426 229.24 13.6426C228.747 13.6426 228.373 13.8232 228.119 14.1846C227.87 14.541 227.746 15.1221 227.746 15.9277V16.1475C227.746 16.9629 227.87 17.5488 228.119 17.9053C228.368 18.2617 228.747 18.4399 229.254 18.4399ZM237.428 20.1465C236.266 20.1465 235.319 19.79 234.586 19.0771C233.859 18.3643 233.495 17.4146 233.495 16.228V16.0229C233.495 15.2271 233.649 14.5166 233.957 13.8916C234.264 13.2617 234.699 12.7783 235.26 12.4414C235.827 12.0996 236.471 11.9287 237.194 11.9287C238.278 11.9287 239.13 12.2705 239.75 12.9541C240.375 13.6377 240.688 14.6069 240.688 15.8618V16.7261H235.641C235.709 17.2437 235.915 17.6587 236.256 17.9712C236.603 18.2837 237.04 18.4399 237.567 18.4399C238.383 18.4399 239.02 18.1445 239.479 17.5537L240.519 18.7183C240.202 19.1675 239.772 19.519 239.23 19.7729C238.688 20.022 238.087 20.1465 237.428 20.1465ZM237.187 13.6426C236.767 13.6426 236.425 13.7842 236.161 14.0674C235.902 14.3506 235.736 14.7559 235.663 15.2832H238.607V15.1147C238.598 14.646 238.471 14.2847 238.227 14.0308C237.982 13.772 237.636 13.6426 237.187 13.6426ZM251.366 16.2207H248.913C248.937 16.9385 249.127 17.478 249.484 17.8394C249.845 18.2007 250.404 18.3813 251.161 18.3813C251.674 18.3813 252.138 18.3057 252.553 18.1543L252.816 19.9268C252.211 20.0684 251.586 20.1392 250.941 20.1392C249.657 20.1392 248.639 19.7949 247.887 19.1064C247.14 18.4131 246.747 17.4512 246.708 16.2207H245.47V15.1074H246.708V14.1992H245.47V13.0859H246.723C246.806 11.8555 247.233 10.9009 248.004 10.2222C248.781 9.53857 249.809 9.19678 251.088 9.19678C251.601 9.19678 252.177 9.27246 252.816 9.42383L252.553 11.2036C252.094 11.0474 251.642 10.9692 251.198 10.9692C249.816 10.9692 249.059 11.6748 248.927 13.0859H251.366V14.1992H248.913V15.1074H251.366V16.2207ZM260.419 15.9863H261.627V17.6929H260.419V20H258.302V17.6929H253.93L253.834 16.3599L258.28 9.33594H260.419V15.9863ZM255.944 15.9863H258.302V12.2217L258.163 12.4634L255.944 15.9863ZM269.948 15.5908C269.948 17.0654 269.643 18.1934 269.032 18.9746C268.422 19.7559 267.528 20.1465 266.352 20.1465C265.189 20.1465 264.301 19.7632 263.686 18.9966C263.07 18.23 262.755 17.1313 262.741 15.7007V13.7378C262.741 12.2485 263.048 11.1182 263.664 10.3467C264.284 9.5752 265.175 9.18945 266.337 9.18945C267.499 9.18945 268.388 9.57275 269.003 10.3394C269.618 11.1011 269.933 12.1973 269.948 13.6279V15.5908ZM267.831 13.4375C267.831 12.5537 267.709 11.9116 267.465 11.5112C267.226 11.106 266.85 10.9033 266.337 10.9033C265.839 10.9033 265.47 11.0962 265.231 11.4819C264.997 11.8628 264.872 12.4609 264.857 13.2764V15.8691C264.857 16.7383 264.975 17.3853 265.209 17.8101C265.448 18.23 265.829 18.4399 266.352 18.4399C266.869 18.4399 267.243 18.2373 267.472 17.832C267.702 17.4268 267.821 16.8066 267.831 15.9717V13.4375Z" fill="white"/>
<path d="M193.498 7.28261L199.387 6.24419C200.152 6.10933 200.882 6.62003 201.016 7.38489L202.055 13.2741C202.12 13.6414 202.036 14.0193 201.822 14.3248L196.787 21.5159C196.341 22.1521 195.464 22.3067 194.828 21.8613L187.901 17.0105C187.264 16.5651 187.11 15.6882 187.555 15.052L192.59 7.86091C192.804 7.5554 193.131 7.34738 193.498 7.28261V7.28261ZM199.495 9.55699C199.361 8.79213 198.631 8.28143 197.866 8.4163C197.102 8.55116 196.591 9.28052 196.726 10.0454C196.861 10.8102 197.59 11.3209 198.355 11.1861C199.12 11.0512 199.63 10.3219 199.495 9.55699Z" fill="white"/>
</g>
<defs>
<radialGradient id="paint0_radial_237:77" cx="0" cy="0" r="1" gradientUnits="userSpaceOnUse" gradientTransform="translate(259.212 131.318) rotate(-160.383) scale(248.019 183.522)">
<stop offset="0.0833333" stop-color="#D2BB72"/>
<stop offset="0.375" stop-color="#D5D5D5"/>
<stop offset="0.634538" stop-color="#DCAE1F"/>
<stop offset="1" stop-color="#EC5700"/>
</radialGradient>
<radialGradient id="paint1_angular_237:77" cx="0" cy="0" r="1" gradientUnits="userSpaceOnUse" gradientTransform="translate(142.4 91.5) rotate(-90) scale(91.5 146.4)">
<stop offset="0.0833333" stop-color="white"/>
<stop offset="0.265625" stop-color="#DEA905"/>
<stop offset="0.46875" stop-color="white"/>
<stop offset="0.635417" stop-color="#DEA905"/>
<stop offset="0.791667" stop-color="white"/>
<stop offset="1" stop-color="#DEA905"/>
</radialGradient>
<radialGradient id="paint2_angular_237:77" cx="0" cy="0" r="1" gradientUnits="userSpaceOnUse" gradientTransform="translate(142.4 91.5) rotate(-90) scale(91.5 146.4)">
<stop offset="0.046875" stop-color="white" stop-opacity="0.72"/>
<stop offset="0.244792" stop-color="#DEA905"/>
<stop offset="0.421875" stop-color="white" stop-opacity="0.72"/>
<stop offset="0.625" stop-color="#DEA905"/>
<stop offset="0.802083" stop-color="white" stop-opacity="0.72"/>
<stop offset="1" stop-color="#DEA905"/>
</radialGradient>
<clipPath id="clip0_237:77">
<rect width="284" height="183" rx="10" fill="white"/>
</clipPath>
</defs>
</svg>
