<svg width="284" height="183" viewBox="0 0 284 183" fill="none" xmlns="http://www.w3.org/2000/svg">
<g clip-path="url(#clip0_243:116)">
<mask id="mask0_243:116" style="mask-type:alpha" maskUnits="userSpaceOnUse" x="-23" y="-13" width="331" height="209">
<path d="M308 -13H-23V196H308V-13Z" fill="white"/>
</mask>
<g mask="url(#mask0_243:116)">
<path d="M308 -13H-23V196H308V-13Z" fill="#102D6F"/>
<path fill-rule="evenodd" clip-rule="evenodd" d="M364 49C364 104.228 319.228 149 264 149C264 93.7715 308.772 49 364 49ZM164 249C164 193.772 208.772 149 264 149C264 204.228 219.228 249 164 249ZM264 149C208.772 149 164 104.228 164 49C219.228 49 264 93.7715 264 149ZM264 149C319.228 149 364 193.772 364 249C308.772 249 264 204.228 264 149Z" fill="#0C0A6E"/>
<path fill-rule="evenodd" clip-rule="evenodd" d="M-35 -13H119C119 29.5259 84.5259 64 42 64C-0.525917 64 -35 29.5259 -35 -13Z" fill="#1C19A9"/>
<path fill-rule="evenodd" clip-rule="evenodd" d="M42 64C66.3005 64 86 83.6995 86 108C86 132.301 66.3005 152 42 152C17.6995 152 -2 132.301 -2 108C-2 83.6995 17.6995 64 42 64Z" fill="#0C0A6F"/>
<path d="M24.9996 128.144C24.4956 128.144 24.0436 128.068 23.6436 127.916C23.2516 127.756 22.9196 127.532 22.6476 127.244C22.3756 126.948 22.1676 126.596 22.0236 126.188C21.8796 125.78 21.8076 125.324 21.8076 124.82C21.8076 124.236 21.8996 123.684 22.0836 123.164C22.2676 122.636 22.5036 122.152 22.7916 121.712C23.0876 121.264 23.4156 120.864 23.7756 120.512C24.1436 120.16 24.5076 119.864 24.8676 119.624H27.3516C26.8316 119.984 26.3636 120.332 25.9476 120.668C25.5396 120.996 25.1796 121.328 24.8676 121.664C24.5636 121.992 24.3116 122.332 24.1116 122.684C23.9196 123.036 23.7796 123.416 23.6916 123.824L23.7996 123.86C23.8716 123.7 23.9596 123.544 24.0636 123.392C24.1676 123.24 24.2956 123.108 24.4476 122.996C24.5996 122.876 24.7756 122.78 24.9756 122.708C25.1836 122.636 25.4236 122.6 25.6956 122.6C26.0476 122.6 26.3756 122.664 26.6796 122.792C26.9836 122.912 27.2436 123.088 27.4596 123.32C27.6836 123.544 27.8596 123.816 27.9876 124.136C28.1156 124.456 28.1796 124.816 28.1796 125.216C28.1796 125.64 28.1036 126.032 27.9516 126.392C27.7996 126.752 27.5836 127.064 27.3036 127.328C27.0316 127.584 26.6996 127.784 26.3076 127.928C25.9156 128.072 25.4796 128.144 24.9996 128.144ZM24.9876 126.74C25.4196 126.74 25.7476 126.628 25.9716 126.404C26.1956 126.172 26.3076 125.848 26.3076 125.432V125.264C26.3076 124.848 26.1916 124.532 25.9596 124.316C25.7356 124.092 25.4116 123.98 24.9876 123.98C24.5796 123.98 24.2596 124.092 24.0276 124.316C23.7956 124.532 23.6796 124.848 23.6796 125.264V125.432C23.6796 125.848 23.7876 126.172 24.0036 126.404C24.2276 126.628 24.5556 126.74 24.9876 126.74ZM39.2069 128H33.1829V126.356L35.8229 124.16C36.2789 123.768 36.6069 123.428 36.8069 123.14C37.0069 122.852 37.1069 122.548 37.1069 122.228V122.108C37.1069 121.756 37.0029 121.492 36.7949 121.316C36.5869 121.132 36.3069 121.04 35.9549 121.04C35.5549 121.04 35.2469 121.156 35.0309 121.388C34.8149 121.62 34.6629 121.896 34.5749 122.216L33.0029 121.616C33.0989 121.328 33.2309 121.056 33.3989 120.8C33.5669 120.536 33.7789 120.308 34.0349 120.116C34.2989 119.924 34.6029 119.772 34.9469 119.66C35.2909 119.54 35.6869 119.48 36.1349 119.48C36.5909 119.48 36.9989 119.544 37.3589 119.672C37.7189 119.8 38.0229 119.976 38.2709 120.2C38.5189 120.424 38.7069 120.692 38.8349 121.004C38.9629 121.308 39.0269 121.64 39.0269 122C39.0269 122.352 38.9669 122.676 38.8469 122.972C38.7349 123.26 38.5749 123.532 38.3669 123.788C38.1669 124.044 37.9269 124.292 37.6469 124.532C37.3749 124.772 37.0829 125.012 36.7709 125.252L35.1749 126.488H39.2069V128ZM44.8702 128V126.548H47.1262V120.932H47.0182L45.3142 123.164L44.1622 122.264L46.1662 119.624H48.9262V126.548H50.7022V128H44.8702ZM61.6815 122.804C61.6815 123.396 61.5895 123.952 61.4055 124.472C61.2215 124.992 60.9815 125.476 60.6855 125.924C60.3975 126.364 60.0695 126.76 59.7015 127.112C59.3415 127.464 58.9815 127.76 58.6215 128H56.1375C56.6575 127.64 57.1215 127.296 57.5295 126.968C57.9455 126.632 58.3055 126.3 58.6095 125.972C58.9215 125.636 59.1735 125.292 59.3655 124.94C59.5655 124.588 59.7095 124.208 59.7975 123.8L59.6895 123.764C59.6175 123.924 59.5255 124.08 59.4135 124.232C59.3095 124.384 59.1815 124.52 59.0295 124.64C58.8855 124.752 58.7095 124.844 58.5015 124.916C58.3015 124.988 58.0655 125.024 57.7935 125.024C57.4415 125.024 57.1135 124.964 56.8095 124.844C56.5055 124.716 56.2415 124.54 56.0175 124.316C55.8015 124.084 55.6295 123.808 55.5015 123.488C55.3735 123.168 55.3095 122.808 55.3095 122.408C55.3095 121.984 55.3855 121.592 55.5375 121.232C55.6895 120.872 55.9015 120.564 56.1735 120.308C56.4535 120.044 56.7895 119.84 57.1815 119.696C57.5735 119.552 58.0095 119.48 58.4895 119.48C58.9935 119.48 59.4415 119.56 59.8335 119.72C60.2335 119.872 60.5695 120.096 60.8415 120.392C61.1135 120.68 61.3215 121.028 61.4655 121.436C61.6095 121.844 61.6815 122.3 61.6815 122.804ZM58.5015 123.644C58.9095 123.644 59.2295 123.536 59.4615 123.32C59.6935 123.096 59.8095 122.776 59.8095 122.36V122.192C59.8095 121.776 59.6975 121.456 59.4735 121.232C59.2575 121 58.9335 120.884 58.5015 120.884C58.0695 120.884 57.7415 121 57.5175 121.232C57.2935 121.456 57.1815 121.776 57.1815 122.192V122.36C57.1815 122.776 57.2935 123.096 57.5175 123.32C57.7495 123.536 58.0775 123.644 58.5015 123.644ZM92.1234 128.144C91.6194 128.144 91.1714 128.084 90.7794 127.964C90.3874 127.836 90.0554 127.664 89.7834 127.448C89.5114 127.232 89.3034 126.976 89.1594 126.68C89.0234 126.376 88.9554 126.048 88.9554 125.696C88.9554 125.152 89.1114 124.716 89.4234 124.388C89.7354 124.052 90.1354 123.816 90.6234 123.68V123.584C90.2074 123.432 89.8674 123.2 89.6034 122.888C89.3394 122.576 89.2074 122.176 89.2074 121.688C89.2074 121.368 89.2714 121.072 89.3994 120.8C89.5274 120.528 89.7154 120.296 89.9634 120.104C90.2114 119.904 90.5154 119.752 90.8754 119.648C91.2354 119.536 91.6514 119.48 92.1234 119.48C92.5874 119.48 92.9994 119.536 93.3594 119.648C93.7274 119.752 94.0354 119.904 94.2834 120.104C94.5314 120.296 94.7194 120.528 94.8474 120.8C94.9754 121.072 95.0394 121.368 95.0394 121.688C95.0394 122.176 94.9074 122.576 94.6434 122.888C94.3794 123.2 94.0394 123.432 93.6234 123.584V123.68C94.1114 123.816 94.5114 124.052 94.8234 124.388C95.1354 124.716 95.2914 125.152 95.2914 125.696C95.2914 126.048 95.2194 126.376 95.0754 126.68C94.9394 126.976 94.7354 127.232 94.4634 127.448C94.1914 127.664 93.8594 127.836 93.4674 127.964C93.0754 128.084 92.6274 128.144 92.1234 128.144ZM92.1234 126.764C92.5394 126.764 92.8554 126.668 93.0714 126.476C93.2954 126.284 93.4074 126.024 93.4074 125.696V125.456C93.4074 125.12 93.2994 124.86 93.0834 124.676C92.8674 124.484 92.5474 124.388 92.1234 124.388C91.6994 124.388 91.3794 124.484 91.1634 124.676C90.9474 124.86 90.8394 125.12 90.8394 125.456V125.696C90.8394 126.024 90.9474 126.284 91.1634 126.476C91.3874 126.668 91.7074 126.764 92.1234 126.764ZM92.1234 123.068C92.5234 123.068 92.8274 122.976 93.0354 122.792C93.2434 122.608 93.3474 122.36 93.3474 122.048V121.868C93.3474 121.556 93.2394 121.312 93.0234 121.136C92.8154 120.952 92.5154 120.86 92.1234 120.86C91.7314 120.86 91.4274 120.952 91.2114 121.136C91.0034 121.312 90.8994 121.556 90.8994 121.868V122.048C90.8994 122.36 91.0034 122.608 91.2114 122.792C91.4194 122.976 91.7234 123.068 92.1234 123.068ZM103.367 128.144C102.863 128.144 102.411 128.068 102.011 127.916C101.619 127.756 101.287 127.532 101.015 127.244C100.743 126.948 100.535 126.596 100.391 126.188C100.247 125.78 100.175 125.324 100.175 124.82C100.175 124.236 100.267 123.684 100.451 123.164C100.635 122.636 100.871 122.152 101.159 121.712C101.455 121.264 101.783 120.864 102.143 120.512C102.511 120.16 102.875 119.864 103.235 119.624H105.719C105.199 119.984 104.731 120.332 104.315 120.668C103.907 120.996 103.547 121.328 103.235 121.664C102.931 121.992 102.679 122.332 102.479 122.684C102.287 123.036 102.147 123.416 102.059 123.824L102.167 123.86C102.239 123.7 102.327 123.544 102.431 123.392C102.535 123.24 102.663 123.108 102.815 122.996C102.967 122.876 103.143 122.78 103.343 122.708C103.551 122.636 103.791 122.6 104.063 122.6C104.415 122.6 104.743 122.664 105.047 122.792C105.351 122.912 105.611 123.088 105.827 123.32C106.051 123.544 106.227 123.816 106.355 124.136C106.483 124.456 106.547 124.816 106.547 125.216C106.547 125.64 106.471 126.032 106.319 126.392C106.167 126.752 105.951 127.064 105.671 127.328C105.399 127.584 105.067 127.784 104.675 127.928C104.283 128.072 103.847 128.144 103.367 128.144ZM103.355 126.74C103.787 126.74 104.115 126.628 104.339 126.404C104.563 126.172 104.675 125.848 104.675 125.432V125.264C104.675 124.848 104.559 124.532 104.327 124.316C104.103 124.092 103.779 123.98 103.355 123.98C102.947 123.98 102.627 124.092 102.395 124.316C102.163 124.532 102.047 124.848 102.047 125.264V125.432C102.047 125.848 102.155 126.172 102.371 126.404C102.595 126.628 102.923 126.74 103.355 126.74ZM112.042 128V126.548H114.298V120.932H114.19L112.486 123.164L111.334 122.264L113.338 119.624H116.098V126.548H117.874V128H112.042ZM125.709 128.144C124.589 128.144 123.761 127.764 123.225 127.004C122.697 126.244 122.433 125.18 122.433 123.812C122.433 122.444 122.697 121.38 123.225 120.62C123.761 119.86 124.589 119.48 125.709 119.48C126.829 119.48 127.653 119.86 128.181 120.62C128.717 121.38 128.985 122.444 128.985 123.812C128.985 125.18 128.717 126.244 128.181 127.004C127.653 127.764 126.829 128.144 125.709 128.144ZM125.709 126.728C126.245 126.728 126.617 126.54 126.825 126.164C127.041 125.788 127.149 125.264 127.149 124.592V123.032C127.149 122.36 127.041 121.836 126.825 121.46C126.617 121.084 126.245 120.896 125.709 120.896C125.173 120.896 124.797 121.084 124.581 121.46C124.373 121.836 124.269 122.36 124.269 123.032V124.592C124.269 125.264 124.373 125.788 124.581 126.164C124.797 126.54 125.173 126.728 125.709 126.728ZM125.709 124.52C125.429 124.52 125.233 124.464 125.121 124.352C125.017 124.24 124.965 124.104 124.965 123.944V123.68C124.965 123.52 125.017 123.384 125.121 123.272C125.233 123.16 125.429 123.104 125.709 123.104C125.989 123.104 126.181 123.16 126.285 123.272C126.397 123.384 126.453 123.52 126.453 123.68V123.944C126.453 124.104 126.397 124.24 126.285 124.352C126.181 124.464 125.989 124.52 125.709 124.52ZM162.355 128H156.331V126.356L158.971 124.16C159.427 123.768 159.755 123.428 159.955 123.14C160.155 122.852 160.255 122.548 160.255 122.228V122.108C160.255 121.756 160.151 121.492 159.943 121.316C159.735 121.132 159.455 121.04 159.103 121.04C158.703 121.04 158.395 121.156 158.179 121.388C157.963 121.62 157.811 121.896 157.723 122.216L156.151 121.616C156.247 121.328 156.379 121.056 156.547 120.8C156.715 120.536 156.927 120.308 157.183 120.116C157.447 119.924 157.751 119.772 158.095 119.66C158.439 119.54 158.835 119.48 159.283 119.48C159.739 119.48 160.147 119.544 160.507 119.672C160.867 119.8 161.171 119.976 161.419 120.2C161.667 120.424 161.855 120.692 161.983 121.004C162.111 121.308 162.175 121.64 162.175 122C162.175 122.352 162.115 122.676 161.995 122.972C161.883 123.26 161.723 123.532 161.515 123.788C161.315 124.044 161.075 124.292 160.795 124.532C160.523 124.772 160.231 125.012 159.919 125.252L158.323 126.488H162.355V128ZM170.491 128.144C169.987 128.144 169.539 128.084 169.147 127.964C168.755 127.836 168.423 127.664 168.151 127.448C167.879 127.232 167.671 126.976 167.527 126.68C167.391 126.376 167.323 126.048 167.323 125.696C167.323 125.152 167.479 124.716 167.791 124.388C168.103 124.052 168.503 123.816 168.991 123.68V123.584C168.575 123.432 168.235 123.2 167.971 122.888C167.707 122.576 167.575 122.176 167.575 121.688C167.575 121.368 167.639 121.072 167.767 120.8C167.895 120.528 168.083 120.296 168.331 120.104C168.579 119.904 168.883 119.752 169.243 119.648C169.603 119.536 170.019 119.48 170.491 119.48C170.955 119.48 171.367 119.536 171.727 119.648C172.095 119.752 172.403 119.904 172.651 120.104C172.899 120.296 173.087 120.528 173.215 120.8C173.343 121.072 173.407 121.368 173.407 121.688C173.407 122.176 173.275 122.576 173.011 122.888C172.747 123.2 172.407 123.432 171.991 123.584V123.68C172.479 123.816 172.879 124.052 173.191 124.388C173.503 124.716 173.659 125.152 173.659 125.696C173.659 126.048 173.587 126.376 173.443 126.68C173.307 126.976 173.103 127.232 172.831 127.448C172.559 127.664 172.227 127.836 171.835 127.964C171.443 128.084 170.995 128.144 170.491 128.144ZM170.491 126.764C170.907 126.764 171.223 126.668 171.439 126.476C171.663 126.284 171.775 126.024 171.775 125.696V125.456C171.775 125.12 171.667 124.86 171.451 124.676C171.235 124.484 170.915 124.388 170.491 124.388C170.067 124.388 169.747 124.484 169.531 124.676C169.315 124.86 169.207 125.12 169.207 125.456V125.696C169.207 126.024 169.315 126.284 169.531 126.476C169.755 126.668 170.075 126.764 170.491 126.764ZM170.491 123.068C170.891 123.068 171.195 122.976 171.403 122.792C171.611 122.608 171.715 122.36 171.715 122.048V121.868C171.715 121.556 171.607 121.312 171.391 121.136C171.183 120.952 170.883 120.86 170.491 120.86C170.099 120.86 169.795 120.952 169.579 121.136C169.371 121.312 169.267 121.556 169.267 121.868V122.048C169.267 122.36 169.371 122.608 169.579 122.792C169.787 122.976 170.091 123.068 170.491 123.068ZM181.686 128.144C181.182 128.144 180.734 128.084 180.342 127.964C179.95 127.836 179.618 127.664 179.346 127.448C179.074 127.232 178.866 126.976 178.722 126.68C178.586 126.376 178.518 126.048 178.518 125.696C178.518 125.152 178.674 124.716 178.986 124.388C179.298 124.052 179.698 123.816 180.186 123.68V123.584C179.77 123.432 179.43 123.2 179.166 122.888C178.902 122.576 178.77 122.176 178.77 121.688C178.77 121.368 178.834 121.072 178.962 120.8C179.09 120.528 179.278 120.296 179.526 120.104C179.774 119.904 180.078 119.752 180.438 119.648C180.798 119.536 181.214 119.48 181.686 119.48C182.15 119.48 182.562 119.536 182.922 119.648C183.29 119.752 183.598 119.904 183.846 120.104C184.094 120.296 184.282 120.528 184.41 120.8C184.538 121.072 184.602 121.368 184.602 121.688C184.602 122.176 184.47 122.576 184.206 122.888C183.942 123.2 183.602 123.432 183.186 123.584V123.68C183.674 123.816 184.074 124.052 184.386 124.388C184.698 124.716 184.854 125.152 184.854 125.696C184.854 126.048 184.782 126.376 184.638 126.68C184.502 126.976 184.298 127.232 184.026 127.448C183.754 127.664 183.422 127.836 183.03 127.964C182.638 128.084 182.19 128.144 181.686 128.144ZM181.686 126.764C182.102 126.764 182.418 126.668 182.634 126.476C182.858 126.284 182.97 126.024 182.97 125.696V125.456C182.97 125.12 182.862 124.86 182.646 124.676C182.43 124.484 182.11 124.388 181.686 124.388C181.262 124.388 180.942 124.484 180.726 124.676C180.51 124.86 180.402 125.12 180.402 125.456V125.696C180.402 126.024 180.51 126.284 180.726 126.476C180.95 126.668 181.27 126.764 181.686 126.764ZM181.686 123.068C182.086 123.068 182.39 122.976 182.598 122.792C182.806 122.608 182.91 122.36 182.91 122.048V121.868C182.91 121.556 182.802 121.312 182.586 121.136C182.378 120.952 182.078 120.86 181.686 120.86C181.294 120.86 180.99 120.952 180.774 121.136C180.566 121.312 180.462 121.556 180.462 121.868V122.048C180.462 122.36 180.566 122.608 180.774 122.792C180.982 122.976 181.286 123.068 181.686 123.068ZM192.881 128.144C192.377 128.144 191.929 128.084 191.537 127.964C191.145 127.836 190.813 127.664 190.541 127.448C190.269 127.232 190.061 126.976 189.917 126.68C189.781 126.376 189.713 126.048 189.713 125.696C189.713 125.152 189.869 124.716 190.181 124.388C190.493 124.052 190.893 123.816 191.381 123.68V123.584C190.965 123.432 190.625 123.2 190.361 122.888C190.097 122.576 189.965 122.176 189.965 121.688C189.965 121.368 190.029 121.072 190.157 120.8C190.285 120.528 190.473 120.296 190.721 120.104C190.969 119.904 191.273 119.752 191.633 119.648C191.993 119.536 192.409 119.48 192.881 119.48C193.345 119.48 193.757 119.536 194.117 119.648C194.485 119.752 194.793 119.904 195.041 120.104C195.289 120.296 195.477 120.528 195.605 120.8C195.733 121.072 195.797 121.368 195.797 121.688C195.797 122.176 195.665 122.576 195.401 122.888C195.137 123.2 194.797 123.432 194.381 123.584V123.68C194.869 123.816 195.269 124.052 195.581 124.388C195.893 124.716 196.049 125.152 196.049 125.696C196.049 126.048 195.977 126.376 195.833 126.68C195.697 126.976 195.493 127.232 195.221 127.448C194.949 127.664 194.617 127.836 194.225 127.964C193.833 128.084 193.385 128.144 192.881 128.144ZM192.881 126.764C193.297 126.764 193.613 126.668 193.829 126.476C194.053 126.284 194.165 126.024 194.165 125.696V125.456C194.165 125.12 194.057 124.86 193.841 124.676C193.625 124.484 193.305 124.388 192.881 124.388C192.457 124.388 192.137 124.484 191.921 124.676C191.705 124.86 191.597 125.12 191.597 125.456V125.696C191.597 126.024 191.705 126.284 191.921 126.476C192.145 126.668 192.465 126.764 192.881 126.764ZM192.881 123.068C193.281 123.068 193.585 122.976 193.793 122.792C194.001 122.608 194.105 122.36 194.105 122.048V121.868C194.105 121.556 193.997 121.312 193.781 121.136C193.573 120.952 193.273 120.86 192.881 120.86C192.489 120.86 192.185 120.952 191.969 121.136C191.761 121.312 191.657 121.556 191.657 121.868V122.048C191.657 122.36 191.761 122.608 191.969 122.792C192.177 122.976 192.481 123.068 192.881 123.068ZM226.467 128.144C225.963 128.144 225.515 128.084 225.123 127.964C224.731 127.836 224.399 127.664 224.127 127.448C223.855 127.232 223.647 126.976 223.503 126.68C223.367 126.376 223.299 126.048 223.299 125.696C223.299 125.152 223.455 124.716 223.767 124.388C224.079 124.052 224.479 123.816 224.967 123.68V123.584C224.551 123.432 224.211 123.2 223.947 122.888C223.683 122.576 223.551 122.176 223.551 121.688C223.551 121.368 223.615 121.072 223.743 120.8C223.871 120.528 224.059 120.296 224.307 120.104C224.555 119.904 224.859 119.752 225.219 119.648C225.579 119.536 225.995 119.48 226.467 119.48C226.931 119.48 227.343 119.536 227.703 119.648C228.071 119.752 228.379 119.904 228.627 120.104C228.875 120.296 229.063 120.528 229.191 120.8C229.319 121.072 229.383 121.368 229.383 121.688C229.383 122.176 229.251 122.576 228.987 122.888C228.723 123.2 228.383 123.432 227.967 123.584V123.68C228.455 123.816 228.855 124.052 229.167 124.388C229.479 124.716 229.635 125.152 229.635 125.696C229.635 126.048 229.563 126.376 229.419 126.68C229.283 126.976 229.079 127.232 228.807 127.448C228.535 127.664 228.203 127.836 227.811 127.964C227.419 128.084 226.971 128.144 226.467 128.144ZM226.467 126.764C226.883 126.764 227.199 126.668 227.415 126.476C227.639 126.284 227.751 126.024 227.751 125.696V125.456C227.751 125.12 227.643 124.86 227.427 124.676C227.211 124.484 226.891 124.388 226.467 124.388C226.043 124.388 225.723 124.484 225.507 124.676C225.291 124.86 225.183 125.12 225.183 125.456V125.696C225.183 126.024 225.291 126.284 225.507 126.476C225.731 126.668 226.051 126.764 226.467 126.764ZM226.467 123.068C226.867 123.068 227.171 122.976 227.379 122.792C227.587 122.608 227.691 122.36 227.691 122.048V121.868C227.691 121.556 227.583 121.312 227.367 121.136C227.159 120.952 226.859 120.86 226.467 120.86C226.075 120.86 225.771 120.952 225.555 121.136C225.347 121.312 225.243 121.556 225.243 121.868V122.048C225.243 122.36 225.347 122.608 225.555 122.792C225.763 122.976 226.067 123.068 226.467 123.068ZM237.663 128.144C236.543 128.144 235.715 127.764 235.179 127.004C234.651 126.244 234.387 125.18 234.387 123.812C234.387 122.444 234.651 121.38 235.179 120.62C235.715 119.86 236.543 119.48 237.663 119.48C238.783 119.48 239.607 119.86 240.135 120.62C240.671 121.38 240.939 122.444 240.939 123.812C240.939 125.18 240.671 126.244 240.135 127.004C239.607 127.764 238.783 128.144 237.663 128.144ZM237.663 126.728C238.199 126.728 238.571 126.54 238.779 126.164C238.995 125.788 239.103 125.264 239.103 124.592V123.032C239.103 122.36 238.995 121.836 238.779 121.46C238.571 121.084 238.199 120.896 237.663 120.896C237.127 120.896 236.751 121.084 236.535 121.46C236.327 121.836 236.223 122.36 236.223 123.032V124.592C236.223 125.264 236.327 125.788 236.535 126.164C236.751 126.54 237.127 126.728 237.663 126.728ZM237.663 124.52C237.383 124.52 237.187 124.464 237.075 124.352C236.971 124.24 236.919 124.104 236.919 123.944V123.68C236.919 123.52 236.971 123.384 237.075 123.272C237.187 123.16 237.383 123.104 237.663 123.104C237.943 123.104 238.135 123.16 238.239 123.272C238.351 123.384 238.407 123.52 238.407 123.68V123.944C238.407 124.104 238.351 124.24 238.239 124.352C238.135 124.464 237.943 124.52 237.663 124.52ZM247.226 128L250.106 121.088H247.394V122.612H245.87V119.624H251.894V121.184L249.122 128H247.226ZM262.753 121.196H258.877L258.685 123.848H258.793C258.881 123.656 258.981 123.48 259.093 123.32C259.205 123.152 259.337 123.012 259.489 122.9C259.641 122.78 259.817 122.688 260.017 122.624C260.217 122.56 260.445 122.528 260.701 122.528C261.045 122.528 261.369 122.588 261.673 122.708C261.985 122.828 262.257 123.004 262.489 123.236C262.729 123.46 262.917 123.74 263.053 124.076C263.189 124.404 263.257 124.776 263.257 125.192C263.257 125.616 263.185 126.008 263.041 126.368C262.897 126.728 262.685 127.04 262.405 127.304C262.133 127.568 261.793 127.776 261.385 127.928C260.977 128.072 260.513 128.144 259.993 128.144C259.585 128.144 259.221 128.1 258.901 128.012C258.581 127.924 258.297 127.808 258.049 127.664C257.809 127.512 257.597 127.34 257.413 127.148C257.237 126.948 257.085 126.744 256.957 126.536L258.265 125.504C258.361 125.664 258.461 125.816 258.565 125.96C258.677 126.104 258.801 126.232 258.937 126.344C259.081 126.448 259.237 126.532 259.405 126.596C259.581 126.652 259.781 126.68 260.005 126.68C260.453 126.68 260.789 126.56 261.013 126.32C261.245 126.072 261.361 125.744 261.361 125.336V125.24C261.361 124.848 261.245 124.54 261.013 124.316C260.781 124.092 260.461 123.98 260.053 123.98C259.717 123.98 259.437 124.048 259.213 124.184C258.997 124.312 258.833 124.44 258.721 124.568L257.245 124.364L257.557 119.624H262.753V121.196Z" fill="white"/>
<path d="M35.946 19.2415L30.4475 32.3595H26.86L24.1545 21.8892C23.99 21.2452 23.8482 21.009 23.3477 20.7377C22.5322 20.295 21.1847 19.8803 20 19.6213L20.0805 19.2415H25.8555C26.2329 19.2411 26.598 19.3757 26.8849 19.6208C27.1718 19.866 27.3616 20.2057 27.42 20.5785L28.8498 28.17L32.3812 19.2415H35.946ZM50.0037 28.0772C50.0178 24.614 45.2158 24.4232 45.249 22.8762C45.2595 22.4055 45.7075 21.905 46.6875 21.7773C47.836 21.6682 48.9927 21.8713 50.0352 22.3653L50.6303 19.5828C49.6152 19.2012 48.5402 19.0038 47.4557 19C44.101 19 41.7402 20.785 41.7192 23.3382C41.6982 25.2265 43.4045 26.2782 44.6908 26.9082C46.0138 27.5505 46.4583 27.9635 46.4513 28.5375C46.4425 29.4195 45.3978 29.8062 44.4212 29.822C42.715 29.8482 41.7262 29.3617 40.9353 28.9942L40.321 31.8677C41.1138 32.2317 42.5767 32.5502 44.094 32.5642C47.6587 32.5642 49.9915 30.8037 50.0037 28.0772ZM58.8605 32.3595H62L59.2612 19.2415H56.3633C56.0536 19.2386 55.7502 19.3289 55.4925 19.5005C55.2348 19.6721 55.0345 19.9172 54.9177 20.204L49.827 32.3595H53.39L54.0988 30.3995H58.4528L58.8605 32.3595ZM55.0752 27.7115L56.8602 22.7852L57.8892 27.7115H55.0752ZM40.7952 19.2415L37.99 32.3595H34.595L37.4037 19.2415H40.7952Z" fill="white"/>
<path d="M23.1787 160.755L25.21 154.891H26.2354L23.5986 162H22.7686L20.1367 154.891H21.1572L23.1787 160.755ZM28.1982 162H27.2607V154.891H28.1982V162ZM32.0117 158.831C31.2077 158.6 30.6217 158.317 30.2539 157.981C29.8893 157.643 29.707 157.226 29.707 156.731C29.707 156.172 29.93 155.709 30.376 155.345C30.8252 154.977 31.4079 154.793 32.124 154.793C32.6123 154.793 33.0469 154.887 33.4277 155.076C33.8118 155.265 34.1081 155.525 34.3164 155.857C34.528 156.189 34.6338 156.552 34.6338 156.946H33.6914C33.6914 156.517 33.5547 156.18 33.2812 155.936C33.0078 155.688 32.6221 155.564 32.124 155.564C31.6618 155.564 31.3005 155.667 31.04 155.872C30.7829 156.074 30.6543 156.355 30.6543 156.717C30.6543 157.007 30.7764 157.252 31.0205 157.454C31.2679 157.653 31.6862 157.835 32.2754 158.001C32.8678 158.167 33.3301 158.351 33.6621 158.553C33.9974 158.751 34.2448 158.984 34.4043 159.251C34.5671 159.518 34.6484 159.832 34.6484 160.193C34.6484 160.77 34.4238 161.232 33.9746 161.58C33.5254 161.925 32.9248 162.098 32.1729 162.098C31.6846 162.098 31.2288 162.005 30.8057 161.819C30.3825 161.631 30.0553 161.373 29.8242 161.048C29.5964 160.722 29.4824 160.353 29.4824 159.939H30.4248C30.4248 160.369 30.5827 160.709 30.8984 160.96C31.2174 161.207 31.6423 161.331 32.1729 161.331C32.6676 161.331 33.0469 161.23 33.3105 161.028C33.5742 160.826 33.7061 160.551 33.7061 160.203C33.7061 159.855 33.584 159.586 33.3398 159.397C33.0957 159.205 32.653 159.017 32.0117 158.831ZM39.7803 160.145H36.8018L36.1328 162H35.166L37.8809 154.891H38.7012L41.4209 162H40.459L39.7803 160.145ZM37.085 159.373H39.502L38.291 156.048L37.085 159.373ZM45.8643 162H44.9268V154.891H45.8643V162ZM53.0469 162H52.1045L48.5254 156.521V162H47.583V154.891H48.5254L52.1143 160.394V154.891H53.0469V162ZM56.8066 158.831C56.0026 158.6 55.4167 158.317 55.0488 157.981C54.6842 157.643 54.502 157.226 54.502 156.731C54.502 156.172 54.7249 155.709 55.1709 155.345C55.6201 154.977 56.2028 154.793 56.9189 154.793C57.4072 154.793 57.8418 154.887 58.2227 155.076C58.6068 155.265 58.903 155.525 59.1113 155.857C59.3229 156.189 59.4287 156.552 59.4287 156.946H58.4863C58.4863 156.517 58.3496 156.18 58.0762 155.936C57.8027 155.688 57.417 155.564 56.9189 155.564C56.4567 155.564 56.0954 155.667 55.835 155.872C55.5778 156.074 55.4492 156.355 55.4492 156.717C55.4492 157.007 55.5713 157.252 55.8154 157.454C56.0628 157.653 56.4811 157.835 57.0703 158.001C57.6628 158.167 58.125 158.351 58.457 158.553C58.7923 158.751 59.0397 158.984 59.1992 159.251C59.362 159.518 59.4434 159.832 59.4434 160.193C59.4434 160.77 59.2188 161.232 58.7695 161.58C58.3203 161.925 57.7197 162.098 56.9678 162.098C56.4795 162.098 56.0238 162.005 55.6006 161.819C55.1774 161.631 54.8503 161.373 54.6191 161.048C54.3913 160.722 54.2773 160.353 54.2773 159.939H55.2197C55.2197 160.369 55.3776 160.709 55.6934 160.96C56.0124 161.207 56.4372 161.331 56.9678 161.331C57.4626 161.331 57.8418 161.23 58.1055 161.028C58.3691 160.826 58.501 160.551 58.501 160.203C58.501 159.855 58.3789 159.586 58.1348 159.397C57.8906 159.205 57.4479 159.017 56.8066 158.831ZM65.5615 155.662H63.2764V162H62.3438V155.662H60.0635V154.891H65.5615V155.662ZM70.1514 160.145H67.1729L66.5039 162H65.5371L68.252 154.891H69.0723L71.792 162H70.8301L70.1514 160.145ZM67.4561 159.373H69.873L68.6621 156.048L67.4561 159.373ZM78.2129 162H77.2705L73.6914 156.521V162H72.749V154.891H73.6914L77.2803 160.394V154.891H78.2129V162ZM84.6436 155.662H82.3584V162H81.4258V155.662H79.1455V154.891H84.6436V155.662Z" fill="white"/>
<path d="M212.433 159.124H210.763V162H209.82V154.891H212.174C212.975 154.891 213.59 155.073 214.02 155.438C214.452 155.802 214.669 156.333 214.669 157.029C214.669 157.472 214.549 157.858 214.308 158.187C214.07 158.515 213.738 158.761 213.312 158.924L214.981 161.941V162H213.976L212.433 159.124ZM210.763 158.357H212.203C212.669 158.357 213.038 158.237 213.312 157.996C213.588 157.755 213.727 157.433 213.727 157.029C213.727 156.59 213.595 156.253 213.331 156.019C213.071 155.784 212.693 155.665 212.198 155.662H210.763V158.357ZM220.006 158.714H216.925V161.233H220.504V162H215.987V154.891H220.455V155.662H216.925V157.947H220.006V158.714ZM222.613 161.233H225.982V162H221.671V154.891H222.613V161.233ZM232.198 158.675C232.198 159.371 232.081 159.98 231.847 160.501C231.612 161.019 231.28 161.414 230.851 161.688C230.421 161.961 229.92 162.098 229.347 162.098C228.787 162.098 228.29 161.961 227.857 161.688C227.424 161.411 227.088 161.019 226.847 160.511C226.609 160 226.487 159.409 226.48 158.738V158.226C226.48 157.542 226.599 156.938 226.837 156.414C227.075 155.89 227.41 155.49 227.843 155.213C228.279 154.933 228.777 154.793 229.337 154.793C229.907 154.793 230.408 154.931 230.841 155.208C231.277 155.481 231.612 155.88 231.847 156.404C232.081 156.925 232.198 157.532 232.198 158.226V158.675ZM231.266 158.216C231.266 157.373 231.096 156.727 230.758 156.277C230.419 155.825 229.946 155.599 229.337 155.599C228.744 155.599 228.277 155.825 227.936 156.277C227.597 156.727 227.423 157.352 227.413 158.152V158.675C227.413 159.492 227.584 160.135 227.926 160.604C228.271 161.069 228.744 161.302 229.347 161.302C229.952 161.302 230.421 161.082 230.753 160.643C231.085 160.2 231.256 159.567 231.266 158.743V158.216ZM237.423 160.145H234.444L233.775 162H232.809L235.523 154.891H236.344L239.063 162H238.102L237.423 160.145ZM234.728 159.373H237.145L235.934 156.048L234.728 159.373ZM240.021 162V154.891H242.027C242.646 154.891 243.193 155.027 243.668 155.301C244.143 155.574 244.509 155.963 244.767 156.468C245.027 156.972 245.159 157.552 245.162 158.206V158.66C245.162 159.331 245.032 159.918 244.771 160.423C244.514 160.927 244.145 161.315 243.663 161.585C243.185 161.855 242.626 161.993 241.988 162H240.021ZM240.958 155.662V161.233H241.944C242.667 161.233 243.229 161.009 243.629 160.56C244.033 160.11 244.234 159.471 244.234 158.641V158.226C244.234 157.418 244.044 156.792 243.663 156.346C243.285 155.896 242.748 155.669 242.052 155.662H240.958ZM250.401 160.145H247.423L246.754 162H245.787L248.502 154.891H249.322L252.042 162H251.08L250.401 160.145ZM247.706 159.373H250.123L248.912 156.048L247.706 159.373ZM252.999 162V154.891H255.323C256.095 154.891 256.674 155.05 257.062 155.369C257.452 155.688 257.647 156.16 257.647 156.785C257.647 157.117 257.553 157.412 257.364 157.669C257.175 157.923 256.918 158.12 256.593 158.26C256.977 158.367 257.28 158.572 257.501 158.875C257.726 159.174 257.838 159.533 257.838 159.949C257.838 160.587 257.631 161.089 257.218 161.453C256.804 161.818 256.22 162 255.465 162H252.999ZM253.937 158.675V161.233H255.484C255.921 161.233 256.264 161.121 256.515 160.896C256.769 160.669 256.896 160.356 256.896 159.959C256.896 159.103 256.43 158.675 255.499 158.675H253.937ZM253.937 157.923H255.353C255.763 157.923 256.09 157.82 256.334 157.615C256.581 157.41 256.705 157.132 256.705 156.78C256.705 156.39 256.591 156.106 256.363 155.931C256.135 155.752 255.789 155.662 255.323 155.662H253.937V157.923ZM260.172 161.233H263.541V162H259.229V154.891H260.172V161.233ZM268.629 158.714H265.548V161.233H269.127V162H264.61V154.891H269.078V155.662H265.548V157.947H268.629V158.714Z" fill="white"/>
<path d="M248.786 18.1948C248.786 17.7944 248.674 17.4771 248.449 17.2427C248.229 17.0034 247.854 16.7837 247.321 16.5835C246.789 16.3833 246.33 16.1855 245.944 15.9902C245.559 15.79 245.227 15.563 244.948 15.3091C244.675 15.0503 244.46 14.7476 244.304 14.4009C244.152 14.0542 244.077 13.6416 244.077 13.1631C244.077 12.3379 244.34 11.6616 244.868 11.1343C245.395 10.6069 246.096 10.2993 246.97 10.2114V8.64404H248.142V10.2334C249.006 10.3555 249.682 10.7168 250.17 11.3174C250.659 11.9131 250.903 12.687 250.903 13.6392H248.786C248.786 13.0532 248.664 12.6162 248.42 12.3281C248.181 12.0352 247.858 11.8887 247.453 11.8887C247.053 11.8887 246.743 12.0034 246.523 12.2329C246.303 12.4575 246.193 12.77 246.193 13.1704C246.193 13.5415 246.301 13.8394 246.516 14.064C246.73 14.2886 247.128 14.5181 247.709 14.7524C248.295 14.9868 248.776 15.209 249.152 15.4189C249.528 15.624 249.846 15.8584 250.104 16.1221C250.363 16.3809 250.561 16.6787 250.698 17.0156C250.834 17.3477 250.903 17.7358 250.903 18.1802C250.903 19.0103 250.644 19.6841 250.126 20.2017C249.609 20.7192 248.896 21.0244 247.988 21.1172V22.5747H246.823V21.1245C245.822 21.0171 245.046 20.6631 244.494 20.0625C243.947 19.457 243.674 18.6538 243.674 17.6528H245.791C245.791 18.2339 245.927 18.6807 246.201 18.9932C246.479 19.3008 246.877 19.4546 247.395 19.4546C247.824 19.4546 248.164 19.3423 248.413 19.1177C248.662 18.8882 248.786 18.5806 248.786 18.1948ZM254.492 14.7305H255.62C256.157 14.7305 256.555 14.5962 256.813 14.3276C257.072 14.0591 257.202 13.7026 257.202 13.2583C257.202 12.8286 257.072 12.4941 256.813 12.2549C256.56 12.0156 256.208 11.896 255.759 11.896C255.354 11.896 255.014 12.0083 254.741 12.2329C254.467 12.4526 254.331 12.7407 254.331 13.0972H252.214C252.214 12.5405 252.363 12.0425 252.661 11.603C252.963 11.1587 253.383 10.812 253.92 10.563C254.462 10.314 255.058 10.1895 255.708 10.1895C256.835 10.1895 257.719 10.4604 258.359 11.0024C258.999 11.5396 259.318 12.2817 259.318 13.229C259.318 13.7173 259.169 14.1665 258.872 14.5767C258.574 14.9868 258.183 15.3018 257.7 15.5215C258.3 15.7363 258.747 16.0586 259.04 16.4883C259.338 16.918 259.487 17.4258 259.487 18.0117C259.487 18.959 259.14 19.7183 258.447 20.2896C257.758 20.8608 256.845 21.1465 255.708 21.1465C254.643 21.1465 253.771 20.8657 253.093 20.3042C252.419 19.7427 252.082 19.0005 252.082 18.0776H254.199C254.199 18.478 254.348 18.8052 254.646 19.0591C254.948 19.313 255.319 19.4399 255.759 19.4399C256.262 19.4399 256.655 19.3081 256.938 19.0444C257.226 18.7759 257.37 18.4219 257.37 17.9824C257.37 16.918 256.784 16.3857 255.612 16.3857H254.492V14.7305ZM268.261 21H260.952V19.5498L264.401 15.873C264.875 15.3555 265.224 14.9038 265.449 14.5181C265.678 14.1323 265.793 13.7661 265.793 13.4194C265.793 12.9458 265.673 12.5747 265.434 12.3062C265.195 12.0327 264.853 11.896 264.409 11.896C263.93 11.896 263.552 12.062 263.273 12.394C263 12.7212 262.863 13.1533 262.863 13.6904H260.739C260.739 13.041 260.893 12.4478 261.201 11.9106C261.513 11.3735 261.953 10.9536 262.519 10.6509C263.085 10.3433 263.728 10.1895 264.445 10.1895C265.544 10.1895 266.396 10.4531 267.001 10.9805C267.612 11.5078 267.917 12.2524 267.917 13.2144C267.917 13.7417 267.78 14.2788 267.507 14.8257C267.233 15.3726 266.765 16.0098 266.101 16.7373L263.676 19.2935H268.261V21Z" fill="white"/>
<path d="M206.149 17.2427V21H203.952V10.3359H208.112C208.913 10.3359 209.616 10.4824 210.222 10.7754C210.832 11.0684 211.301 11.4858 211.628 12.0278C211.955 12.5649 212.119 13.1777 212.119 13.8662C212.119 14.9111 211.76 15.7363 211.042 16.3418C210.329 16.9424 209.34 17.2427 208.076 17.2427H206.149ZM206.149 15.4629H208.112C208.693 15.4629 209.135 15.3262 209.438 15.0527C209.746 14.7793 209.899 14.3887 209.899 13.8809C209.899 13.3584 209.746 12.936 209.438 12.6138C209.13 12.2915 208.706 12.1255 208.164 12.1157H206.149V15.4629ZM217.949 15.0601C217.661 15.021 217.407 15.0015 217.187 15.0015C216.386 15.0015 215.861 15.2725 215.612 15.8145V21H213.496V13.0752H215.495L215.554 14.02C215.979 13.2925 216.567 12.9287 217.319 12.9287C217.553 12.9287 217.773 12.9604 217.978 13.0239L217.949 15.0601ZM221.208 21H219.084V13.0752H221.208V21ZM218.959 11.0244C218.959 10.707 219.064 10.4458 219.274 10.2407C219.489 10.0356 219.78 9.93311 220.146 9.93311C220.507 9.93311 220.795 10.0356 221.01 10.2407C221.225 10.4458 221.333 10.707 221.333 11.0244C221.333 11.3467 221.223 11.6104 221.003 11.8154C220.788 12.0205 220.502 12.123 220.146 12.123C219.79 12.123 219.501 12.0205 219.282 11.8154C219.067 11.6104 218.959 11.3467 218.959 11.0244ZM226.254 19.4399C226.645 19.4399 226.962 19.3325 227.207 19.1177C227.451 18.9028 227.578 18.6172 227.587 18.2607H229.572C229.567 18.7979 229.421 19.291 229.133 19.7402C228.845 20.1846 228.449 20.5312 227.946 20.7803C227.448 21.0244 226.896 21.1465 226.291 21.1465C225.158 21.1465 224.265 20.7876 223.61 20.0698C222.956 19.3472 222.629 18.3511 222.629 17.0815V16.9424C222.629 15.7217 222.954 14.7476 223.603 14.02C224.252 13.2925 225.144 12.9287 226.276 12.9287C227.268 12.9287 228.061 13.2119 228.657 13.7783C229.257 14.3398 229.562 15.0894 229.572 16.0269H227.587C227.578 15.6167 227.451 15.2847 227.207 15.0308C226.962 14.772 226.64 14.6426 226.24 14.6426C225.747 14.6426 225.373 14.8232 225.119 15.1846C224.87 15.541 224.746 16.1221 224.746 16.9277V17.1475C224.746 17.9629 224.87 18.5488 225.119 18.9053C225.368 19.2617 225.747 19.4399 226.254 19.4399ZM234.428 21.1465C233.266 21.1465 232.319 20.79 231.586 20.0771C230.859 19.3643 230.495 18.4146 230.495 17.228V17.0229C230.495 16.2271 230.649 15.5166 230.957 14.8916C231.264 14.2617 231.699 13.7783 232.26 13.4414C232.827 13.0996 233.471 12.9287 234.194 12.9287C235.278 12.9287 236.13 13.2705 236.75 13.9541C237.375 14.6377 237.688 15.6069 237.688 16.8618V17.7261H232.641C232.709 18.2437 232.915 18.6587 233.256 18.9712C233.603 19.2837 234.04 19.4399 234.567 19.4399C235.383 19.4399 236.02 19.1445 236.479 18.5537L237.519 19.7183C237.202 20.1675 236.772 20.519 236.23 20.7729C235.688 21.022 235.087 21.1465 234.428 21.1465ZM234.187 14.6426C233.767 14.6426 233.425 14.7842 233.161 15.0674C232.902 15.3506 232.736 15.7559 232.663 16.2832H235.607V16.1147C235.598 15.646 235.471 15.2847 235.227 15.0308C234.982 14.772 234.636 14.6426 234.187 14.6426Z" fill="white"/>
<path d="M192.498 8.28261L198.387 7.24419C199.152 7.10933 199.882 7.62003 200.016 8.38489L201.055 14.2741C201.12 14.6414 201.036 15.0193 200.822 15.3248L195.787 22.5159C195.341 23.1521 194.464 23.3067 193.828 22.8613L186.901 18.0105C186.264 17.5651 186.11 16.6882 186.555 16.052L191.59 8.86091C191.804 8.5554 192.131 8.34738 192.498 8.28261V8.28261ZM198.495 10.557C198.361 9.79213 197.631 9.28143 196.866 9.4163C196.102 9.55116 195.591 10.2805 195.726 11.0454C195.861 11.8102 196.59 12.3209 197.355 12.1861C198.12 12.0512 198.63 11.3219 198.495 10.557Z" fill="white"/>
</g>
</g>
<defs>
<clipPath id="clip0_243:116">
<rect width="284" height="183" rx="10" fill="white"/>
</clipPath>
</defs>
</svg>
