<svg width="18" height="20" viewBox="0 0 18 20" fill="none" xmlns="http://www.w3.org/2000/svg">
<g clip-path="url(#clip0)">
<path d="M2.08496 18.6872L16.0511 18.6872C16.9753 18.6872 17.7271 17.8369 17.7271 16.7916V7.31373C17.7271 6.26848 16.9753 5.41816 16.0511 5.41816L11.0233 5.41816C10.7148 5.41816 10.4647 5.70103 10.4647 6.05002C10.4647 6.399 10.7148 6.68188 11.0233 6.68188L13.298 6.68188C13.5437 8.61603 14.8997 10.1498 16.6098 10.4277V13.6777C14.8997 13.9556 13.5437 15.4893 13.298 17.4235H4.83814C4.59244 15.4893 3.23637 13.9556 1.52635 13.6777V10.4277C3.2364 10.1498 4.59244 8.61603 4.83814 6.68188H7.11277C7.42132 6.68188 7.67142 6.399 7.67142 6.05002C7.67142 5.70103 7.42132 5.41816 7.11277 5.41816H2.08496C1.16082 5.41816 0.409021 6.26848 0.409021 7.31373V16.7916C0.409021 17.8369 1.16082 18.6872 2.08496 18.6872ZM14.4314 6.68188H16.0511C16.3591 6.68188 16.6098 6.96534 16.6098 7.31373V9.14573C15.5169 8.89382 14.6541 7.91795 14.4314 6.68188ZM16.6098 14.9596V16.7916C16.6098 17.14 16.3591 17.4235 16.0511 17.4235H14.4314C14.6541 16.1874 15.5169 15.2115 16.6098 14.9596ZM3.70469 17.4235H2.08496C1.77694 17.4235 1.52631 17.14 1.52631 16.7916V14.9596C2.61917 15.2115 3.48196 16.1874 3.70469 17.4235ZM2.08496 6.68188H3.70469C3.48196 7.91795 2.61917 8.89382 1.52631 9.14573V7.31373C1.52631 6.96534 1.77694 6.68188 2.08496 6.68188ZM5.99548 12.0527C5.99548 13.9689 7.37384 15.5279 9.06804 15.5279C10.7622 15.5279 12.1406 13.9689 12.1406 12.0527C12.1406 10.1364 10.7622 8.57745 9.06804 8.57745C7.37384 8.57745 5.99548 10.1364 5.99548 12.0527ZM11.0233 12.0527C11.0233 13.2721 10.1462 14.2642 9.06804 14.2642C7.98988 14.2642 7.11277 13.2721 7.11277 12.0527C7.11277 10.8332 7.98988 9.84117 9.06804 9.84117C10.1462 9.84117 11.0233 10.8332 11.0233 12.0527ZM13.5372 12.6845C13.2287 12.6845 12.9786 12.4017 12.9786 12.0527C12.9786 11.7037 13.2287 11.4208 13.5372 11.4208H13.8165C14.1251 11.4208 14.3752 11.7037 14.3752 12.0527C14.3752 12.4017 14.1251 12.6845 13.8165 12.6845H13.5372ZM4.59887 11.4208C4.90742 11.4208 5.15751 11.7037 5.15751 12.0527C5.15751 12.4017 4.90742 12.6845 4.59887 12.6845H4.31954C4.011 12.6845 3.7609 12.4017 3.7609 12.0527C3.7609 11.7037 4.011 11.4208 4.31954 11.4208H4.59887ZM7.52083 3.65341C7.30265 3.40667 7.30265 3.00659 7.52083 2.75985L8.67304 1.45664C8.89123 1.20986 9.24492 1.2099 9.46307 1.45664L10.6153 2.75985C10.8335 3.00659 10.8335 3.40667 10.6153 3.65341C10.3971 3.90016 10.0434 3.90016 9.82525 3.65341L9.62668 3.42883V6.44493C9.62668 6.79391 9.37658 7.07679 9.06804 7.07679C8.75949 7.07679 8.50939 6.79391 8.50939 6.44493V3.42887L8.31083 3.65345C8.09268 3.9002 7.73898 3.90019 7.52083 3.65341Z" fill="#102D6F"/>
</g>
<defs>
<clipPath id="clip0">
<rect width="17.318" height="19.5876" fill="white" transform="translate(17.7271 19.7732) rotate(-180)"/>
</clipPath>
</defs>
</svg>
