<svg width="24" height="24" viewBox="0 0 24 24" fill="none" xmlns="http://www.w3.org/2000/svg">
<path d="M20 17.8564C17.5677 19.2607 14.8086 20 12 20C9.19141 20 6.43231 19.2607 4 17.8564L12 4L20 17.8564Z" stroke="#102D6F"/>
<path d="M20 17.8564C17.5677 19.2607 14.8086 20 12 20C9.19141 20 6.43231 19.2607 4 17.8564L12 4L20 17.8564Z" stroke="#102D6F"/>
<path d="M5.49902 15.2602C7.4114 16.3667 9.63179 17 12.0001 17C14.3684 17 16.5888 16.3667 18.5012 15.2602" stroke="#102D6F"/>
<circle cx="10" cy="14" r="1" fill="#102D6F"/>
<circle cx="13" cy="13" r="1" fill="#102D6F"/>
<circle cx="12" cy="10" r="1" fill="#102D6F"/>
</svg>
