<svg width="130" height="130" viewBox="0 0 130 130" fill="none" xmlns="http://www.w3.org/2000/svg">
<g id="chat">
<path id="Combined Shape" d="M47.796 100.685L47.9254 100.202C47.8073 100.171 47.6817 100.183 47.5724 100.238L47.796 100.685ZM21.6667 113.75L21.1717 113.679C21.1454 113.863 21.2234 114.047 21.3743 114.156C21.5252 114.264 21.7239 114.28 21.8903 114.197L21.6667 113.75ZM25.205 88.9817L25.7 89.0524C25.724 88.8841 25.6609 88.715 25.5323 88.6037L25.205 88.9817ZM65 103.417C95.0817 103.417 119.667 83.8902 119.667 59.5833H118.667C118.667 83.1412 94.7492 102.417 65 102.417V103.417ZM47.6667 101.168C53.1142 102.627 58.9427 103.417 65 103.417V102.417C59.0295 102.417 53.288 101.638 47.9254 100.202L47.6667 101.168ZM21.8903 114.197L48.0196 101.133L47.5724 100.238L21.4431 113.303L21.8903 114.197ZM24.71 88.911L21.1717 113.679L22.1616 113.821L25.7 89.0524L24.71 88.911ZM10.3333 59.5833C10.3333 71.0987 15.8668 81.5571 24.8777 89.3597L25.5323 88.6037C16.7014 80.957 11.3333 70.7602 11.3333 59.5833H10.3333ZM65 15.75C34.9183 15.75 10.3333 35.2765 10.3333 59.5833H11.3333C11.3333 36.0255 35.2508 16.75 65 16.75V15.75ZM119.667 59.5833C119.667 35.2765 95.0817 15.75 65 15.75V16.75C94.7492 16.75 118.667 36.0255 118.667 59.5833H119.667Z" fill="#A8AAD0"/>
</g>
</svg>
