<svg width="102" height="23" viewBox="0 0 102 23" fill="none" xmlns="http://www.w3.org/2000/svg">
<path d="M0.000254631 20.9774C-0.0122073 21.5296 0.425292 21.9873 0.977436 21.9997L9.97514 22.2028C10.5273 22.2153 10.985 21.7778 10.9975 21.2256C11.0099 20.6735 10.5724 20.2158 10.0203 20.2033L2.02231 20.0228L2.20282 12.0249C2.21529 11.4727 1.77779 11.015 1.22564 11.0025C0.673498 10.9901 0.215794 11.4276 0.203332 11.9797L0.000254631 20.9774ZM101.075 21.9972C101.626 21.9558 102.039 21.4758 101.997 20.9251L101.323 11.9504C101.282 11.3996 100.802 10.9867 100.251 11.0281C99.7002 11.0695 99.2873 11.5494 99.3287 12.1002L99.9279 20.0777L91.9504 20.6769C91.3996 20.7183 90.9867 21.1983 91.0281 21.749C91.0695 22.2997 91.5494 22.7127 92.1002 22.6713L101.075 21.9972ZM1.69097 21.7229C9.46029 14.2965 23.7505 5.35246 41.2786 2.74623C58.7608 0.146834 79.5202 3.84065 100.348 21.7581L101.652 20.2419C80.3746 1.93742 59.0287 -1.915 40.9845 0.767975C22.9863 3.4441 8.32919 12.611 0.309029 20.2771L1.69097 21.7229Z" fill="#AECCFA"/>
</svg>
