<svg width="16" height="17" viewBox="0 0 16 17" fill="none" xmlns="http://www.w3.org/2000/svg">
<path d="M6.49791 1.28261L12.3871 0.244193C13.1519 0.109327 13.8813 0.620025 14.0162 1.38489L15.0546 7.27406C15.1193 7.64135 15.0355 8.01933 14.8216 8.32484L9.78637 15.5159C9.3409 16.1521 8.46404 16.3067 7.82785 15.8613L0.900257 11.0105C0.264068 10.5651 0.109453 9.6882 0.554917 9.05201L5.59018 1.86091C5.8041 1.5554 6.13062 1.34738 6.49791 1.28261V1.28261ZM12.4952 3.55699C12.3604 2.79213 11.631 2.28143 10.8662 2.4163C10.1013 2.55116 9.5906 3.28052 9.72547 4.04538C9.86033 4.81024 10.5897 5.32094 11.3545 5.18607C12.1194 5.05121 12.6301 4.32185 12.4952 3.55699Z" fill="#102D6F"/>
</svg>
