<svg width="102" height="23" viewBox="0 0 102 23" fill="none" xmlns="http://www.w3.org/2000/svg">
<path d="M101.998 2.06032C102.031 1.50904 101.612 1.03513 101.06 1.00182L92.0767 0.458965C91.5254 0.425652 91.0515 0.845547 91.0182 1.39683C90.9849 1.94811 91.4048 2.42201 91.9561 2.45532L99.9415 2.93786L99.459 10.9233C99.4257 11.4746 99.8455 11.9485 100.397 11.9818C100.948 12.0151 101.422 11.5952 101.455 11.0439L101.998 2.06032ZM0.961578 1.00074C0.409698 1.02196 -0.0204849 1.48655 0.000740051 2.03842L0.34655 11.0318C0.367775 11.5837 0.832359 12.0138 1.38424 11.9926C1.93611 11.9714 2.36629 11.5068 2.34508 10.9549L2.03769 2.96084L10.0318 2.65345C10.5837 2.63223 11.0138 2.16764 10.9926 1.61576C10.9714 1.06389 10.5068 0.633705 9.95493 0.654924L0.961578 1.00074ZM100.337 1.25153C91.9374 8.69366 76.8912 17.6456 59.1366 20.2535C41.4296 22.8545 20.9986 19.1547 1.67941 1.26624L0.320587 2.73375C20.1204 21.0673 41.1724 24.9137 59.4273 22.2323C77.6345 19.5579 93.0288 10.3988 101.663 2.74847L100.337 1.25153Z" fill="#AECCFA"/>
</svg>
