<svg width="20" height="20" viewBox="0 0 20 20" fill="none" xmlns="http://www.w3.org/2000/svg">
<path d="M6.66675 10.4167L8.75008 12.5L13.3334 7.91667" stroke="#2AB050" stroke-linecap="round"/>
<path d="M10.0001 18.3333C10.9714 18.3333 11.8133 17.7794 12.2272 16.9702C12.4143 16.6044 12.9629 16.3771 13.3539 16.5035C14.2188 16.7831 15.2058 16.5794 15.8926 15.8926C16.5795 15.2058 16.7831 14.2187 16.5036 13.3539C16.3772 12.9629 16.6044 12.4143 16.9703 12.2271C17.7795 11.8133 18.3334 10.9713 18.3334 10C18.3334 9.02869 17.7795 8.18675 16.9703 7.77286C16.6044 7.58573 16.3772 7.03717 16.5036 6.64616C16.7831 5.78131 16.5795 4.79428 15.8927 4.10745C15.2058 3.42062 14.2188 3.21697 13.3539 3.4965C12.9629 3.62288 12.4144 3.39565 12.2272 3.0298C11.8133 2.2206 10.9714 1.66667 10.0001 1.66667C9.02877 1.66667 8.18683 2.2206 7.77294 3.02979C7.58581 3.39563 7.03725 3.62286 6.64624 3.49648C5.78139 3.21695 4.79436 3.4206 4.10753 4.10743C3.42071 4.79425 3.21706 5.78128 3.49658 6.64613C3.62296 7.03715 3.39573 7.58573 3.02988 7.77286C2.22068 8.18675 1.66675 9.02869 1.66675 10C1.66675 10.9713 2.22068 11.8133 3.02987 12.2271C3.39572 12.4143 3.62293 12.9628 3.49656 13.3538C3.21703 14.2187 3.42068 15.2057 4.10751 15.8925C4.79433 16.5794 5.78136 16.783 6.64621 16.5035C7.03723 16.3771 7.58581 16.6044 7.77294 16.9702C8.18683 17.7794 9.02877 18.3333 10.0001 18.3333Z" stroke="#2AB050" stroke-linecap="round"/>
</svg>
